<svg width="16" height="24" viewBox="0 0 16 24" fill="none" xmlns="http://www.w3.org/2000/svg">
<path d="M6.9906 0.310934L0.418792 5.19021C-0.139597 5.60478 -0.139597 6.27449 0.418792 6.68907C0.977181 7.10364 1.87919 7.10364 2.43758 6.68907L8.00716 2.56454L13.5624 6.68907C14.1208 7.10364 15.0228 7.10364 15.5812 6.68907C16.1396 6.27449 16.1396 5.60478 15.5812 5.19021L9.0094 0.310934C8.46532 -0.103645 7.54899 -0.103645 6.9906 0.310934Z" fill="#4E9982"/>
<path d="M13.5481 17.3109L7.99284 21.4355L2.43758 17.3109C1.87919 16.8964 0.977181 16.8964 0.418792 17.3109C-0.139597 17.7255 -0.139597 18.3952 0.418792 18.8098L6.9906 23.6891C7.54899 24.1036 8.45101 24.1036 9.0094 23.6891L15.5812 18.8098C16.1396 18.3952 16.1396 17.7255 15.5812 17.3109C15.0228 16.907 14.1065 16.8964 13.5481 17.3109Z" fill="#4E9982"/>
</svg>
