<svg width="1199" height="359" viewBox="0 0 1199 359" fill="none" xmlns="http://www.w3.org/2000/svg">
<g clip-path="url(#clip0_232_470)">
<rect width="1199" height="359" rx="50" fill="#4E9982"/>
<path d="M1161.18 35.68C1151.92 30.15 1136.65 43.47 1132.77 47.1C1133.55 44.7979 1134.91 42.733 1136.71 41.1C1136.75 41.0669 1136.78 41.0243 1136.81 40.9756C1136.83 40.9269 1136.84 40.8736 1136.84 40.82C1136.84 40.7684 1136.82 40.7176 1136.8 40.6722C1136.78 40.6268 1136.74 40.5883 1136.7 40.56C1135.84 39.9802 1134.83 39.6607 1133.8 39.64C1134.33 38.9837 1135.01 38.4669 1135.79 38.1342C1136.57 37.8014 1137.41 37.6627 1138.26 37.73C1138.32 37.7392 1138.38 37.7299 1138.44 37.7032C1138.5 37.6765 1138.54 37.6337 1138.58 37.58C1138.61 37.5253 1138.62 37.4632 1138.62 37.4C1138.62 37.3368 1138.61 37.2747 1138.58 37.22C1138.17 36.6016 1137.6 36.1021 1136.94 35.7719C1136.28 35.4418 1135.54 35.2928 1134.8 35.34C1136.11 34.34 1139.08 33.98 1140.28 33.94C1140.34 33.9394 1140.4 33.9201 1140.46 33.8846C1140.51 33.8491 1140.55 33.7988 1140.58 33.74C1140.6 33.6827 1140.61 33.6197 1140.6 33.558C1140.59 33.4963 1140.57 33.4381 1140.53 33.39C1139.37 32.0431 1137.73 31.2061 1135.96 31.06C1137.62 29.06 1142.54 28.46 1142.59 28.45C1142.66 28.4446 1142.72 28.4162 1142.78 28.3692C1142.83 28.3222 1142.86 28.2592 1142.88 28.19C1142.89 28.1513 1142.9 28.1097 1142.9 28.0676C1142.9 28.0255 1142.89 27.9837 1142.88 27.9447C1142.86 27.9057 1142.84 27.8702 1142.81 27.8402C1142.78 27.8102 1142.75 27.7864 1142.71 27.77C1141.15 26.7761 1139.38 26.1567 1137.54 25.96C1139.54 23.48 1145.9 21.96 1145.97 21.96C1146.03 21.9441 1146.1 21.9078 1146.14 21.8559C1146.19 21.804 1146.22 21.7391 1146.23 21.67C1146.23 21.6018 1146.22 21.5328 1146.19 21.4721C1146.16 21.4114 1146.11 21.3619 1146.05 21.33C1141.79 19.11 1136.59 21.27 1136.35 21.33C1130.35 24.33 1130.08 34.28 1130.71 41.17C1128.35 32.8 1123.22 19.69 1114.15 19C1113.85 19 1106.78 19 1102.9 23.57C1102.86 23.6256 1102.84 23.692 1102.84 23.76C1102.84 23.828 1102.86 23.8944 1102.9 23.95C1102.93 24.0098 1102.98 24.0578 1103.05 24.0881C1103.11 24.1184 1103.18 24.1295 1103.25 24.12C1103.34 24.12 1111.79 22.75 1115.25 24.85C1113.14 25.9444 1111.32 27.5329 1109.96 29.48C1109.92 29.5387 1109.89 29.6085 1109.89 29.68C1109.89 29.7515 1109.92 29.8213 1109.96 29.88C1110 29.9372 1110.05 29.9804 1110.12 30.0037C1110.19 30.027 1110.26 30.0292 1110.33 30.01C1110.4 30.01 1116.67 28.26 1119.55 29.96C1118.53 30.4515 1117.63 31.1409 1116.88 31.9875C1116.14 32.8342 1115.57 33.821 1115.22 34.89C1115.2 34.9508 1115.19 35.0162 1115.21 35.0784C1115.23 35.1406 1115.26 35.1967 1115.31 35.24C1115.35 35.2851 1115.41 35.3158 1115.47 35.3283C1115.53 35.3408 1115.6 35.3344 1115.66 35.31C1117.15 34.76 1121.03 33.67 1123.03 34.41C1122.11 34.6779 1121.28 35.192 1120.63 35.8968C1119.98 36.6017 1119.53 37.4706 1119.34 38.41C1119.33 38.4726 1119.33 38.5366 1119.36 38.5949C1119.38 38.6532 1119.42 38.7035 1119.48 38.74C1119.53 38.7716 1119.59 38.7882 1119.66 38.7882C1119.72 38.7882 1119.78 38.7716 1119.84 38.74C1120.83 38.2307 1121.93 37.9801 1123.04 38.0116C1124.15 38.0431 1125.24 38.3556 1126.2 38.92C1124.95 39.4256 1123.88 40.2927 1123.13 41.41C1123.1 41.4562 1123.09 41.5077 1123.09 41.56C1123.09 41.6123 1123.1 41.6638 1123.13 41.71C1123.15 41.7593 1123.17 41.8038 1123.21 41.8401C1123.25 41.8765 1123.3 41.9038 1123.35 41.92C1126.29 42.9759 1128.91 44.7781 1130.95 47.15C1126.01 45.24 1109.25 39.49 1103.37 47.15C1103.23 47.36 1099.92 52.35 1101.37 57.24C1101.39 57.3056 1101.43 57.3636 1101.48 57.4064C1101.53 57.4493 1101.6 57.4749 1101.67 57.48H1101.72C1101.78 57.4736 1101.83 57.4518 1101.88 57.4168C1101.93 57.3817 1101.97 57.3346 1102 57.28C1102 57.21 1104.92 50.77 1107.94 49.28C1107.76 51.2525 1108.04 53.2396 1108.78 55.08C1108.8 55.1458 1108.84 55.2025 1108.9 55.242C1108.96 55.2816 1109.03 55.3019 1109.1 55.3C1109.17 55.2989 1109.24 55.2751 1109.3 55.232C1109.35 55.1889 1109.4 55.1287 1109.42 55.06C1109.42 55.01 1111.07 49.93 1113.53 48.62C1113.42 49.5555 1113.49 50.5034 1113.75 51.4094C1114.01 52.3155 1114.44 53.1618 1115.03 53.9C1115.07 53.949 1115.12 53.9855 1115.18 54.005C1115.24 54.0245 1115.31 54.0262 1115.37 54.01C1115.43 53.9975 1115.48 53.9671 1115.53 53.9226C1115.57 53.8782 1115.6 53.8216 1115.62 53.76C1115.91 52.5 1116.88 49.4 1118.25 48.26C1118.04 49.0276 1118.04 49.837 1118.24 50.605C1118.45 51.373 1118.86 52.0719 1119.43 52.63C1119.47 52.672 1119.53 52.7006 1119.59 52.713C1119.65 52.7253 1119.72 52.7208 1119.78 52.7C1119.84 52.6765 1119.89 52.637 1119.93 52.5858C1119.97 52.5347 1119.99 52.4739 1120 52.41C1120.1 51.5062 1120.43 50.6416 1120.94 49.8907C1121.45 49.1399 1122.14 48.5253 1122.95 48.1C1122.75 49.192 1122.87 50.3184 1123.31 51.34C1123.33 51.388 1123.36 51.4303 1123.4 51.4634C1123.44 51.4965 1123.49 51.5194 1123.54 51.53C1123.59 51.5411 1123.64 51.5406 1123.69 51.5285C1123.74 51.5164 1123.79 51.4929 1123.83 51.46C1124.62 50.8403 1125.48 50.3197 1126.4 49.91C1126 50.2794 1125.69 50.7354 1125.49 51.2432C1125.29 51.7509 1125.21 52.2971 1125.26 52.84C1125.34 53.7932 1125.79 54.6752 1126.53 55.2921C1127.26 55.9089 1128.2 56.2103 1129.16 56.13C1129.94 56.0612 1130.68 55.7341 1131.26 55.2C1132.11 57.42 1135.36 68.06 1129.86 89.2C1122.44 91.43 1121.26 93.77 1120.23 95.84C1119.89 96.5921 1119.45 97.2899 1118.91 97.91C1118.38 98.649 1118.07 99.5177 1118.01 100.421C1117.95 101.324 1118.14 102.227 1118.56 103.03C1119.93 105.89 1124.44 109.03 1138.1 107.88C1147.5 107.08 1153.29 104.88 1155.31 101.34C1155.72 100.662 1155.96 99.8975 1156.03 99.1076C1156.09 98.3177 1155.96 97.5241 1155.67 96.79C1153.67 92.01 1148.55 88.14 1143.67 87.67C1142.89 79.96 1140.5 61.89 1134.84 54.67C1135.08 54.6949 1135.32 54.6949 1135.56 54.67C1136.51 54.5861 1137.39 54.1274 1138.01 53.3946C1138.63 52.6617 1138.93 51.7144 1138.85 50.76C1138.78 50.0427 1138.51 49.3607 1138.05 48.8026C1137.6 48.2444 1136.99 47.8358 1136.3 47.63C1138.22 47.4626 1140.16 47.6422 1142.03 48.16C1142.07 48.1821 1142.12 48.1935 1142.17 48.1935C1142.22 48.1935 1142.27 48.1821 1142.32 48.16C1142.36 48.1322 1142.4 48.094 1142.42 48.0487C1142.45 48.0033 1142.46 47.9523 1142.47 47.9C1142.49 46.6563 1142.14 45.4337 1141.47 44.39C1142.48 44.4859 1143.46 44.8332 1144.31 45.4005C1145.16 45.9679 1145.85 46.7375 1146.33 47.64C1146.35 47.6962 1146.4 47.7437 1146.45 47.7773C1146.5 47.8108 1146.56 47.829 1146.63 47.83C1146.69 47.829 1146.75 47.8108 1146.8 47.7773C1146.86 47.7437 1146.9 47.6962 1146.93 47.64C1147.29 46.8305 1147.43 45.9376 1147.32 45.0568C1147.21 44.176 1146.87 43.3406 1146.33 42.64C1148.21 43.19 1150.53 46.04 1151.33 47.24C1151.36 47.2896 1151.41 47.3295 1151.46 47.3557C1151.52 47.382 1151.58 47.3938 1151.64 47.39V47.39C1151.7 47.3806 1151.76 47.3528 1151.81 47.3102C1151.86 47.2676 1151.89 47.2119 1151.91 47.15C1152.2 46.1583 1152.3 45.1178 1152.19 44.0882C1152.09 43.0587 1151.78 42.0602 1151.29 41.15C1154.36 41.45 1158.14 46.06 1158.18 46.15C1158.22 46.2045 1158.28 46.2442 1158.35 46.2638C1158.42 46.2835 1158.49 46.2821 1158.56 46.26C1158.63 46.2377 1158.68 46.1931 1158.72 46.1332C1158.76 46.0733 1158.78 46.0017 1158.78 45.93C1158.79 43.7374 1158.27 41.5743 1157.28 39.62C1160.99 39.9 1166.62 45.4 1166.68 45.46C1166.73 45.5085 1166.79 45.5403 1166.86 45.5511C1166.93 45.5618 1166.99 45.551 1167.06 45.52C1167.12 45.4914 1167.17 45.4443 1167.2 45.3852C1167.24 45.3261 1167.25 45.2579 1167.25 45.19C1166.82 39.62 1161.43 35.85 1161.18 35.68ZM1143.29 91.29C1143.16 92.3407 1142.72 93.3314 1142.05 94.1437C1141.37 94.9559 1140.47 95.5553 1139.46 95.87C1136.62 96.87 1132.61 96.21 1130.71 94.43C1130.32 94.1157 1130.03 93.6976 1129.87 93.2246C1129.72 92.7517 1129.7 92.2436 1129.82 91.76L1130.06 90.88C1132.52 91.7941 1135.14 92.1989 1137.76 92.07C1139.8 91.9877 1141.73 91.1208 1143.15 89.65C1143.24 90.56 1143.28 91.14 1143.29 91.29V91.29ZM1143.06 88.69C1139.63 93.3 1131.8 90.79 1130.23 90.22C1130.69 88.52 1131.09 86.8866 1131.44 85.32C1133.2 86.411 1135.28 86.8956 1137.35 86.7C1139.22 86.5011 1141.03 85.8972 1142.65 84.93C1142.82 86.39 1142.96 87.67 1143.06 88.69ZM1142.56 84.2C1136.56 87.8 1132.44 85.2 1131.56 84.61C1131.9 83.04 1132.18 81.54 1132.43 80.11C1134.04 80.6306 1135.74 80.831 1137.43 80.7C1138.97 80.5775 1140.47 80.1166 1141.82 79.35C1142.15 81.08 1142.37 82.77 1142.56 84.2ZM1132.56 79.43C1132.81 77.93 1133.01 76.49 1133.16 75.14C1134.48 75.624 1135.89 75.8117 1137.3 75.69C1138.61 75.5788 1139.88 75.1866 1141.03 74.54C1141.3 75.93 1141.53 77.3 1141.74 78.63C1140.35 79.3932 1138.82 79.8586 1137.24 79.9963C1135.66 80.1341 1134.08 79.9412 1132.58 79.43H1132.56ZM1133.23 74.43C1133.36 73.15 1133.46 71.93 1133.52 70.78C1134.65 71.1552 1135.84 71.298 1137.03 71.2C1138.12 71.1022 1139.19 70.7605 1140.14 70.2C1140.41 71.39 1140.67 72.6 1140.9 73.79C1139.75 74.4597 1138.47 74.8656 1137.14 74.978C1135.82 75.0904 1134.49 74.9067 1133.25 74.44L1133.23 74.43ZM1133.56 70.07C1133.56 69 1133.62 67.99 1133.61 67.07C1134.35 67.2044 1135.1 67.2414 1135.85 67.18C1137 67.1021 1138.11 66.7 1139.05 66.02C1139.38 67.18 1139.69 68.37 1139.97 69.57C1139 70.1134 1137.93 70.4405 1136.83 70.5286C1135.72 70.6167 1134.61 70.4636 1133.58 70.08L1133.56 70.07ZM1133.61 66.34C1133.61 65.15 1133.53 64.06 1133.44 63.06C1133.97 63.1817 1134.53 63.2188 1135.08 63.17C1136.07 63.0806 1137.02 62.7361 1137.84 62.17C1138.19 63.17 1138.53 64.17 1138.84 65.26C1138.09 65.7956 1137.24 66.1694 1136.35 66.3571C1135.45 66.5449 1134.52 66.5424 1133.63 66.35L1133.61 66.34ZM1133.38 62.34C1133.29 61.5 1133.19 60.73 1133.08 60.03C1133.39 60.0609 1133.71 60.0609 1134.03 60.03C1134.95 59.9656 1135.83 59.6162 1136.55 59.03C1136.92 59.82 1137.26 60.66 1137.6 61.53C1137.01 61.9788 1136.32 62.2861 1135.59 62.4283C1134.86 62.5704 1134.11 62.5436 1133.4 62.35L1133.38 62.34ZM1132.97 59.34C1132.82 58.54 1132.67 57.85 1132.52 57.26C1132.72 57.28 1132.93 57.28 1133.14 57.26C1133.89 57.2083 1134.6 56.885 1135.14 56.35C1135.55 56.9946 1135.93 57.6624 1136.28 58.35C1135.84 58.7508 1135.31 59.0486 1134.74 59.2216C1134.18 59.3945 1133.57 59.4384 1132.99 59.35L1132.97 59.34ZM1132.32 56.54C1132.13 55.88 1131.96 55.39 1131.83 55.05H1132.26C1132.79 55.0013 1133.3 54.8338 1133.76 54.56C1134.11 54.9435 1134.45 55.3475 1134.76 55.77C1134.46 56.102 1134.08 56.3491 1133.65 56.4861C1133.23 56.6231 1132.77 56.6451 1132.34 56.55L1132.32 56.54ZM1133.63 53.85C1133.3 54.075 1132.93 54.2324 1132.54 54.3131C1132.15 54.3938 1131.75 54.3961 1131.36 54.32C1130.74 54.1929 1130.18 53.8691 1129.76 53.397C1129.34 52.9248 1129.08 52.3295 1129.03 51.7C1128.99 51.3221 1129.03 50.9412 1129.15 50.5791C1129.26 50.217 1129.44 49.8809 1129.69 49.59V49.59C1129.93 49.287 1130.23 49.0367 1130.58 48.8545C1130.92 48.6723 1131.3 48.5619 1131.69 48.53H1132.12C1132.49 48.5487 1132.85 48.6404 1133.19 48.8C1133.65 49.0188 1134.05 49.3556 1134.34 49.7768C1134.64 50.198 1134.81 50.6887 1134.86 51.2C1134.91 51.7107 1134.82 52.2257 1134.61 52.6929C1134.4 53.1601 1134.06 53.5627 1133.65 53.86L1133.63 53.85ZM1136.63 22.02C1137.91 21.523 1139.26 21.2099 1140.63 21.09C1142.06 20.9411 1143.51 21.1084 1144.87 21.58C1142.78 22.16 1137.87 23.74 1136.63 26.16C1136.59 26.211 1136.58 26.2699 1136.58 26.33C1136.58 26.3901 1136.59 26.4491 1136.63 26.5C1136.66 26.5503 1136.7 26.5909 1136.76 26.6174C1136.81 26.6439 1136.87 26.6552 1136.93 26.65C1138.53 26.6882 1140.09 27.1174 1141.49 27.9C1139.71 28.23 1136.06 29.13 1135 31.19C1134.97 31.2402 1134.95 31.2971 1134.95 31.355C1134.95 31.4129 1134.97 31.4698 1135 31.52C1135.03 31.5714 1135.07 31.6134 1135.12 31.6416C1135.18 31.6698 1135.24 31.6831 1135.3 31.68C1136.84 31.6871 1138.32 32.2561 1139.47 33.28C1137.95 33.41 1134.52 33.9 1133.64 35.57C1133.6 35.624 1133.59 35.6864 1133.59 35.75C1133.59 35.8136 1133.6 35.876 1133.64 35.93C1133.67 35.9847 1133.72 36.0268 1133.79 36.0501C1133.85 36.0735 1133.91 36.0769 1133.98 36.06C1134.6 35.9346 1135.25 35.96 1135.86 36.1339C1136.47 36.3078 1137.03 36.6253 1137.5 37.06C1136.53 37.077 1135.59 37.3417 1134.76 37.8286C1133.93 38.3156 1133.24 39.0083 1132.76 39.84C1132.72 39.8929 1132.71 39.9533 1132.71 40.015C1132.71 40.0766 1132.72 40.1371 1132.76 40.19C1132.79 40.2419 1132.84 40.2834 1132.9 40.3098C1132.95 40.3363 1133.01 40.3467 1133.08 40.34C1134.02 40.2747 1134.97 40.461 1135.82 40.88C1134.12 42.5227 1132.83 44.5397 1132.05 46.77C1131.34 41.97 1129.12 25.82 1136.71 22.03L1136.63 22.02ZM1123.86 41.52C1124.67 40.56 1125.72 39.8434 1126.92 39.45C1126.98 39.4328 1127.03 39.3995 1127.07 39.3537C1127.12 39.3078 1127.14 39.2512 1127.16 39.19C1127.17 39.1284 1127.16 39.0653 1127.14 39.0073C1127.11 38.9493 1127.08 38.8984 1127.03 38.86C1126.04 38.118 1124.87 37.6458 1123.64 37.4898C1122.42 37.3338 1121.17 37.4993 1120.03 37.97C1120.84 35.47 1123.69 34.97 1123.82 34.91C1123.88 34.9018 1123.94 34.8746 1123.99 34.8317C1124.04 34.7889 1124.07 34.7325 1124.09 34.67C1124.1 34.6071 1124.1 34.5415 1124.08 34.4799C1124.06 34.4183 1124.02 34.3631 1123.98 34.32C1122.12 32.76 1117.69 33.97 1115.98 34.52C1116.81 32.665 1118.33 31.1989 1120.21 30.42C1120.26 30.4007 1120.31 30.3664 1120.35 30.3206C1120.39 30.2747 1120.42 30.2192 1120.43 30.16C1120.44 30.1017 1120.43 30.0418 1120.41 29.9858C1120.39 29.9298 1120.36 29.8797 1120.32 29.84C1118.04 27.89 1113.08 28.72 1110.98 29.19C1112.27 27.5025 1113.97 26.1708 1115.92 25.32C1115.97 25.2998 1116.02 25.2652 1116.06 25.2195C1116.1 25.1739 1116.13 25.1189 1116.14 25.06C1116.15 25.0017 1116.15 24.9412 1116.13 24.8848C1116.11 24.8285 1116.07 24.7784 1116.03 24.74C1113.32 22.46 1106.53 23.07 1104.03 23.38C1107.81 19.72 1114.03 19.74 1114.09 19.74C1125.01 20.58 1130.18 41.33 1131.36 46.86C1129.34 44.501 1126.78 42.6711 1123.9 41.53L1123.86 41.52ZM1123.71 50.77C1123.44 49.7876 1123.44 48.7524 1123.71 47.77C1123.73 47.7106 1123.73 47.6472 1123.71 47.587C1123.69 47.5268 1123.66 47.4724 1123.62 47.43C1123.57 47.3862 1123.52 47.3555 1123.46 47.3413C1123.4 47.3272 1123.34 47.3302 1123.28 47.35C1122.31 47.6954 1121.44 48.2843 1120.77 49.0602C1120.09 49.836 1119.63 50.7726 1119.42 51.78C1119.05 51.1973 1118.82 50.5336 1118.77 49.8456C1118.71 49.1577 1118.82 48.466 1119.09 47.83C1119.12 47.778 1119.14 47.7172 1119.14 47.655C1119.14 47.5928 1119.12 47.532 1119.09 47.48C1119.04 47.4319 1118.99 47.3969 1118.93 47.3792C1118.86 47.3615 1118.8 47.3618 1118.74 47.38C1116.8 47.95 1115.6 51.5 1115.17 53.03C1114.3 51.612 1113.99 49.9219 1114.31 48.29C1114.32 48.2325 1114.32 48.1729 1114.3 48.1168C1114.28 48.0607 1114.25 48.0102 1114.21 47.97C1114.17 47.926 1114.11 47.895 1114.05 47.8808C1113.99 47.8666 1113.93 47.8698 1113.88 47.89C1111.5 48.58 1109.81 52.29 1109.13 54.06C1108.58 52.4188 1108.44 50.668 1108.72 48.96C1108.73 48.902 1108.73 48.8406 1108.72 48.7824C1108.7 48.7242 1108.67 48.6715 1108.63 48.63C1108.58 48.588 1108.53 48.5584 1108.47 48.5443C1108.41 48.5302 1108.35 48.5322 1108.3 48.55C1105.49 49.39 1102.83 54.25 1101.82 56.28C1101.09 51.99 1103.91 47.73 1103.93 47.7C1105.63 45.5 1108.36 44.51 1111.48 44.24C1118.53 43.64 1127.48 46.76 1130.79 48.01C1128.24 48.3515 1125.81 49.2979 1123.71 50.77ZM1129.51 48.92L1129.34 49.08H1129.04L1129.51 48.92ZM1125.88 52.92C1125.84 52.5357 1125.89 52.1488 1126 51.7813C1126.12 51.4138 1126.31 51.073 1126.56 50.7785C1126.81 50.484 1127.11 50.2416 1127.45 50.0651C1127.8 49.8886 1128.17 49.7815 1128.56 49.75H1128.86V49.8C1128.86 49.85 1128.81 49.91 1128.78 49.96C1128.71 50.0962 1128.65 50.2365 1128.6 50.38L1128.54 50.59C1128.5 50.7309 1128.47 50.8746 1128.45 51.02V51.21C1128.43 51.4262 1128.43 51.6438 1128.45 51.86C1128.46 52.0421 1128.49 52.2227 1128.54 52.4C1128.54 52.46 1128.54 52.52 1128.59 52.58L1128.71 52.92L1128.8 53.11C1128.84 53.2098 1128.9 53.3067 1128.96 53.4L1129.08 53.59C1129.13 53.6775 1129.2 53.761 1129.27 53.84L1129.42 54.01C1129.49 54.0916 1129.57 54.1684 1129.65 54.24L1129.82 54.38C1129.9 54.4522 1129.99 54.519 1130.09 54.58L1130.26 54.69C1130.4 54.7719 1130.55 54.8421 1130.71 54.9V54.9C1130.24 55.2925 1129.67 55.5303 1129.07 55.58C1128.67 55.6169 1128.28 55.5748 1127.9 55.4561C1127.53 55.3375 1127.18 55.1446 1126.88 54.8891C1126.58 54.6336 1126.34 54.3205 1126.16 53.9685C1125.99 53.6165 1125.88 53.2328 1125.86 52.84L1125.88 52.92ZM1155.03 97.21C1155.28 97.8583 1155.38 98.5571 1155.32 99.2512C1155.26 99.9453 1155.04 100.616 1154.68 101.21C1153.37 103.49 1149.41 106.42 1138.01 107.4C1124.01 108.59 1120.18 105.11 1119.13 102.92C1118.77 102.238 1118.61 101.474 1118.65 100.707C1118.7 99.9408 1118.94 99.1995 1119.37 98.56C1119.95 97.8919 1120.44 97.1404 1120.81 96.33C1121.81 94.33 1122.86 92.27 1129.62 90.16C1129.49 90.67 1129.35 91.16 1129.21 91.7C1129.04 92.3014 1129.06 92.9379 1129.25 93.5313C1129.44 94.1247 1129.8 94.6491 1130.29 95.04C1131.29 95.8369 1132.43 96.429 1133.66 96.7824C1134.89 97.1359 1136.18 97.2438 1137.45 97.1C1138.22 97.0338 1138.99 96.8726 1139.73 96.62C1140.86 96.2635 1141.87 95.5883 1142.62 94.6749C1143.38 93.7616 1143.86 92.6489 1144.01 91.47V91.4C1144.01 91.19 1143.92 90.15 1143.76 88.54C1146.19 88.9352 1148.5 89.9261 1150.46 91.4246C1152.42 92.923 1153.98 94.8828 1155.01 97.13L1155.03 97.21ZM1138.17 51.01C1138.2 51.3935 1138.16 51.7797 1138.04 52.1465C1137.92 52.5134 1137.74 52.8538 1137.49 53.1481C1137.24 53.4425 1136.94 53.6852 1136.6 53.8622C1136.25 54.0393 1135.88 54.1472 1135.5 54.18C1135.16 54.2125 1134.82 54.1854 1134.5 54.1C1134.56 54.05 1134.6 53.99 1134.66 53.93L1134.74 53.84C1134.83 53.73 1134.92 53.61 1135 53.49C1135.07 53.38 1135.13 53.26 1135.19 53.15L1135.25 53.02C1135.25 52.93 1135.32 52.84 1135.35 52.74C1135.38 52.64 1135.35 52.64 1135.4 52.59C1135.43 52.4982 1135.45 52.4047 1135.47 52.31V52.16V51.86C1135.47 51.8134 1135.47 51.7666 1135.47 51.72C1135.48 51.5702 1135.48 51.4198 1135.47 51.27C1135.47 51.12 1135.47 50.98 1135.4 50.83C1135.33 50.68 1135.4 50.74 1135.4 50.69C1135.4 50.64 1135.35 50.5 1135.32 50.41L1135.26 50.25C1135.22 50.1649 1135.19 50.0814 1135.15 50C1135.12 49.948 1135.1 49.8978 1135.07 49.85C1135.07 49.77 1134.98 49.69 1134.93 49.61L1134.84 49.48C1134.78 49.3867 1134.7 49.2996 1134.63 49.22L1134.57 49.14C1134.47 49.0383 1134.37 48.9415 1134.27 48.85L1134.15 48.76L1133.98 48.62C1134.27 48.4895 1134.59 48.4084 1134.92 48.38C1135.68 48.2952 1136.45 48.5153 1137.05 48.9925C1137.66 49.4697 1138.05 50.1657 1138.15 50.93L1138.17 51.01ZM1156.71 39.01C1156.65 39.0154 1156.59 39.0357 1156.54 39.0689C1156.49 39.1021 1156.45 39.1472 1156.43 39.2C1156.4 39.252 1156.38 39.3105 1156.38 39.37C1156.38 39.4295 1156.4 39.488 1156.43 39.54C1157.43 41.2075 1158 43.0975 1158.09 45.04C1156.72 43.54 1153.46 40.34 1150.72 40.58C1150.66 40.5841 1150.6 40.604 1150.56 40.6375C1150.51 40.671 1150.47 40.7168 1150.45 40.77C1150.42 40.822 1150.4 40.8805 1150.4 40.94C1150.4 40.9995 1150.42 41.058 1150.45 41.11C1151.43 42.6905 1151.78 44.5805 1151.45 46.41C1150.45 45.05 1147.73 41.82 1145.5 42.02C1145.43 42.0228 1145.37 42.0454 1145.32 42.0847C1145.27 42.1241 1145.23 42.1782 1145.21 42.24C1145.18 42.2994 1145.18 42.365 1145.19 42.4277C1145.21 42.4904 1145.24 42.5472 1145.29 42.59C1145.83 43.1446 1146.23 43.8245 1146.44 44.5695C1146.66 45.3144 1146.69 46.1012 1146.53 46.86C1145.91 45.9115 1145.05 45.1378 1144.05 44.6127C1143.04 44.0875 1141.92 43.8284 1140.79 43.86C1140.72 43.864 1140.66 43.8846 1140.61 43.9197C1140.56 43.9549 1140.51 44.0032 1140.49 44.06C1140.46 44.1173 1140.45 44.1803 1140.46 44.242C1140.47 44.3037 1140.5 44.3619 1140.54 44.41C1141.22 45.3319 1141.64 46.4258 1141.74 47.57C1139.87 47.1058 1137.95 46.9571 1136.04 47.13C1135.11 47.2154 1134.19 47.3658 1133.29 47.58C1137.29 43.93 1152.14 31.15 1160.78 36.32C1160.83 36.32 1165.52 39.63 1166.45 44.39C1164.71 42.69 1159.94 38.68 1156.71 38.96V39.01Z" fill="#E5E5E5"/>
<path d="M1115.18 59.68C1105.92 54.15 1090.65 67.47 1086.77 71.1C1087.55 68.7979 1088.91 66.733 1090.71 65.1C1090.75 65.0669 1090.78 65.0243 1090.81 64.9756C1090.83 64.9269 1090.84 64.8736 1090.84 64.82C1090.84 64.7684 1090.82 64.7176 1090.8 64.6722C1090.78 64.6268 1090.74 64.5883 1090.7 64.56C1089.84 63.9802 1088.83 63.6607 1087.8 63.64C1088.33 62.9837 1089.01 62.4669 1089.79 62.1342C1090.57 61.8014 1091.41 61.6627 1092.26 61.73C1092.32 61.7392 1092.38 61.7299 1092.44 61.7032C1092.5 61.6765 1092.54 61.6337 1092.58 61.58C1092.61 61.5253 1092.62 61.4632 1092.62 61.4C1092.62 61.3368 1092.61 61.2747 1092.58 61.22C1092.17 60.6016 1091.6 60.1021 1090.94 59.7719C1090.28 59.4418 1089.54 59.2928 1088.8 59.34C1090.11 58.34 1093.08 57.98 1094.28 57.94C1094.34 57.9394 1094.4 57.9201 1094.46 57.8846C1094.51 57.8491 1094.55 57.7988 1094.58 57.74C1094.6 57.6827 1094.61 57.6197 1094.6 57.558C1094.59 57.4963 1094.57 57.4381 1094.53 57.39C1093.37 56.0431 1091.73 55.2061 1089.96 55.06C1091.62 53.06 1096.54 52.46 1096.59 52.45C1096.66 52.4446 1096.72 52.4162 1096.78 52.3692C1096.83 52.3222 1096.86 52.2592 1096.88 52.19C1096.89 52.1513 1096.9 52.1097 1096.9 52.0676C1096.9 52.0255 1096.89 51.9837 1096.88 51.9447C1096.86 51.9057 1096.84 51.8702 1096.81 51.8402C1096.78 51.8102 1096.75 51.7864 1096.71 51.77C1095.15 50.7761 1093.38 50.1567 1091.54 49.96C1093.54 47.48 1099.9 45.96 1099.97 45.96C1100.03 45.9441 1100.1 45.9078 1100.14 45.8559C1100.19 45.804 1100.22 45.7391 1100.23 45.67C1100.23 45.6018 1100.22 45.5328 1100.19 45.4721C1100.16 45.4114 1100.11 45.3619 1100.05 45.33C1095.79 43.11 1090.59 45.27 1090.35 45.33C1084.35 48.33 1084.08 58.28 1084.71 65.17C1082.35 56.8 1077.22 43.69 1068.15 43C1067.85 43 1060.78 43 1056.9 47.57C1056.86 47.6256 1056.84 47.692 1056.84 47.76C1056.84 47.828 1056.86 47.8944 1056.9 47.95C1056.93 48.0098 1056.98 48.0578 1057.05 48.0881C1057.11 48.1184 1057.18 48.1295 1057.25 48.12C1057.34 48.12 1065.79 46.75 1069.25 48.85C1067.14 49.9444 1065.32 51.5329 1063.96 53.48C1063.92 53.5387 1063.89 53.6085 1063.89 53.68C1063.89 53.7515 1063.92 53.8213 1063.96 53.88C1064 53.9372 1064.05 53.9804 1064.12 54.0037C1064.19 54.027 1064.26 54.0292 1064.33 54.01C1064.4 54.01 1070.67 52.26 1073.55 53.96C1072.53 54.4515 1071.63 55.1409 1070.88 55.9875C1070.14 56.8342 1069.57 57.821 1069.22 58.89C1069.2 58.9508 1069.19 59.0162 1069.21 59.0784C1069.23 59.1406 1069.26 59.1967 1069.31 59.24C1069.35 59.2851 1069.41 59.3158 1069.47 59.3283C1069.53 59.3408 1069.6 59.3344 1069.66 59.31C1071.15 58.76 1075.03 57.67 1077.03 58.41C1076.11 58.6779 1075.28 59.192 1074.63 59.8968C1073.98 60.6017 1073.53 61.4706 1073.34 62.41C1073.33 62.4726 1073.33 62.5366 1073.36 62.5949C1073.38 62.6532 1073.42 62.7035 1073.48 62.74C1073.53 62.7716 1073.59 62.7882 1073.66 62.7882C1073.72 62.7882 1073.78 62.7716 1073.84 62.74C1074.83 62.2307 1075.93 61.9801 1077.04 62.0116C1078.15 62.0431 1079.24 62.3556 1080.2 62.92C1078.95 63.4256 1077.88 64.2927 1077.13 65.41C1077.1 65.4562 1077.09 65.5077 1077.09 65.56C1077.09 65.6123 1077.1 65.6638 1077.13 65.71C1077.15 65.7593 1077.17 65.8038 1077.21 65.8401C1077.25 65.8765 1077.3 65.9038 1077.35 65.92C1080.29 66.9759 1082.91 68.7781 1084.95 71.15C1080.01 69.24 1063.25 63.49 1057.37 71.15C1057.23 71.36 1053.92 76.35 1055.37 81.24C1055.39 81.3056 1055.43 81.3636 1055.48 81.4064C1055.53 81.4493 1055.6 81.4749 1055.67 81.48H1055.72C1055.78 81.4736 1055.83 81.4518 1055.88 81.4168C1055.93 81.3817 1055.97 81.3346 1056 81.28C1056 81.21 1058.92 74.77 1061.94 73.28C1061.76 75.2525 1062.04 77.2396 1062.78 79.08C1062.8 79.1458 1062.84 79.2025 1062.9 79.242C1062.96 79.2816 1063.03 79.3019 1063.1 79.3C1063.17 79.2989 1063.24 79.2751 1063.3 79.232C1063.35 79.1889 1063.4 79.1287 1063.42 79.06C1063.42 79.01 1065.07 73.93 1067.53 72.62C1067.42 73.5555 1067.49 74.5034 1067.75 75.4094C1068.01 76.3155 1068.44 77.1618 1069.03 77.9C1069.07 77.949 1069.12 77.9855 1069.18 78.005C1069.24 78.0245 1069.31 78.0262 1069.37 78.01C1069.43 77.9975 1069.48 77.9671 1069.53 77.9226C1069.57 77.8782 1069.6 77.8216 1069.62 77.76C1069.91 76.5 1070.88 73.4 1072.25 72.26C1072.04 73.0276 1072.04 73.837 1072.24 74.605C1072.45 75.373 1072.86 76.0719 1073.43 76.63C1073.47 76.672 1073.53 76.7006 1073.59 76.713C1073.65 76.7253 1073.72 76.7208 1073.78 76.7C1073.84 76.6765 1073.89 76.637 1073.93 76.5858C1073.97 76.5347 1073.99 76.4739 1074 76.41C1074.1 75.5062 1074.43 74.6416 1074.94 73.8907C1075.45 73.1399 1076.14 72.5253 1076.95 72.1C1076.75 73.192 1076.87 74.3184 1077.31 75.34C1077.33 75.388 1077.36 75.4303 1077.4 75.4634C1077.44 75.4965 1077.49 75.5194 1077.54 75.53C1077.59 75.5411 1077.64 75.5406 1077.69 75.5285C1077.74 75.5164 1077.79 75.4929 1077.83 75.46C1078.62 74.8403 1079.48 74.3197 1080.4 73.91C1080 74.2794 1079.69 74.7354 1079.49 75.2432C1079.29 75.7509 1079.21 76.2971 1079.26 76.84C1079.34 77.7932 1079.79 78.6752 1080.53 79.2921C1081.26 79.9089 1082.2 80.2103 1083.16 80.13C1083.94 80.0612 1084.68 79.7341 1085.26 79.2C1086.11 81.42 1089.36 92.06 1083.86 113.2C1076.44 115.43 1075.26 117.77 1074.23 119.84C1073.89 120.592 1073.45 121.29 1072.91 121.91C1072.38 122.649 1072.07 123.518 1072.01 124.421C1071.95 125.324 1072.14 126.227 1072.56 127.03C1073.93 129.89 1078.44 133.03 1092.1 131.88C1101.5 131.08 1107.29 128.88 1109.31 125.34C1109.72 124.662 1109.96 123.898 1110.03 123.108C1110.09 122.318 1109.96 121.524 1109.67 120.79C1107.67 116.01 1102.55 112.14 1097.67 111.67C1096.89 103.96 1094.5 85.89 1088.84 78.67C1089.08 78.6949 1089.32 78.6949 1089.56 78.67C1090.51 78.5861 1091.39 78.1274 1092.01 77.3946C1092.63 76.6617 1092.93 75.7144 1092.85 74.76C1092.78 74.0427 1092.51 73.3607 1092.05 72.8026C1091.6 72.2444 1090.99 71.8358 1090.3 71.63C1092.22 71.4626 1094.16 71.6422 1096.03 72.16C1096.07 72.1821 1096.12 72.1935 1096.17 72.1935C1096.22 72.1935 1096.27 72.1821 1096.32 72.16C1096.36 72.1322 1096.4 72.094 1096.42 72.0487C1096.45 72.0033 1096.46 71.9523 1096.47 71.9C1096.49 70.6563 1096.14 69.4337 1095.47 68.39C1096.48 68.4859 1097.46 68.8332 1098.31 69.4005C1099.16 69.9679 1099.85 70.7375 1100.33 71.64C1100.35 71.6962 1100.4 71.7437 1100.45 71.7773C1100.5 71.8108 1100.56 71.829 1100.63 71.83C1100.69 71.829 1100.75 71.8108 1100.8 71.7773C1100.86 71.7437 1100.9 71.6962 1100.93 71.64C1101.29 70.8305 1101.43 69.9376 1101.32 69.0568C1101.21 68.176 1100.87 67.3406 1100.33 66.64C1102.21 67.19 1104.53 70.04 1105.33 71.24C1105.36 71.2896 1105.41 71.3295 1105.46 71.3557C1105.52 71.382 1105.58 71.3938 1105.64 71.39V71.39C1105.7 71.3806 1105.76 71.3528 1105.81 71.3102C1105.86 71.2676 1105.89 71.2119 1105.91 71.15C1106.2 70.1583 1106.3 69.1178 1106.19 68.0882C1106.09 67.0587 1105.78 66.0602 1105.29 65.15C1108.36 65.45 1112.14 70.06 1112.18 70.15C1112.22 70.2045 1112.28 70.2442 1112.35 70.2638C1112.42 70.2835 1112.49 70.2821 1112.56 70.26C1112.63 70.2377 1112.68 70.1931 1112.72 70.1332C1112.76 70.0733 1112.78 70.0017 1112.78 69.93C1112.79 67.7374 1112.27 65.5743 1111.28 63.62C1114.99 63.9 1120.62 69.4 1120.68 69.46C1120.73 69.5085 1120.79 69.5403 1120.86 69.5511C1120.93 69.5618 1120.99 69.551 1121.06 69.52C1121.12 69.4914 1121.17 69.4443 1121.2 69.3852C1121.24 69.3261 1121.25 69.2579 1121.25 69.19C1120.82 63.62 1115.43 59.85 1115.18 59.68ZM1097.29 115.29C1097.16 116.341 1096.72 117.331 1096.05 118.144C1095.37 118.956 1094.47 119.555 1093.46 119.87C1090.62 120.87 1086.61 120.21 1084.71 118.43C1084.32 118.116 1084.03 117.698 1083.87 117.225C1083.72 116.752 1083.7 116.244 1083.82 115.76L1084.06 114.88C1086.52 115.794 1089.14 116.199 1091.76 116.07C1093.8 115.988 1095.73 115.121 1097.15 113.65C1097.24 114.56 1097.28 115.14 1097.29 115.29V115.29ZM1097.06 112.69C1093.63 117.3 1085.8 114.79 1084.23 114.22C1084.69 112.52 1085.09 110.887 1085.44 109.32C1087.2 110.411 1089.28 110.896 1091.35 110.7C1093.22 110.501 1095.03 109.897 1096.65 108.93C1096.82 110.39 1096.96 111.67 1097.06 112.69ZM1096.56 108.2C1090.56 111.8 1086.44 109.2 1085.56 108.61C1085.9 107.04 1086.18 105.54 1086.43 104.11C1088.04 104.631 1089.74 104.831 1091.43 104.7C1092.97 104.578 1094.47 104.117 1095.82 103.35C1096.15 105.08 1096.37 106.77 1096.56 108.2ZM1086.56 103.43C1086.81 101.93 1087.01 100.49 1087.16 99.14C1088.48 99.624 1089.89 99.8117 1091.3 99.69C1092.61 99.5788 1093.88 99.1866 1095.03 98.54C1095.3 99.93 1095.53 101.3 1095.74 102.63C1094.35 103.393 1092.82 103.859 1091.24 103.996C1089.66 104.134 1088.08 103.941 1086.58 103.43H1086.56ZM1087.23 98.43C1087.36 97.15 1087.46 95.93 1087.52 94.78C1088.65 95.1552 1089.84 95.298 1091.03 95.2C1092.12 95.1022 1093.19 94.7605 1094.14 94.2C1094.41 95.39 1094.67 96.6 1094.9 97.79C1093.75 98.4597 1092.47 98.8656 1091.14 98.978C1089.82 99.0904 1088.49 98.9067 1087.25 98.44L1087.23 98.43ZM1087.56 94.07C1087.56 93 1087.62 91.99 1087.61 91.07C1088.35 91.2044 1089.1 91.2414 1089.85 91.18C1091 91.1021 1092.11 90.7 1093.05 90.02C1093.38 91.18 1093.69 92.37 1093.97 93.57C1093 94.1134 1091.93 94.4405 1090.83 94.5286C1089.72 94.6167 1088.61 94.4636 1087.58 94.08L1087.56 94.07ZM1087.61 90.34C1087.61 89.15 1087.53 88.06 1087.44 87.06C1087.97 87.1817 1088.53 87.2188 1089.08 87.17C1090.07 87.0806 1091.02 86.7361 1091.84 86.17C1092.19 87.17 1092.53 88.17 1092.84 89.26C1092.09 89.7956 1091.24 90.1694 1090.35 90.3571C1089.45 90.5449 1088.52 90.5424 1087.63 90.35L1087.61 90.34ZM1087.38 86.34C1087.29 85.5 1087.19 84.73 1087.08 84.03C1087.39 84.0609 1087.71 84.0609 1088.03 84.03C1088.95 83.9656 1089.83 83.6162 1090.55 83.03C1090.92 83.82 1091.26 84.66 1091.6 85.53C1091.01 85.9788 1090.32 86.2861 1089.59 86.4283C1088.86 86.5704 1088.11 86.5436 1087.4 86.35L1087.38 86.34ZM1086.97 83.34C1086.82 82.54 1086.67 81.85 1086.52 81.26C1086.72 81.28 1086.93 81.28 1087.14 81.26C1087.89 81.2083 1088.6 80.885 1089.14 80.35C1089.55 80.9946 1089.93 81.6624 1090.28 82.35C1089.84 82.7508 1089.31 83.0486 1088.74 83.2216C1088.18 83.3945 1087.57 83.4384 1086.99 83.35L1086.97 83.34ZM1086.32 80.54C1086.13 79.88 1085.96 79.39 1085.83 79.05H1086.26C1086.79 79.0013 1087.3 78.8338 1087.76 78.56C1088.11 78.9435 1088.45 79.3475 1088.76 79.77C1088.46 80.102 1088.08 80.3491 1087.65 80.4861C1087.23 80.6231 1086.77 80.6451 1086.34 80.55L1086.32 80.54ZM1087.63 77.85C1087.3 78.075 1086.93 78.2324 1086.54 78.3131C1086.15 78.3938 1085.75 78.3961 1085.36 78.32C1084.74 78.1929 1084.18 77.8691 1083.76 77.397C1083.34 76.9248 1083.08 76.3295 1083.03 75.7C1082.99 75.3221 1083.03 74.9412 1083.15 74.5791C1083.26 74.217 1083.44 73.8809 1083.69 73.59V73.59C1083.93 73.287 1084.23 73.0367 1084.58 72.8545C1084.92 72.6723 1085.3 72.5619 1085.69 72.53H1086.12C1086.49 72.5487 1086.85 72.6404 1087.19 72.8C1087.65 73.0188 1088.05 73.3556 1088.34 73.7768C1088.64 74.198 1088.81 74.6887 1088.86 75.2C1088.91 75.7107 1088.82 76.2257 1088.61 76.6929C1088.4 77.1601 1088.06 77.5627 1087.65 77.86L1087.63 77.85ZM1090.63 46.02C1091.91 45.523 1093.26 45.2099 1094.63 45.09C1096.06 44.9411 1097.51 45.1084 1098.87 45.58C1096.78 46.16 1091.87 47.74 1090.63 50.16C1090.59 50.211 1090.58 50.2699 1090.58 50.33C1090.58 50.3901 1090.59 50.4491 1090.63 50.5C1090.66 50.5503 1090.7 50.5909 1090.76 50.6174C1090.81 50.6439 1090.87 50.6552 1090.93 50.65C1092.53 50.6882 1094.09 51.1174 1095.49 51.9C1093.71 52.23 1090.06 53.13 1089 55.19C1088.97 55.2402 1088.95 55.2971 1088.95 55.355C1088.95 55.4129 1088.97 55.4698 1089 55.52C1089.03 55.5714 1089.07 55.6134 1089.12 55.6416C1089.18 55.6698 1089.24 55.6831 1089.3 55.68C1090.84 55.6871 1092.32 56.2561 1093.47 57.28C1091.95 57.41 1088.52 57.9 1087.64 59.57C1087.6 59.624 1087.59 59.6864 1087.59 59.75C1087.59 59.8136 1087.6 59.876 1087.64 59.93C1087.67 59.9847 1087.72 60.0268 1087.79 60.0501C1087.85 60.0735 1087.91 60.0769 1087.98 60.06C1088.6 59.9346 1089.25 59.96 1089.86 60.1339C1090.47 60.3078 1091.03 60.6253 1091.5 61.06C1090.53 61.077 1089.59 61.3417 1088.76 61.8286C1087.93 62.3156 1087.24 63.0083 1086.76 63.84C1086.72 63.8929 1086.71 63.9533 1086.71 64.015C1086.71 64.0766 1086.72 64.1371 1086.76 64.19C1086.79 64.2419 1086.84 64.2834 1086.9 64.3098C1086.95 64.3363 1087.01 64.3467 1087.08 64.34C1088.02 64.2747 1088.97 64.461 1089.82 64.88C1088.12 66.5227 1086.83 68.5397 1086.05 70.77C1085.34 65.97 1083.12 49.82 1090.71 46.03L1090.63 46.02ZM1077.86 65.52C1078.67 64.56 1079.72 63.8434 1080.92 63.45C1080.98 63.4328 1081.03 63.3995 1081.07 63.3537C1081.12 63.3078 1081.14 63.2512 1081.16 63.19C1081.17 63.1284 1081.16 63.0653 1081.14 63.0073C1081.11 62.9493 1081.08 62.8984 1081.03 62.86C1080.04 62.118 1078.87 61.6458 1077.64 61.4898C1076.42 61.3338 1075.17 61.4993 1074.03 61.97C1074.84 59.47 1077.69 58.97 1077.82 58.91C1077.88 58.9018 1077.94 58.8746 1077.99 58.8317C1078.04 58.7889 1078.07 58.7325 1078.09 58.67C1078.1 58.6071 1078.1 58.5415 1078.08 58.4799C1078.06 58.4183 1078.02 58.3631 1077.98 58.32C1076.12 56.76 1071.69 57.97 1069.98 58.52C1070.81 56.665 1072.33 55.1989 1074.21 54.42C1074.26 54.4007 1074.31 54.3664 1074.35 54.3206C1074.39 54.2747 1074.42 54.2192 1074.43 54.16C1074.44 54.1017 1074.43 54.0418 1074.41 53.9858C1074.39 53.9298 1074.36 53.8797 1074.32 53.84C1072.04 51.89 1067.08 52.72 1064.98 53.19C1066.27 51.5025 1067.97 50.1708 1069.92 49.32C1069.97 49.2998 1070.02 49.2652 1070.06 49.2195C1070.1 49.1739 1070.13 49.1189 1070.14 49.06C1070.15 49.0017 1070.15 48.9412 1070.13 48.8848C1070.11 48.8285 1070.07 48.7784 1070.03 48.74C1067.32 46.46 1060.53 47.07 1058.03 47.38C1061.81 43.72 1068.03 43.74 1068.09 43.74C1079.01 44.58 1084.18 65.33 1085.36 70.86C1083.34 68.501 1080.78 66.6711 1077.9 65.53L1077.86 65.52ZM1077.71 74.77C1077.44 73.7876 1077.44 72.7524 1077.71 71.77C1077.73 71.7106 1077.73 71.6472 1077.71 71.587C1077.69 71.5268 1077.66 71.4724 1077.62 71.43C1077.57 71.3862 1077.52 71.3555 1077.46 71.3413C1077.4 71.3272 1077.34 71.3302 1077.28 71.35C1076.31 71.6954 1075.44 72.2843 1074.77 73.0602C1074.09 73.836 1073.63 74.7726 1073.42 75.78C1073.05 75.1973 1072.82 74.5336 1072.77 73.8456C1072.71 73.1577 1072.82 72.466 1073.09 71.83C1073.12 71.778 1073.14 71.7172 1073.14 71.655C1073.14 71.5928 1073.12 71.532 1073.09 71.48C1073.04 71.4319 1072.99 71.3969 1072.93 71.3792C1072.86 71.3615 1072.8 71.3618 1072.74 71.38C1070.8 71.95 1069.6 75.5 1069.17 77.03C1068.3 75.612 1067.99 73.9219 1068.31 72.29C1068.32 72.2325 1068.32 72.1729 1068.3 72.1168C1068.28 72.0607 1068.25 72.0102 1068.21 71.97C1068.17 71.926 1068.11 71.895 1068.05 71.8808C1067.99 71.8666 1067.93 71.8698 1067.88 71.89C1065.5 72.58 1063.81 76.29 1063.13 78.06C1062.58 76.4188 1062.44 74.668 1062.72 72.96C1062.73 72.902 1062.73 72.8406 1062.72 72.7824C1062.7 72.7242 1062.67 72.6715 1062.63 72.63C1062.58 72.588 1062.53 72.5584 1062.47 72.5443C1062.41 72.5302 1062.35 72.5322 1062.3 72.55C1059.49 73.39 1056.83 78.25 1055.82 80.28C1055.09 75.99 1057.91 71.73 1057.93 71.7C1059.63 69.5 1062.36 68.51 1065.48 68.24C1072.53 67.64 1081.48 70.76 1084.79 72.01C1082.24 72.3515 1079.81 73.2979 1077.71 74.77ZM1083.51 72.92L1083.34 73.08H1083.04L1083.51 72.92ZM1079.88 76.92C1079.84 76.5357 1079.89 76.1488 1080 75.7813C1080.12 75.4138 1080.31 75.073 1080.56 74.7785C1080.81 74.484 1081.11 74.2416 1081.45 74.0651C1081.8 73.8886 1082.17 73.7815 1082.56 73.75H1082.86V73.8C1082.86 73.85 1082.81 73.91 1082.78 73.96C1082.71 74.0962 1082.65 74.2365 1082.6 74.38L1082.54 74.59C1082.5 74.7309 1082.47 74.8746 1082.45 75.02V75.21C1082.43 75.4262 1082.43 75.6438 1082.45 75.86C1082.46 76.0421 1082.49 76.2227 1082.54 76.4C1082.54 76.46 1082.54 76.52 1082.59 76.58L1082.71 76.92L1082.8 77.11C1082.84 77.2098 1082.9 77.3067 1082.96 77.4L1083.08 77.59C1083.13 77.6775 1083.2 77.761 1083.27 77.84L1083.42 78.01C1083.49 78.0916 1083.57 78.1684 1083.65 78.24L1083.82 78.38C1083.9 78.4522 1083.99 78.519 1084.09 78.58L1084.26 78.69C1084.4 78.7719 1084.55 78.8421 1084.71 78.9V78.9C1084.24 79.2925 1083.67 79.5303 1083.07 79.58C1082.67 79.6169 1082.28 79.5748 1081.9 79.4561C1081.53 79.3375 1081.18 79.1446 1080.88 78.8891C1080.58 78.6336 1080.34 78.3205 1080.16 77.9685C1079.99 77.6165 1079.88 77.2328 1079.86 76.84L1079.88 76.92ZM1109.03 121.21C1109.28 121.858 1109.38 122.557 1109.32 123.251C1109.26 123.945 1109.04 124.616 1108.68 125.21C1107.37 127.49 1103.41 130.42 1092.01 131.4C1078.01 132.59 1074.18 129.11 1073.13 126.92C1072.77 126.238 1072.61 125.474 1072.65 124.707C1072.7 123.941 1072.94 123.2 1073.37 122.56C1073.95 121.892 1074.44 121.14 1074.81 120.33C1075.81 118.33 1076.86 116.27 1083.62 114.16C1083.49 114.67 1083.35 115.16 1083.21 115.7C1083.04 116.301 1083.06 116.938 1083.25 117.531C1083.44 118.125 1083.8 118.649 1084.29 119.04C1085.29 119.837 1086.43 120.429 1087.66 120.782C1088.89 121.136 1090.18 121.244 1091.45 121.1C1092.22 121.034 1092.99 120.873 1093.73 120.62C1094.86 120.264 1095.87 119.588 1096.62 118.675C1097.38 117.762 1097.86 116.649 1098.01 115.47V115.4C1098.01 115.19 1097.92 114.15 1097.76 112.54C1100.19 112.935 1102.5 113.926 1104.46 115.425C1106.42 116.923 1107.98 118.883 1109.01 121.13L1109.03 121.21ZM1092.17 75.01C1092.2 75.3935 1092.16 75.7797 1092.04 76.1465C1091.92 76.5134 1091.74 76.8538 1091.49 77.1481C1091.24 77.4425 1090.94 77.6852 1090.6 77.8622C1090.25 78.0393 1089.88 78.1472 1089.5 78.18C1089.16 78.2125 1088.82 78.1854 1088.5 78.1C1088.56 78.05 1088.6 77.99 1088.66 77.93L1088.74 77.84C1088.83 77.73 1088.92 77.61 1089 77.49C1089.07 77.38 1089.13 77.26 1089.19 77.15L1089.25 77.02C1089.25 76.93 1089.32 76.84 1089.35 76.74C1089.38 76.64 1089.35 76.64 1089.4 76.59C1089.43 76.4982 1089.45 76.4047 1089.47 76.31V76.16V75.86C1089.47 75.8134 1089.47 75.7666 1089.47 75.72C1089.48 75.5702 1089.48 75.4198 1089.47 75.27C1089.47 75.12 1089.47 74.98 1089.4 74.83C1089.33 74.68 1089.4 74.74 1089.4 74.69C1089.4 74.64 1089.35 74.5 1089.32 74.41L1089.26 74.25C1089.22 74.1649 1089.19 74.0814 1089.15 74C1089.12 73.948 1089.1 73.8978 1089.07 73.85C1089.07 73.77 1088.98 73.69 1088.93 73.61L1088.84 73.48C1088.78 73.3867 1088.7 73.2996 1088.63 73.22L1088.57 73.14C1088.47 73.0383 1088.37 72.9415 1088.27 72.85L1088.15 72.76L1087.98 72.62C1088.27 72.4895 1088.59 72.4084 1088.92 72.38C1089.68 72.2952 1090.45 72.5153 1091.05 72.9925C1091.66 73.4697 1092.05 74.1657 1092.15 74.93L1092.17 75.01ZM1110.71 63.01C1110.65 63.0154 1110.59 63.0357 1110.54 63.0689C1110.49 63.1021 1110.45 63.1472 1110.43 63.2C1110.4 63.252 1110.38 63.3105 1110.38 63.37C1110.38 63.4295 1110.4 63.488 1110.43 63.54C1111.43 65.2075 1112 67.0975 1112.09 69.04C1110.72 67.54 1107.46 64.34 1104.72 64.58C1104.66 64.5841 1104.6 64.604 1104.56 64.6375C1104.51 64.671 1104.47 64.7168 1104.45 64.77C1104.42 64.822 1104.4 64.8805 1104.4 64.94C1104.4 64.9995 1104.42 65.058 1104.45 65.11C1105.43 66.6905 1105.78 68.5805 1105.45 70.41C1104.45 69.05 1101.73 65.82 1099.5 66.02C1099.43 66.0228 1099.37 66.0454 1099.32 66.0847C1099.27 66.1241 1099.23 66.1782 1099.21 66.24C1099.18 66.2994 1099.18 66.365 1099.19 66.4277C1099.21 66.4904 1099.24 66.5472 1099.29 66.59C1099.83 67.1446 1100.23 67.8245 1100.44 68.5695C1100.66 69.3144 1100.69 70.1012 1100.53 70.86C1099.91 69.9115 1099.05 69.1378 1098.05 68.6127C1097.04 68.0875 1095.92 67.8284 1094.79 67.86C1094.72 67.864 1094.66 67.8846 1094.61 67.9197C1094.56 67.9549 1094.51 68.0032 1094.49 68.06C1094.46 68.1173 1094.45 68.1803 1094.46 68.242C1094.47 68.3037 1094.5 68.3619 1094.54 68.41C1095.22 69.3319 1095.64 70.4258 1095.74 71.57C1093.87 71.1058 1091.95 70.9571 1090.04 71.13C1089.11 71.2154 1088.19 71.3658 1087.29 71.58C1091.29 67.93 1106.14 55.15 1114.78 60.32C1114.83 60.32 1119.52 63.63 1120.45 68.39C1118.71 66.69 1113.94 62.68 1110.71 62.96V63.01Z" fill="#E5E5E5"/>
<mask id="mask0_232_470" style="mask-type:alpha" maskUnits="userSpaceOnUse" x="0" y="55" width="480" height="361">
<rect x="479.5" y="55.5" width="360" height="479" transform="rotate(90 479.5 55.5)" fill="url(#paint0_linear_232_470)" stroke="#6246E5"/>
</mask>
<g mask="url(#mask0_232_470)">
<path d="M129.995 516.922C60.6624 516.922 4.45582 460.637 4.45582 391.204C4.45582 321.771 60.6624 265.486 129.995 265.486C199.328 265.486 255.535 321.771 255.535 391.204C255.535 460.637 199.328 516.922 129.995 516.922Z" stroke="#E5E5E5"/>
<path d="M143.263 521.904C65.6866 521.904 2.79751 458.926 2.79751 381.239C2.79751 303.551 65.6866 240.574 143.263 240.574C220.839 240.574 283.728 303.551 283.728 381.239C283.728 458.926 220.839 521.904 143.263 521.904Z" stroke="#E5E5E5"/>
<path d="M154.042 526.886C69.1388 526.886 0.309773 457.96 0.309777 372.935C0.309781 287.91 69.1388 218.984 154.042 218.984C238.946 218.984 307.775 287.91 307.775 372.935C307.775 457.96 238.946 526.886 154.042 526.886Z" stroke="#E5E5E5"/>
<path d="M169.798 530.207C78.4827 530.207 4.45623 456.077 4.45623 364.631C4.45623 273.185 78.4828 199.055 169.798 199.055C261.112 199.055 335.139 273.185 335.139 364.631C335.139 456.077 261.112 530.207 169.798 530.207Z" stroke="#E5E5E5"/>
<path d="M185.138 533.529C87.6404 533.529 8.60207 454.38 8.60207 356.743C8.60208 259.106 87.6404 179.957 185.138 179.957C282.635 179.957 361.673 259.106 361.673 356.743C361.673 454.38 282.635 533.529 185.138 533.529Z" stroke="#E5E5E5"/>
<path d="M202.551 537.681C95.4367 537.681 8.60207 450.724 8.60207 343.457C8.60208 236.189 95.4367 149.232 202.551 149.232C309.665 149.232 396.5 236.189 396.5 343.457C396.5 450.724 309.665 537.681 202.551 537.681Z" stroke="#E5E5E5"/>
</g>
</g>
<defs>
<linearGradient id="paint0_linear_232_470" x1="736.035" y1="68.4669" x2="487.704" y2="539.066" gradientUnits="userSpaceOnUse">
<stop stop-color="#747DEF"/>
<stop offset="1" stop-color="#5E3BE1"/>
</linearGradient>
<clipPath id="clip0_232_470">
<rect width="1199" height="359" rx="50" fill="white"/>
</clipPath>
</defs>
</svg>
