<svg width="1199" height="346" viewBox="0 0 1199 346" fill="none" xmlns="http://www.w3.org/2000/svg">
<rect width="1199" height="359" rx="50" fill="#ECFDF8"/>
<path d="M1161.18 34.3885C1151.92 29.0587 1136.65 41.8964 1132.77 45.3949C1133.55 43.1762 1134.91 41.1861 1136.71 39.6122C1136.75 39.5803 1136.78 39.5392 1136.81 39.4923C1136.83 39.4454 1136.84 39.394 1136.84 39.3423C1136.84 39.2926 1136.82 39.2437 1136.8 39.2C1136.78 39.1562 1136.74 39.119 1136.7 39.0918C1135.84 38.533 1134.83 38.225 1133.8 38.2051C1134.33 37.5726 1135.01 37.0745 1135.79 36.7538C1136.57 36.4331 1137.41 36.2994 1138.26 36.3642C1138.32 36.3731 1138.38 36.3641 1138.44 36.3384C1138.5 36.3127 1138.54 36.2714 1138.58 36.2197C1138.61 36.1669 1138.62 36.1071 1138.62 36.0462C1138.62 35.9853 1138.61 35.9255 1138.58 35.8727C1138.17 35.2767 1137.6 34.7953 1136.94 34.4771C1136.28 34.1589 1135.54 34.0153 1134.8 34.0608C1136.11 33.097 1139.08 32.7501 1140.28 32.7115C1140.34 32.7109 1140.4 32.6923 1140.46 32.6581C1140.51 32.6239 1140.55 32.5754 1140.58 32.5187C1140.6 32.4635 1140.61 32.4028 1140.6 32.3433C1140.59 32.2838 1140.57 32.2278 1140.53 32.1814C1139.37 30.8832 1137.73 30.0766 1135.96 29.9358C1137.62 28.0082 1142.54 27.4299 1142.59 27.4203C1142.66 27.4151 1142.72 27.3877 1142.78 27.3424C1142.83 27.2971 1142.86 27.2364 1142.88 27.1697C1142.89 27.1324 1142.9 27.0923 1142.9 27.0517C1142.9 27.0112 1142.89 26.9709 1142.88 26.9333C1142.86 26.8957 1142.84 26.8615 1142.81 26.8326C1142.78 26.8037 1142.75 26.7807 1142.71 26.7649C1141.15 25.807 1139.38 25.21 1137.54 25.0205C1139.54 22.6303 1145.9 21.1653 1145.97 21.1653C1146.03 21.15 1146.1 21.115 1146.14 21.065C1146.19 21.015 1146.22 20.9524 1146.23 20.8858C1146.23 20.82 1146.22 20.7536 1146.19 20.6951C1146.16 20.6366 1146.11 20.5888 1146.05 20.5581C1141.79 18.4185 1136.59 20.5003 1136.35 20.5581C1130.35 23.4495 1130.08 33.0392 1130.71 39.6797C1128.35 31.6128 1123.22 18.9775 1114.15 18.3125C1113.85 18.3125 1106.78 18.3125 1102.9 22.717C1102.86 22.7706 1102.84 22.8346 1102.84 22.9001C1102.84 22.9657 1102.86 23.0296 1102.9 23.0832C1102.93 23.1409 1102.98 23.1872 1103.05 23.2164C1103.11 23.2455 1103.18 23.2562 1103.25 23.2471C1103.34 23.2471 1111.79 21.9267 1115.25 23.9506C1113.14 25.0054 1111.32 26.5364 1109.96 28.413C1109.92 28.4695 1109.89 28.5368 1109.89 28.6058C1109.89 28.6747 1109.92 28.7419 1109.96 28.7985C1110 28.8536 1110.05 28.8953 1110.12 28.9178C1110.19 28.9402 1110.26 28.9423 1110.33 28.9238C1110.4 28.9238 1116.67 27.2372 1119.55 28.8756C1118.53 29.3493 1117.63 30.0137 1116.88 30.8297C1116.14 31.6457 1115.57 32.5968 1115.22 33.6271C1115.2 33.6857 1115.19 33.7488 1115.21 33.8087C1115.23 33.8686 1115.26 33.9227 1115.31 33.9644C1115.35 34.0079 1115.41 34.0375 1115.47 34.0495C1115.53 34.0615 1115.6 34.0554 1115.66 34.0319C1117.15 33.5018 1121.03 32.4513 1123.03 33.1645C1122.11 33.4227 1121.28 33.9181 1120.63 34.5975C1119.98 35.2768 1119.53 36.1143 1119.34 37.0196C1119.33 37.08 1119.33 37.1417 1119.36 37.1979C1119.38 37.2541 1119.42 37.3025 1119.48 37.3377C1119.53 37.3681 1119.59 37.3841 1119.66 37.3841C1119.72 37.3841 1119.78 37.3681 1119.84 37.3377C1120.83 36.8468 1121.93 36.6053 1123.04 36.6357C1124.15 36.666 1125.24 36.9672 1126.2 37.5111C1124.95 37.9984 1123.88 38.8341 1123.13 39.911C1123.1 39.9555 1123.09 40.0052 1123.09 40.0556C1123.09 40.106 1123.1 40.1556 1123.13 40.2001C1123.15 40.2476 1123.17 40.2905 1123.21 40.3256C1123.25 40.3606 1123.3 40.3869 1123.35 40.4025C1126.29 41.4202 1128.91 43.1571 1130.95 45.4431C1126.01 43.6023 1109.25 38.0605 1103.37 45.4431C1103.23 45.6455 1099.92 50.4548 1101.37 55.1678C1101.39 55.231 1101.43 55.2869 1101.48 55.3282C1101.53 55.3694 1101.6 55.3941 1101.67 55.3991H1101.72C1101.78 55.3929 1101.83 55.3719 1101.88 55.3381C1101.93 55.3044 1101.97 55.259 1102 55.2063C1102 55.1388 1104.92 48.9321 1107.94 47.496C1107.76 49.3971 1108.04 51.3123 1108.78 53.086C1108.8 53.1494 1108.84 53.2041 1108.9 53.2421C1108.96 53.2802 1109.03 53.2998 1109.1 53.298C1109.17 53.297 1109.24 53.2741 1109.3 53.2325C1109.35 53.1909 1109.4 53.1329 1109.42 53.0667C1109.42 53.0185 1111.07 48.1225 1113.53 46.8599C1113.42 47.7615 1113.49 48.6751 1113.75 49.5483C1114.01 50.4215 1114.44 51.2373 1115.03 51.9487C1115.07 51.996 1115.12 52.0311 1115.18 52.0499C1115.24 52.0687 1115.31 52.0704 1115.37 52.0547C1115.43 52.0427 1115.48 52.0134 1115.53 51.9705C1115.57 51.9277 1115.6 51.8732 1115.62 51.8138C1115.91 50.5994 1116.88 47.6116 1118.25 46.5129C1118.04 47.2527 1118.04 48.0328 1118.24 48.773C1118.45 49.5132 1118.86 50.1868 1119.43 50.7247C1119.47 50.7651 1119.53 50.7928 1119.59 50.8046C1119.65 50.8165 1119.72 50.8122 1119.78 50.7921C1119.84 50.7695 1119.89 50.7314 1119.93 50.6821C1119.97 50.6328 1119.99 50.5742 1120 50.5127C1120.1 49.6416 1120.43 48.8083 1120.94 48.0846C1121.45 47.361 1122.14 46.7686 1122.95 46.3587C1122.75 47.4111 1122.87 48.4968 1123.31 49.4814C1123.33 49.5276 1123.36 49.5685 1123.4 49.6004C1123.44 49.6323 1123.49 49.6543 1123.54 49.6645C1123.59 49.6753 1123.64 49.6748 1123.69 49.6631C1123.74 49.6514 1123.79 49.6288 1123.83 49.5971C1124.62 48.9998 1125.48 48.4981 1126.4 48.1032C1126 48.4593 1125.69 48.8987 1125.49 49.3881C1125.29 49.8775 1125.21 50.4038 1125.26 50.9271C1125.34 51.8458 1125.79 52.6958 1126.53 53.2904C1127.26 53.8849 1128.2 54.1754 1129.16 54.0979C1129.94 54.0317 1130.68 53.7164 1131.26 53.2016C1132.11 55.3412 1135.36 65.5959 1129.86 85.9704C1122.44 88.1197 1121.26 90.3749 1120.23 92.37C1119.89 93.0949 1119.45 93.7674 1118.91 94.365C1118.38 95.0773 1118.07 95.9145 1118.01 96.785C1117.95 97.6554 1118.14 98.5254 1118.56 99.2996C1119.93 102.056 1124.44 105.082 1138.1 103.974C1147.5 103.203 1153.29 101.083 1155.31 97.6708C1155.72 97.0173 1155.96 96.2806 1156.03 95.5193C1156.09 94.758 1155.96 93.9931 1155.67 93.2856C1153.67 88.6787 1148.55 84.9488 1143.67 84.4958C1142.89 77.065 1140.5 59.6494 1134.84 52.6908C1135.08 52.7149 1135.32 52.7149 1135.56 52.6908C1136.51 52.6099 1137.39 52.1679 1138.01 51.4616C1138.63 50.7553 1138.93 49.8422 1138.85 48.9224C1138.78 48.2311 1138.51 47.5738 1138.05 47.0359C1137.6 46.4979 1136.99 46.1042 1136.3 45.9057C1138.22 45.7444 1140.16 45.9175 1142.03 46.4166C1142.07 46.4379 1142.12 46.4489 1142.17 46.4489C1142.22 46.4489 1142.27 46.4379 1142.32 46.4166C1142.36 46.3898 1142.4 46.353 1142.42 46.3093C1142.45 46.2656 1142.46 46.2164 1142.47 46.166C1142.49 44.9673 1142.14 43.789 1141.47 42.7831C1142.48 42.8755 1143.46 43.2102 1144.31 43.757C1145.16 44.3039 1145.85 45.0456 1146.33 45.9154C1146.35 45.9696 1146.4 46.0154 1146.45 46.0477C1146.5 46.08 1146.56 46.0976 1146.63 46.0985C1146.69 46.0976 1146.75 46.08 1146.8 46.0477C1146.86 46.0154 1146.9 45.9696 1146.93 45.9154C1147.29 45.1352 1147.43 44.2746 1147.32 43.4258C1147.21 42.5769 1146.87 41.7717 1146.33 41.0964C1148.21 41.6265 1150.53 44.3733 1151.33 45.5299C1151.36 45.5777 1151.41 45.6161 1151.46 45.6414C1151.52 45.6668 1151.58 45.6781 1151.64 45.6744C1151.7 45.6653 1151.76 45.6386 1151.81 45.5975C1151.86 45.5565 1151.89 45.5028 1151.91 45.4431C1152.2 44.4873 1152.3 43.4845 1152.19 42.4922C1152.09 41.4999 1151.78 40.5376 1151.29 39.6604C1154.36 39.9495 1158.14 44.3926 1158.18 44.4793C1158.22 44.5319 1158.28 44.5701 1158.35 44.5891C1158.42 44.608 1158.49 44.6067 1158.56 44.5853C1158.63 44.5639 1158.68 44.5208 1158.72 44.4631C1158.76 44.4054 1158.78 44.3364 1158.78 44.2673C1158.79 42.1541 1158.27 40.0693 1157.28 38.1858C1160.99 38.4557 1166.62 43.7565 1166.68 43.8143C1166.73 43.8611 1166.79 43.8918 1166.86 43.9021C1166.93 43.9125 1166.99 43.902 1167.06 43.8722C1167.12 43.8446 1167.17 43.7992 1167.2 43.7422C1167.24 43.6853 1167.25 43.6196 1167.25 43.5541C1166.82 38.1858 1161.43 34.5523 1161.18 34.3885ZM1143.29 87.9847C1143.16 88.9974 1142.72 89.9523 1142.05 90.7351C1141.37 91.5179 1140.47 92.0956 1139.46 92.3989C1136.62 93.3627 1132.61 92.7266 1130.71 91.011C1130.32 90.7082 1130.03 90.3052 1129.87 89.8493C1129.72 89.3935 1129.7 88.9038 1129.82 88.4377L1130.06 87.5896C1132.52 88.4706 1135.14 88.8608 1137.76 88.7365C1139.8 88.6572 1141.73 87.8217 1143.15 86.4041C1143.24 87.2812 1143.28 87.8402 1143.29 87.9847ZM1143.06 85.4789C1139.63 89.922 1131.8 87.5029 1130.23 86.9535C1130.69 85.3151 1131.09 83.7409 1131.44 82.2309C1133.2 83.2825 1135.28 83.7495 1137.35 83.561C1139.22 83.3693 1141.03 82.7872 1142.65 81.8551C1142.82 83.2622 1142.96 84.4958 1143.06 85.4789ZM1142.56 81.1515C1136.56 84.6211 1132.44 82.1153 1131.56 81.5466C1131.9 80.0335 1132.18 78.5878 1132.43 77.2096C1134.04 77.7113 1135.74 77.9045 1137.43 77.7782C1138.97 77.6602 1140.47 77.216 1141.82 76.4771C1142.15 78.1445 1142.37 79.7733 1142.56 81.1515ZM1132.56 76.5542C1132.81 75.1085 1133.01 73.7207 1133.16 72.4196C1134.48 72.886 1135.89 73.067 1137.3 72.9497C1138.61 72.8425 1139.88 72.4644 1141.03 71.8413C1141.3 73.1809 1141.53 74.5013 1141.74 75.7832C1140.35 76.5187 1138.82 76.9673 1137.24 77.1C1135.66 77.2328 1134.08 77.0469 1132.58 76.5542H1132.56ZM1133.23 71.7353C1133.36 70.5016 1133.46 69.3258 1133.52 68.2175C1134.65 68.579 1135.84 68.7167 1137.03 68.6222C1138.12 68.528 1139.19 68.1987 1140.14 67.6584C1140.41 68.8054 1140.67 69.9715 1140.9 71.1184C1139.75 71.7639 1138.47 72.1551 1137.14 72.2634C1135.82 72.3718 1134.49 72.1947 1133.25 71.7449L1133.23 71.7353ZM1133.56 67.5331C1133.56 66.5019 1133.62 65.5285 1133.61 64.6418C1134.35 64.7713 1135.1 64.807 1135.85 64.7478C1137 64.6727 1138.11 64.2852 1139.05 63.6298C1139.38 64.7478 1139.69 65.8947 1139.97 67.0513C1139 67.575 1137.93 67.8903 1136.83 67.9752C1135.72 68.06 1134.61 67.9125 1133.58 67.5428L1133.56 67.5331ZM1133.61 63.9382C1133.61 62.7913 1133.53 61.7408 1133.44 60.777C1133.97 60.8943 1134.53 60.9301 1135.08 60.883C1136.07 60.7969 1137.02 60.4648 1137.84 59.9192C1138.19 60.883 1138.53 61.8468 1138.84 62.8973C1138.09 63.4136 1137.24 63.7738 1136.35 63.9548C1135.45 64.1357 1134.52 64.1334 1133.63 63.9478L1133.61 63.9382ZM1133.38 60.0831C1133.29 59.2735 1133.19 58.5314 1133.08 57.8567C1133.39 57.8865 1133.71 57.8865 1134.03 57.8567C1134.95 57.7947 1135.83 57.4579 1136.55 56.8929C1136.92 57.6543 1137.26 58.4639 1137.6 59.3024C1137.01 59.735 1136.32 60.0311 1135.59 60.1681C1134.86 60.3052 1134.11 60.2793 1133.4 60.0927L1133.38 60.0831ZM1132.97 57.1917C1132.82 56.4207 1132.67 55.7557 1132.52 55.187C1132.72 55.2064 1132.93 55.2064 1133.14 55.187C1133.89 55.1372 1134.6 54.8257 1135.14 54.31C1135.55 54.9313 1135.93 55.5748 1136.28 56.2375C1135.84 56.6239 1135.31 56.9108 1134.74 57.0776C1134.18 57.2443 1133.57 57.2866 1132.99 57.2013L1132.97 57.1917ZM1132.32 54.4931C1132.13 53.857 1131.96 53.3847 1131.83 53.0571H1132.26C1132.79 53.0101 1133.3 52.8487 1133.76 52.5848C1134.11 52.9544 1134.45 53.3438 1134.76 53.751C1134.46 54.071 1134.08 54.3091 1133.65 54.4411C1133.23 54.5732 1132.77 54.5944 1132.34 54.5027L1132.32 54.4931ZM1133.63 51.9005C1133.3 52.1173 1132.93 52.2691 1132.54 52.3469C1132.15 52.4246 1131.75 52.4269 1131.36 52.3535C1130.74 52.231 1130.18 51.919 1129.76 51.4639C1129.34 51.0088 1129.08 50.4351 1129.03 49.8284C1128.99 49.4642 1129.03 49.0971 1129.15 48.7481C1129.26 48.3991 1129.44 48.0751 1129.69 47.7948C1129.93 47.5027 1130.23 47.2615 1130.58 47.0859C1130.92 46.9103 1131.3 46.8039 1131.69 46.7732H1132.12C1132.49 46.7911 1132.85 46.8796 1133.19 47.0334C1133.65 47.2442 1134.05 47.5689 1134.34 47.9748C1134.64 48.3807 1134.81 48.8537 1134.86 49.3465C1134.91 49.8387 1134.82 50.3351 1134.61 50.7853C1134.4 51.2356 1134.06 51.6236 1133.65 51.9101L1133.63 51.9005ZM1136.63 21.2231C1137.91 20.7441 1139.26 20.4423 1140.63 20.3268C1142.06 20.1834 1143.51 20.3446 1144.87 20.7991C1142.78 21.3581 1137.87 22.8809 1136.63 25.2132C1136.59 25.2623 1136.58 25.3191 1136.58 25.3771C1136.58 25.435 1136.59 25.4918 1136.63 25.5409C1136.66 25.5894 1136.7 25.6286 1136.76 25.6541C1136.81 25.6796 1136.87 25.6905 1136.93 25.6855C1138.53 25.7223 1140.09 26.136 1141.49 26.8902C1139.71 27.2083 1136.06 28.0757 1135 30.0611C1134.97 30.1094 1134.95 30.1643 1134.95 30.2201C1134.95 30.2759 1134.97 30.3308 1135 30.3791C1135.03 30.4286 1135.07 30.4692 1135.12 30.4963C1135.18 30.5235 1135.24 30.5363 1135.3 30.5333C1136.84 30.5402 1138.32 31.0886 1139.47 32.0754C1137.95 32.2007 1134.52 32.6729 1133.64 34.2824C1133.6 34.3345 1133.59 34.3946 1133.59 34.456C1133.59 34.5173 1133.6 34.5774 1133.64 34.6294C1133.67 34.6822 1133.72 34.7227 1133.79 34.7452C1133.85 34.7677 1133.91 34.7711 1133.98 34.7547C1134.6 34.6339 1135.25 34.6583 1135.86 34.8259C1136.47 34.9936 1137.03 35.2996 1137.5 35.7185C1136.53 35.7349 1135.59 35.99 1134.76 36.4593C1133.93 36.9286 1133.24 37.5963 1132.76 38.3978C1132.72 38.4488 1132.71 38.5071 1132.71 38.5665C1132.71 38.6259 1132.72 38.6842 1132.76 38.7352C1132.79 38.7852 1132.84 38.8252 1132.9 38.8507C1132.95 38.8762 1133.01 38.8862 1133.08 38.8797C1134.02 38.8168 1134.97 38.9964 1135.82 39.4002C1134.12 40.9834 1132.83 42.9273 1132.05 45.0769C1131.34 40.4507 1129.12 24.8855 1136.71 21.2328L1136.63 21.2231ZM1123.86 40.017C1124.67 39.0918 1125.72 38.4011 1126.92 38.022C1126.98 38.0054 1127.03 37.9733 1127.07 37.9291C1127.12 37.8849 1127.14 37.8304 1127.16 37.7714C1127.17 37.712 1127.16 37.6512 1127.14 37.5953C1127.11 37.5394 1127.08 37.4904 1127.03 37.4533C1126.04 36.7382 1124.87 36.2831 1123.64 36.1328C1122.42 35.9824 1121.17 36.1419 1120.03 36.5956C1120.84 34.1861 1123.69 33.7042 1123.82 33.6464C1123.88 33.6385 1123.94 33.6122 1123.99 33.5709C1124.04 33.5297 1124.07 33.4753 1124.09 33.415C1124.1 33.3545 1124.1 33.2912 1124.08 33.2319C1124.06 33.1725 1124.02 33.1193 1123.98 33.0777C1122.12 31.5742 1117.69 32.7404 1115.98 33.2705C1116.81 31.4827 1118.33 30.0696 1120.21 29.3189C1120.26 29.3004 1120.31 29.2673 1120.35 29.2231C1120.39 29.179 1120.42 29.1255 1120.43 29.0684C1120.44 29.0122 1120.43 28.9544 1120.41 28.9005C1120.39 28.8466 1120.36 28.7982 1120.32 28.76C1118.04 26.8806 1113.08 27.6805 1110.98 28.1335C1112.27 26.5071 1113.97 25.2237 1115.92 24.4036C1115.97 24.3842 1116.02 24.3508 1116.06 24.3068C1116.1 24.2628 1116.13 24.2098 1116.14 24.1531C1116.15 24.0969 1116.15 24.0385 1116.13 23.9842C1116.11 23.9299 1116.07 23.8817 1116.03 23.8446C1113.32 21.6472 1106.53 22.2351 1104.03 22.5339C1107.81 19.0064 1114.03 19.0257 1114.09 19.0257C1125.01 19.8353 1130.18 39.8339 1131.36 45.1636C1129.34 42.8901 1126.78 41.1264 1123.9 40.0266L1123.86 40.017ZM1123.71 48.932C1123.44 47.9852 1123.44 46.9875 1123.71 46.0407C1123.73 45.9834 1123.73 45.9223 1123.71 45.8643C1123.69 45.8063 1123.66 45.7539 1123.62 45.713C1123.57 45.6708 1123.52 45.6412 1123.46 45.6275C1123.4 45.6139 1123.34 45.6168 1123.28 45.6359C1122.31 45.9688 1121.44 46.5364 1120.77 47.2841C1120.09 48.0318 1119.63 48.9345 1119.42 49.9055C1119.05 49.3439 1118.82 48.7042 1118.77 48.0411C1118.71 47.3781 1118.82 46.7115 1119.09 46.0985C1119.12 46.0484 1119.14 45.9898 1119.14 45.9299C1119.14 45.8699 1119.12 45.8113 1119.09 45.7612C1119.04 45.7148 1118.99 45.6811 1118.93 45.6641C1118.86 45.647 1118.8 45.6472 1118.74 45.6648C1116.8 46.2141 1115.6 49.6356 1115.17 51.1102C1114.3 49.7435 1113.99 48.1147 1114.31 46.5418C1114.32 46.4865 1114.32 46.429 1114.3 46.375C1114.28 46.3209 1114.25 46.2721 1114.21 46.2334C1114.17 46.191 1114.11 46.1612 1114.05 46.1475C1113.99 46.1338 1113.93 46.1368 1113.88 46.1563C1111.5 46.8213 1109.81 50.397 1109.13 52.1029C1108.58 50.5212 1108.44 48.8337 1108.72 47.1876C1108.73 47.1317 1108.73 47.0725 1108.72 47.0164C1108.7 46.9604 1108.67 46.9095 1108.63 46.8695C1108.58 46.8291 1108.53 46.8005 1108.47 46.7869C1108.41 46.7734 1108.35 46.7753 1108.3 46.7924C1105.49 47.602 1102.83 52.286 1101.82 54.2425C1101.09 50.1079 1103.91 46.0021 1103.93 45.9732C1105.63 43.8529 1108.36 42.8987 1111.48 42.6385C1118.53 42.0602 1127.48 45.0672 1130.79 46.272C1128.24 46.6011 1125.81 47.5133 1123.71 48.932ZM1129.51 47.149L1129.34 47.3032H1129.04L1129.51 47.149ZM1125.88 51.0042C1125.84 50.6338 1125.89 50.2609 1126 49.9067C1126.12 49.5525 1126.31 49.2241 1126.56 48.9403C1126.81 48.6564 1127.11 48.4228 1127.45 48.2526C1127.8 48.0825 1128.17 47.9794 1128.56 47.949H1128.86V47.9972C1128.86 48.0454 1128.81 48.1032 1128.78 48.1514C1128.71 48.2827 1128.65 48.4179 1128.6 48.5562L1128.54 48.7586C1128.5 48.8944 1128.47 49.0329 1128.45 49.173V49.3561C1128.43 49.5645 1128.43 49.7742 1128.45 49.9826C1128.46 50.1581 1128.49 50.3322 1128.54 50.503C1128.54 50.5608 1128.54 50.6187 1128.59 50.6765L1128.71 51.0042L1128.8 51.1873C1128.84 51.2836 1128.9 51.3769 1128.96 51.4668L1129.08 51.6499C1129.13 51.7342 1129.2 51.8147 1129.27 51.8909L1129.42 52.0547C1129.49 52.1333 1129.57 52.2074 1129.65 52.2764L1129.82 52.4113C1129.9 52.4809 1129.99 52.5453 1130.09 52.6041L1130.26 52.7101C1130.4 52.7891 1130.55 52.8567 1130.71 52.9125C1130.24 53.2908 1129.67 53.52 1129.07 53.5679C1128.67 53.6035 1128.28 53.5629 1127.9 53.4485C1127.53 53.3341 1127.18 53.1483 1126.88 52.902C1126.58 52.6557 1126.34 52.354 1126.16 52.0148C1125.99 51.6755 1125.88 51.3057 1125.86 50.9271L1125.88 51.0042ZM1155.03 93.6904C1155.28 94.3152 1155.38 94.9887 1155.32 95.6577C1155.26 96.3267 1155.04 96.9729 1154.68 97.5455C1153.37 99.743 1149.41 102.567 1138.01 103.511C1124.01 104.658 1120.18 101.304 1119.13 99.1936C1118.77 98.536 1118.61 97.7998 1118.65 97.0611C1118.7 96.3223 1118.94 95.6078 1119.37 94.9915C1119.95 94.3476 1120.44 93.6233 1120.81 92.8422C1121.81 90.9147 1122.86 88.9293 1129.62 86.8957C1129.49 87.3872 1129.35 87.8594 1129.21 88.3799C1129.04 88.9595 1129.06 89.573 1129.25 90.1449C1129.44 90.7168 1129.8 91.2222 1130.29 91.5989C1131.29 92.367 1132.43 92.9376 1133.66 93.2783C1134.89 93.619 1136.18 93.723 1137.45 93.5843C1138.22 93.5206 1138.99 93.3652 1139.73 93.1217C1140.86 92.7782 1141.87 92.1274 1142.62 91.2471C1143.38 90.3669 1143.86 89.2945 1144.01 88.1582V88.0908C1144.01 87.8884 1143.92 86.886 1143.76 85.3343C1146.19 85.7153 1148.5 86.6702 1150.46 88.1144C1152.42 89.5587 1153.98 91.4475 1155.01 93.6133L1155.03 93.6904ZM1138.17 49.1633C1138.2 49.5329 1138.16 49.9052 1138.04 50.2588C1137.92 50.6123 1137.74 50.9403 1137.49 51.2241C1137.24 51.5078 1136.94 51.7417 1136.6 51.9123C1136.25 52.0829 1135.88 52.187 1135.5 52.2186C1135.16 52.2498 1134.82 52.2237 1134.5 52.1414C1134.56 52.0933 1134.6 52.0354 1134.66 51.9776L1134.74 51.8909C1134.83 51.7849 1134.92 51.6692 1135 51.5535C1135.07 51.4475 1135.13 51.3319 1135.19 51.2259L1135.25 51.1006C1135.25 51.0138 1135.32 50.9271 1135.35 50.8307C1135.38 50.7343 1135.35 50.7343 1135.4 50.6861C1135.43 50.5977 1135.45 50.5076 1135.47 50.4163V50.2717V49.9826C1135.47 49.9377 1135.47 49.8925 1135.47 49.8477C1135.48 49.7032 1135.48 49.5583 1135.47 49.4139C1135.47 49.2694 1135.47 49.1344 1135.4 48.9899C1135.33 48.8453 1135.4 48.9031 1135.4 48.855C1135.4 48.8068 1135.35 48.6718 1135.32 48.5851L1135.26 48.4309C1135.22 48.3488 1135.19 48.2684 1135.15 48.1899C1135.12 48.1398 1135.1 48.0915 1135.07 48.0453C1135.07 47.9682 1134.98 47.8911 1134.93 47.814L1134.84 47.6887C1134.78 47.5988 1134.7 47.5149 1134.63 47.4382L1134.57 47.3611C1134.47 47.2631 1134.37 47.1698 1134.27 47.0816L1134.15 46.9948L1133.98 46.8599C1134.27 46.7342 1134.59 46.656 1134.92 46.6286C1135.68 46.5469 1136.45 46.759 1137.05 47.2189C1137.66 47.6789 1138.05 48.3497 1138.15 49.0863L1138.17 49.1633ZM1156.71 37.5979C1156.65 37.6031 1156.59 37.6227 1156.54 37.6547C1156.49 37.6867 1156.45 37.7302 1156.43 37.781C1156.4 37.8311 1156.38 37.8875 1156.38 37.9449C1156.38 38.0022 1156.4 38.0586 1156.43 38.1087C1157.43 39.7159 1158 41.5373 1158.09 43.4095C1156.72 41.9638 1153.46 38.8797 1150.72 39.111C1150.66 39.115 1150.6 39.1342 1150.56 39.1665C1150.51 39.1987 1150.47 39.2429 1150.45 39.2942C1150.42 39.3443 1150.4 39.4007 1150.4 39.458C1150.4 39.5154 1150.42 39.5717 1150.45 39.6218C1151.43 41.1451 1151.78 42.9666 1151.45 44.7299C1150.45 43.4192 1147.73 40.3061 1145.5 40.4989C1145.43 40.5017 1145.37 40.5234 1145.32 40.5613C1145.27 40.5992 1145.23 40.6514 1145.21 40.7109C1145.18 40.7682 1145.18 40.8314 1145.19 40.8919C1145.21 40.9523 1145.24 41.007 1145.29 41.0483C1145.83 41.5828 1146.23 42.2381 1146.44 42.956C1146.66 43.674 1146.69 44.4323 1146.53 45.1636C1145.91 44.2495 1145.05 43.5038 1144.05 42.9977C1143.04 42.4916 1141.92 42.2418 1140.79 42.2723C1140.72 42.2761 1140.66 42.296 1140.61 42.3299C1140.56 42.3637 1140.51 42.4103 1140.49 42.465C1140.46 42.5203 1140.45 42.581 1140.46 42.6404C1140.47 42.6999 1140.5 42.756 1140.54 42.8024C1141.22 43.6908 1141.64 44.7452 1141.74 45.8479C1139.87 45.4005 1137.95 45.2572 1136.04 45.4238C1135.11 45.5062 1134.19 45.6511 1133.29 45.8576C1137.29 42.3397 1152.14 30.0225 1160.78 35.0053C1160.83 35.0053 1165.52 38.1954 1166.45 42.7831C1164.71 41.1446 1159.94 37.2798 1156.71 37.5497V37.5979Z" fill="#4E9982"/>
<path d="M1115.18 57.5193C1105.92 52.1896 1090.65 65.0272 1086.77 68.5258C1087.55 66.3071 1088.91 64.317 1090.71 62.7431C1090.75 62.7112 1090.78 62.6701 1090.81 62.6232C1090.83 62.5763 1090.84 62.5249 1090.84 62.4732C1090.84 62.4235 1090.82 62.3746 1090.8 62.3308C1090.78 62.2871 1090.74 62.2499 1090.7 62.2226C1089.84 61.6638 1088.83 61.3559 1087.8 61.3359C1088.33 60.7034 1089.01 60.2053 1089.79 59.8846C1090.57 59.5639 1091.41 59.4302 1092.26 59.4951C1092.32 59.5039 1092.38 59.495 1092.44 59.4693C1092.5 59.4436 1092.54 59.4023 1092.58 59.3505C1092.61 59.2978 1092.62 59.238 1092.62 59.1771C1092.62 59.1162 1092.61 59.0563 1092.58 59.0036C1092.17 58.4076 1091.6 57.9261 1090.94 57.608C1090.28 57.2898 1089.54 57.1462 1088.8 57.1917C1090.11 56.2279 1093.08 55.8809 1094.28 55.8424C1094.34 55.8417 1094.4 55.8232 1094.46 55.7889C1094.51 55.7547 1094.55 55.7063 1094.58 55.6496C1094.6 55.5943 1094.61 55.5337 1094.6 55.4742C1094.59 55.4147 1094.57 55.3587 1094.53 55.3123C1093.37 54.0141 1091.73 53.2074 1089.96 53.0666C1091.62 51.1391 1096.54 50.5608 1096.59 50.5511C1096.66 50.5459 1096.72 50.5186 1096.78 50.4733C1096.83 50.428 1096.86 50.3673 1096.88 50.3006C1096.89 50.2632 1096.9 50.2231 1096.9 50.1826C1096.9 50.142 1096.89 50.1018 1096.88 50.0642C1096.86 50.0266 1096.84 49.9923 1096.81 49.9635C1096.78 49.9346 1096.75 49.9116 1096.71 49.8958C1095.15 48.9379 1093.38 48.3409 1091.54 48.1513C1093.54 45.7611 1099.9 44.2962 1099.97 44.2962C1100.03 44.2809 1100.1 44.2458 1100.14 44.1958C1100.19 44.1458 1100.22 44.0833 1100.23 44.0167C1100.23 43.9509 1100.22 43.8844 1100.19 43.8259C1100.16 43.7674 1100.11 43.7197 1100.05 43.689C1095.79 41.5494 1090.59 43.6311 1090.35 43.689C1084.35 46.5803 1084.08 56.17 1084.71 62.8105C1082.35 54.7436 1077.22 42.1084 1068.15 41.4434C1067.85 41.4434 1060.78 41.4433 1056.9 45.8478C1056.86 45.9015 1056.84 45.9654 1056.84 46.031C1056.84 46.0965 1056.86 46.1605 1056.9 46.2141C1056.93 46.2717 1056.98 46.318 1057.05 46.3472C1057.11 46.3764 1057.18 46.3871 1057.25 46.378C1057.34 46.378 1065.79 45.0575 1069.25 47.0815C1067.14 48.1363 1065.32 49.6672 1063.96 51.5438C1063.92 51.6004 1063.89 51.6677 1063.89 51.7366C1063.89 51.8055 1063.92 51.8728 1063.96 51.9294C1064 51.9845 1064.05 52.0262 1064.12 52.0486C1064.19 52.0711 1064.26 52.0731 1064.33 52.0546C1064.4 52.0546 1070.67 50.368 1073.55 52.0065C1072.53 52.4802 1071.63 53.1446 1070.88 53.9606C1070.14 54.7766 1069.57 55.7277 1069.22 56.7579C1069.2 56.8165 1069.19 56.8796 1069.21 56.9395C1069.23 56.9994 1069.26 57.0536 1069.31 57.0953C1069.35 57.1388 1069.41 57.1684 1069.47 57.1804C1069.53 57.1924 1069.6 57.1863 1069.66 57.1627C1071.15 56.6327 1075.03 55.5821 1077.03 56.2953C1076.11 56.5535 1075.28 57.049 1074.63 57.7283C1073.98 58.4077 1073.53 59.2451 1073.34 60.1505C1073.33 60.2108 1073.33 60.2725 1073.36 60.3287C1073.38 60.3849 1073.42 60.4333 1073.48 60.4685C1073.53 60.499 1073.59 60.515 1073.66 60.515C1073.72 60.515 1073.78 60.499 1073.84 60.4685C1074.83 59.9777 1075.93 59.7362 1077.04 59.7665C1078.15 59.7968 1079.24 60.098 1080.2 60.642C1078.95 61.1293 1077.88 61.965 1077.13 63.0419C1077.1 63.0864 1077.09 63.136 1077.09 63.1864C1077.09 63.2368 1077.1 63.2865 1077.13 63.331C1077.15 63.3785 1077.17 63.4214 1077.21 63.4564C1077.25 63.4915 1077.3 63.5178 1077.35 63.5334C1080.29 64.5511 1082.91 66.288 1084.95 68.574C1080.01 66.7332 1063.25 61.1914 1057.37 68.574C1057.23 68.7764 1053.92 73.5857 1055.37 78.2986C1055.39 78.3618 1055.43 78.4178 1055.48 78.459C1055.53 78.5003 1055.6 78.525 1055.67 78.5299H1055.72C1055.78 78.5237 1055.83 78.5028 1055.88 78.469C1055.93 78.4352 1055.97 78.3898 1056 78.3372C1056 78.2697 1058.92 72.0629 1061.94 70.6269C1061.76 72.5279 1062.04 74.4431 1062.78 76.2168C1062.8 76.2802 1062.84 76.3349 1062.9 76.373C1062.96 76.4111 1063.03 76.4307 1063.1 76.4289C1063.17 76.4278 1063.24 76.4049 1063.3 76.3634C1063.35 76.3218 1063.4 76.2638 1063.42 76.1976C1063.42 76.1494 1065.07 71.2533 1067.53 69.9908C1067.42 70.8924 1067.49 71.806 1067.75 72.6792C1068.01 73.5524 1068.44 74.3681 1069.03 75.0796C1069.07 75.1268 1069.12 75.162 1069.18 75.1808C1069.24 75.1996 1069.31 75.2012 1069.37 75.1856C1069.43 75.1735 1069.48 75.1442 1069.53 75.1014C1069.57 75.0585 1069.6 75.004 1069.62 74.9446C1069.91 73.7302 1070.88 70.7425 1072.25 69.6438C1072.04 70.3836 1072.04 71.1637 1072.24 71.9039C1072.45 72.6441 1072.86 73.3177 1073.43 73.8555C1073.47 73.896 1073.53 73.9236 1073.59 73.9355C1073.65 73.9474 1073.72 73.9431 1073.78 73.923C1073.84 73.9003 1073.89 73.8623 1073.93 73.813C1073.97 73.7637 1073.99 73.7051 1074 73.6435C1074.1 72.7725 1074.43 71.9392 1074.94 71.2155C1075.45 70.4918 1076.14 69.8995 1076.95 69.4896C1076.75 70.542 1076.87 71.6276 1077.31 72.6123C1077.33 72.6585 1077.36 72.6993 1077.4 72.7312C1077.44 72.7631 1077.49 72.7852 1077.54 72.7954C1077.59 72.8061 1077.64 72.8056 1077.69 72.7939C1077.74 72.7823 1077.79 72.7597 1077.83 72.7279C1078.62 72.1306 1079.48 71.629 1080.4 71.2341C1080 71.5901 1079.69 72.0296 1079.49 72.5189C1079.29 73.0083 1079.21 73.5347 1079.26 74.0579C1079.34 74.9767 1079.79 75.8267 1080.53 76.4212C1081.26 77.0158 1082.2 77.3062 1083.16 77.2288C1083.94 77.1625 1084.68 76.8473 1085.26 76.3325C1086.11 78.4721 1089.36 88.7268 1083.86 109.101C1076.44 111.251 1075.26 113.506 1074.23 115.501C1073.89 116.226 1073.45 116.898 1072.91 117.496C1072.38 118.208 1072.07 119.045 1072.01 119.916C1071.95 120.786 1072.14 121.656 1072.56 122.43C1073.93 125.187 1078.44 128.213 1092.1 127.105C1101.5 126.334 1107.29 124.213 1109.31 120.802C1109.72 120.148 1109.96 119.411 1110.03 118.65C1110.09 117.889 1109.96 117.124 1109.67 116.416C1107.67 111.81 1102.55 108.08 1097.67 107.627C1096.89 100.196 1094.5 82.7802 1088.84 75.8217C1089.08 75.8457 1089.32 75.8457 1089.56 75.8217C1090.51 75.7408 1091.39 75.2988 1092.01 74.5925C1092.63 73.8861 1092.93 72.9731 1092.85 72.0533C1092.78 71.362 1092.51 70.7047 1092.05 70.1667C1091.6 69.6288 1090.99 69.235 1090.3 69.0366C1092.22 68.8753 1094.16 69.0483 1096.03 69.5474C1096.07 69.5687 1096.12 69.5798 1096.17 69.5798C1096.22 69.5798 1096.27 69.5687 1096.32 69.5474C1096.36 69.5207 1096.4 69.4838 1096.42 69.4401C1096.45 69.3964 1096.46 69.3472 1096.47 69.2968C1096.49 68.0982 1096.14 66.9198 1095.47 65.9139C1096.48 66.0063 1097.46 66.3411 1098.31 66.8879C1099.16 67.4347 1099.85 68.1765 1100.33 69.0462C1100.35 69.1004 1100.4 69.1462 1100.45 69.1785C1100.5 69.2109 1100.56 69.2284 1100.63 69.2294C1100.69 69.2284 1100.75 69.2109 1100.8 69.1785C1100.86 69.1462 1100.9 69.1004 1100.93 69.0462C1101.29 68.2661 1101.43 67.4055 1101.32 66.5566C1101.21 65.7077 1100.87 64.9025 1100.33 64.2273C1102.21 64.7574 1104.53 67.5042 1105.33 68.6607C1105.36 68.7085 1105.41 68.747 1105.46 68.7723C1105.52 68.7976 1105.58 68.809 1105.64 68.8053C1105.7 68.7962 1105.76 68.7695 1105.81 68.7284C1105.86 68.6873 1105.89 68.6337 1105.91 68.574C1106.2 67.6182 1106.3 66.6154 1106.19 65.6231C1106.09 64.6308 1105.78 63.6685 1105.29 62.7913C1108.36 63.0804 1112.14 67.5235 1112.18 67.6102C1112.22 67.6628 1112.28 67.701 1112.35 67.7199C1112.42 67.7388 1112.49 67.7375 1112.56 67.7162C1112.63 67.6948 1112.68 67.6517 1112.72 67.594C1112.76 67.5363 1112.78 67.4673 1112.78 67.3982C1112.79 65.2849 1112.27 63.2002 1111.28 61.3167C1114.99 61.5865 1120.62 66.8874 1120.68 66.9452C1120.73 66.9919 1120.79 67.0226 1120.86 67.033C1120.93 67.0434 1120.99 67.0329 1121.06 67.003C1121.12 66.9754 1121.17 66.93 1121.2 66.8731C1121.24 66.8161 1121.25 66.7504 1121.25 66.685C1120.82 61.3167 1115.43 57.6832 1115.18 57.5193ZM1097.29 111.116C1097.16 112.128 1096.72 113.083 1096.05 113.866C1095.37 114.649 1094.47 115.226 1093.46 115.53C1090.62 116.494 1086.61 115.857 1084.71 114.142C1084.32 113.839 1084.03 113.436 1083.87 112.98C1083.72 112.524 1083.7 112.035 1083.82 111.569L1084.06 110.72C1086.52 111.601 1089.14 111.992 1091.76 111.867C1093.8 111.788 1095.73 110.953 1097.15 109.535C1097.24 110.412 1097.28 110.971 1097.29 111.116ZM1097.06 108.61C1093.63 113.053 1085.8 110.634 1084.23 110.084C1084.69 108.446 1085.09 106.872 1085.44 105.362C1087.2 106.413 1089.28 106.88 1091.35 106.692C1093.22 106.5 1095.03 105.918 1096.65 104.986C1096.82 106.393 1096.96 107.627 1097.06 108.61ZM1096.56 104.282C1090.56 107.752 1086.44 105.246 1085.56 104.677C1085.9 103.164 1086.18 101.719 1086.43 100.34C1088.04 100.842 1089.74 101.035 1091.43 100.909C1092.97 100.791 1094.47 100.347 1095.82 99.608C1096.15 101.275 1096.37 102.904 1096.56 104.282ZM1086.56 99.6851C1086.81 98.2394 1087.01 96.8515 1087.16 95.5504C1088.48 96.0169 1089.89 96.1978 1091.3 96.0805C1092.61 95.9733 1093.88 95.5953 1095.03 94.9721C1095.3 96.3118 1095.53 97.6322 1095.74 98.914C1094.35 99.6496 1092.82 100.098 1091.24 100.231C1089.66 100.364 1088.08 100.178 1086.58 99.6851H1086.56ZM1087.23 94.8661C1087.36 93.6325 1087.46 92.4567 1087.52 91.3483C1088.65 91.7099 1089.84 91.8476 1091.03 91.7531C1092.12 91.6588 1093.19 91.3295 1094.14 90.7893C1094.41 91.9362 1094.67 93.1024 1094.9 94.2493C1093.75 94.8948 1092.47 95.2859 1091.14 95.3943C1089.82 95.5027 1088.49 95.3256 1087.25 94.8758L1087.23 94.8661ZM1087.56 90.664C1087.56 89.6328 1087.62 88.6593 1087.61 87.7726C1088.35 87.9022 1089.1 87.9378 1089.85 87.8787C1091 87.8036 1092.11 87.4161 1093.05 86.7607C1093.38 87.8787 1093.69 89.0256 1093.97 90.1821C1093 90.7059 1091.93 91.0211 1090.83 91.106C1089.72 91.1909 1088.61 91.0434 1087.58 90.6737L1087.56 90.664ZM1087.61 87.0691C1087.61 85.9222 1087.53 84.8717 1087.44 83.9079C1087.97 84.0252 1088.53 84.0609 1089.08 84.0139C1090.07 83.9277 1091.02 83.5957 1091.84 83.0501C1092.19 84.0139 1092.53 84.9777 1092.84 86.0282C1092.09 86.5445 1091.24 86.9047 1090.35 87.0856C1089.45 87.2666 1088.52 87.2642 1087.63 87.0787L1087.61 87.0691ZM1087.38 83.2139C1087.29 82.4044 1087.19 81.6622 1087.08 80.9876C1087.39 81.0174 1087.71 81.0174 1088.03 80.9876C1088.95 80.9255 1089.83 80.5888 1090.55 80.0238C1090.92 80.7852 1091.26 81.5948 1091.6 82.4333C1091.01 82.8658 1090.32 83.162 1089.59 83.299C1088.86 83.436 1088.11 83.4102 1087.4 83.2236L1087.38 83.2139ZM1086.97 80.3226C1086.82 79.5515 1086.67 78.8865 1086.52 78.3179C1086.72 78.3372 1086.93 78.3372 1087.14 78.3179C1087.89 78.2681 1088.6 77.9565 1089.14 77.4408C1089.55 78.0621 1089.93 78.7057 1090.28 79.3684C1089.84 79.7547 1089.31 80.0417 1088.74 80.2084C1088.18 80.3752 1087.57 80.4174 1086.99 80.3322L1086.97 80.3226ZM1086.32 77.624C1086.13 76.9879 1085.96 76.5156 1085.83 76.1879H1086.26C1086.79 76.1409 1087.3 75.9796 1087.76 75.7157C1088.11 76.0853 1088.45 76.4747 1088.76 76.8818C1088.46 77.2018 1088.08 77.44 1087.65 77.572C1087.23 77.704 1086.77 77.7253 1086.34 77.6336L1086.32 77.624ZM1087.63 75.0314C1087.3 75.2482 1086.93 75.4 1086.54 75.4777C1086.15 75.5555 1085.75 75.5577 1085.36 75.4843C1084.74 75.3619 1084.18 75.0498 1083.76 74.5948C1083.34 74.1397 1083.08 73.566 1083.03 72.9592C1082.99 72.5951 1083.03 72.2279 1083.15 71.879C1083.26 71.53 1083.44 71.206 1083.69 70.9256C1083.93 70.6336 1084.23 70.3924 1084.58 70.2168C1084.92 70.0411 1085.3 69.9347 1085.69 69.904H1086.12C1086.49 69.922 1086.85 70.0104 1087.19 70.1642C1087.65 70.3751 1088.05 70.6997 1088.34 71.1057C1088.64 71.5116 1088.81 71.9846 1088.86 72.4773C1088.91 72.9695 1088.82 73.4659 1088.61 73.9162C1088.4 74.3664 1088.06 74.7545 1087.65 75.041L1087.63 75.0314ZM1090.63 44.354C1091.91 43.875 1093.26 43.5732 1094.63 43.4577C1096.06 43.3142 1097.51 43.4754 1098.87 43.9299C1096.78 44.4889 1091.87 46.0117 1090.63 48.3441C1090.59 48.3932 1090.58 48.45 1090.58 48.5079C1090.58 48.5659 1090.59 48.6227 1090.63 48.6718C1090.66 48.7203 1090.7 48.7594 1090.76 48.785C1090.81 48.8105 1090.87 48.8213 1090.93 48.8163C1092.53 48.8532 1094.09 49.2668 1095.49 50.0211C1093.71 50.3391 1090.06 51.2065 1089 53.1919C1088.97 53.2403 1088.95 53.2951 1088.95 53.3509C1088.95 53.4068 1088.97 53.4616 1089 53.51C1089.03 53.5595 1089.07 53.6 1089.12 53.6272C1089.18 53.6544 1089.24 53.6671 1089.3 53.6642C1090.84 53.671 1092.32 54.2194 1093.47 55.2063C1091.95 55.3315 1088.52 55.8038 1087.64 57.4133C1087.6 57.4653 1087.59 57.5255 1087.59 57.5868C1087.59 57.6482 1087.6 57.7083 1087.64 57.7603C1087.67 57.8131 1087.72 57.8536 1087.79 57.8761C1087.85 57.8986 1087.91 57.9019 1087.98 57.8856C1088.6 57.7648 1089.25 57.7892 1089.86 57.9568C1090.47 58.1244 1091.03 58.4304 1091.5 58.8494C1090.53 58.8657 1089.59 59.1208 1088.76 59.5902C1087.93 60.0595 1087.24 60.7271 1086.76 61.5287C1086.72 61.5796 1086.71 61.6379 1086.71 61.6974C1086.71 61.7568 1086.72 61.8151 1086.76 61.866C1086.79 61.9161 1086.84 61.956 1086.9 61.9815C1086.95 62.007 1087.01 62.0171 1087.08 62.0106C1088.02 61.9477 1088.97 62.1272 1089.82 62.531C1088.12 64.1142 1086.83 66.0582 1086.05 68.2077C1085.34 63.5816 1083.12 48.0164 1090.71 44.3636L1090.63 44.354ZM1077.86 63.1479C1078.67 62.2227 1079.72 61.532 1080.92 61.1528C1080.98 61.1363 1081.03 61.1042 1081.07 61.06C1081.12 61.0158 1081.14 60.9612 1081.16 60.9022C1081.17 60.8429 1081.16 60.7821 1081.14 60.7262C1081.11 60.6702 1081.08 60.6212 1081.03 60.5842C1080.04 59.869 1078.87 59.414 1077.64 59.2636C1076.42 59.1133 1075.17 59.2727 1074.03 59.7264C1074.84 57.317 1077.69 56.8351 1077.82 56.7772C1077.88 56.7694 1077.94 56.7431 1077.99 56.7018C1078.04 56.6605 1078.07 56.6062 1078.09 56.5459C1078.1 56.4853 1078.1 56.4221 1078.08 56.3627C1078.06 56.3034 1078.02 56.2501 1077.98 56.2086C1076.12 54.7051 1071.69 55.8713 1069.98 56.4013C1070.81 54.6136 1072.33 53.2005 1074.21 52.4498C1074.26 52.4313 1074.31 52.3981 1074.35 52.354C1074.39 52.3098 1074.42 52.2563 1074.43 52.1992C1074.44 52.1431 1074.43 52.0853 1074.41 52.0314C1074.39 51.9774 1074.36 51.9291 1074.32 51.8908C1072.04 50.0114 1067.08 50.8114 1064.98 51.2644C1066.27 49.638 1067.97 48.3545 1069.92 47.5345C1069.97 47.515 1070.02 47.4816 1070.06 47.4377C1070.1 47.3937 1070.13 47.3406 1070.14 47.2839C1070.15 47.2277 1070.15 47.1694 1070.13 47.1151C1070.11 47.0608 1070.07 47.0125 1070.03 46.9755C1067.32 44.7781 1060.53 45.366 1058.03 45.6647C1061.81 42.1373 1068.03 42.1566 1068.09 42.1566C1079.01 42.9661 1084.18 62.9647 1085.36 68.2945C1083.34 66.0209 1080.78 64.2573 1077.9 63.1575L1077.86 63.1479ZM1077.71 72.0629C1077.44 71.1161 1077.44 70.1183 1077.71 69.1715C1077.73 69.1143 1077.73 69.0532 1077.71 68.9952C1077.69 68.9372 1077.66 68.8847 1077.62 68.8439C1077.57 68.8016 1077.52 68.772 1077.46 68.7584C1077.4 68.7448 1077.34 68.7476 1077.28 68.7667C1076.31 69.0997 1075.44 69.6673 1074.77 70.415C1074.09 71.1627 1073.63 72.0654 1073.42 73.0363C1073.05 72.4748 1072.82 71.835 1072.77 71.172C1072.71 70.509 1072.82 69.8424 1073.09 69.2294C1073.12 69.1792 1073.14 69.1206 1073.14 69.0607C1073.14 69.0008 1073.12 68.9422 1073.09 68.892C1073.04 68.8456 1072.99 68.812 1072.93 68.7949C1072.86 68.7778 1072.8 68.7781 1072.74 68.7956C1070.8 69.345 1069.6 72.7665 1069.17 74.2411C1068.3 72.8744 1067.99 71.2456 1068.31 69.6727C1068.32 69.6173 1068.32 69.5599 1068.3 69.5058C1068.28 69.4518 1068.25 69.403 1068.21 69.3643C1068.17 69.3219 1068.11 69.292 1068.05 69.2783C1067.99 69.2646 1067.93 69.2677 1067.88 69.2872C1065.5 69.9522 1063.81 73.5279 1063.13 75.2338C1062.58 73.652 1062.44 71.9646 1062.72 70.3184C1062.73 70.2626 1062.73 70.2034 1062.72 70.1473C1062.7 70.0912 1062.67 70.0404 1062.63 70.0004C1062.58 69.9599 1062.53 69.9314 1062.47 69.9178C1062.41 69.9042 1062.35 69.9061 1062.3 69.9233C1059.49 70.7329 1056.83 75.4169 1055.82 77.3734C1055.09 73.2387 1057.91 69.133 1057.93 69.1041C1059.63 66.9837 1062.36 66.0296 1065.48 65.7694C1072.53 65.1911 1081.48 68.1981 1084.79 69.4028C1082.24 69.732 1079.81 70.6441 1077.71 72.0629ZM1083.51 70.2799L1083.34 70.4341H1083.04L1083.51 70.2799ZM1079.88 74.135C1079.84 73.7647 1079.89 73.3917 1080 73.0376C1080.12 72.6834 1080.31 72.355 1080.56 72.0711C1080.81 71.7873 1081.11 71.5536 1081.45 71.3835C1081.8 71.2134 1082.17 71.1102 1082.56 71.0798H1082.86V71.128C1082.86 71.1762 1082.81 71.234 1082.78 71.2822C1082.71 71.4136 1082.65 71.5487 1082.6 71.687L1082.54 71.8894C1082.5 72.0253 1082.47 72.1638 1082.45 72.3039V72.487C1082.43 72.6953 1082.43 72.9051 1082.45 73.1134C1082.46 73.289 1082.49 73.463 1082.54 73.6339C1082.54 73.6917 1082.54 73.7495 1082.59 73.8074L1082.71 74.135L1082.8 74.3182C1082.84 74.4144 1082.9 74.5078 1082.96 74.5977L1083.08 74.7808C1083.13 74.8651 1083.2 74.9456 1083.27 75.0217L1083.42 75.1856C1083.49 75.2642 1083.57 75.3382 1083.65 75.4072L1083.82 75.5422C1083.9 75.6118 1083.99 75.6762 1084.09 75.7349L1084.26 75.841C1084.4 75.9199 1084.55 75.9876 1084.71 76.0434C1084.24 76.4217 1083.67 76.6509 1083.07 76.6987C1082.67 76.7343 1082.28 76.6937 1081.9 76.5794C1081.53 76.465 1081.18 76.2791 1080.88 76.0329C1080.58 75.7866 1080.34 75.4849 1080.16 75.1456C1079.99 74.8064 1079.88 74.4365 1079.86 74.0579L1079.88 74.135ZM1109.03 116.821C1109.28 117.446 1109.38 118.12 1109.32 118.789C1109.26 119.458 1109.04 120.104 1108.68 120.676C1107.37 122.874 1103.41 125.698 1092.01 126.642C1078.01 127.789 1074.18 124.435 1073.13 122.324C1072.77 121.667 1072.61 120.931 1072.65 120.192C1072.7 119.453 1072.94 118.739 1073.37 118.122C1073.95 117.478 1074.44 116.754 1074.81 115.973C1075.81 114.046 1076.86 112.06 1083.62 110.027C1083.49 110.518 1083.35 110.99 1083.21 111.511C1083.04 112.09 1083.06 112.704 1083.25 113.276C1083.44 113.848 1083.8 114.353 1084.29 114.73C1085.29 115.498 1086.43 116.068 1087.66 116.409C1088.89 116.75 1090.18 116.854 1091.45 116.715C1092.22 116.651 1092.99 116.496 1093.73 116.253C1094.86 115.909 1095.87 115.258 1096.62 114.378C1097.38 113.498 1097.86 112.425 1098.01 111.289V111.222C1098.01 111.019 1097.92 110.017 1097.76 108.465C1100.19 108.846 1102.5 109.801 1104.46 111.245C1106.42 112.69 1107.98 114.578 1109.01 116.744L1109.03 116.821ZM1092.17 72.2942C1092.2 72.6638 1092.16 73.036 1092.04 73.3896C1091.92 73.7432 1091.74 74.0712 1091.49 74.3549C1091.24 74.6386 1090.94 74.8725 1090.6 75.0432C1090.25 75.2138 1089.88 75.3179 1089.5 75.3494C1089.16 75.3807 1088.82 75.3546 1088.5 75.2723C1088.56 75.2241 1088.6 75.1663 1088.66 75.1085L1088.74 75.0217C1088.83 74.9157 1088.92 74.8001 1089 74.6844C1089.07 74.5784 1089.13 74.4627 1089.19 74.3567L1089.25 74.2314C1089.25 74.1447 1089.32 74.0579 1089.35 73.9616C1089.38 73.8652 1089.35 73.8652 1089.4 73.817C1089.43 73.7286 1089.45 73.6384 1089.47 73.5471V73.4026V73.1134C1089.47 73.0686 1089.47 73.0234 1089.47 72.9785C1089.48 72.8341 1089.48 72.6892 1089.47 72.5448C1089.47 72.4002 1089.47 72.2653 1089.4 72.1207C1089.33 71.9762 1089.4 72.034 1089.4 71.9858C1089.4 71.9376 1089.35 71.8027 1089.32 71.716L1089.26 71.5617C1089.22 71.4797 1089.19 71.3993 1089.15 71.3208C1089.12 71.2707 1089.1 71.2223 1089.07 71.1762C1089.07 71.0991 1088.98 71.022 1088.93 70.9449L1088.84 70.8196C1088.78 70.7297 1088.7 70.6458 1088.63 70.569L1088.57 70.4919C1088.47 70.3939 1088.37 70.3006 1088.27 70.2124L1088.15 70.1257L1087.98 69.9908C1088.27 69.865 1088.59 69.7869 1088.92 69.7594C1089.68 69.6777 1090.45 69.8898 1091.05 70.3498C1091.66 70.8097 1092.05 71.4805 1092.15 72.2171L1092.17 72.2942ZM1110.71 60.7287C1110.65 60.734 1110.59 60.7535 1110.54 60.7855C1110.49 60.8176 1110.45 60.861 1110.43 60.9119C1110.4 60.962 1110.38 61.0184 1110.38 61.0757C1110.38 61.1331 1110.4 61.1894 1110.43 61.2395C1111.43 62.8467 1112 64.6682 1112.09 66.5404C1110.72 65.0947 1107.46 62.0106 1104.72 62.2419C1104.66 62.2459 1104.6 62.265 1104.56 62.2973C1104.51 62.3296 1104.47 62.3737 1104.45 62.425C1104.42 62.4751 1104.4 62.5315 1104.4 62.5889C1104.4 62.6462 1104.42 62.7026 1104.45 62.7527C1105.43 64.276 1105.78 66.0975 1105.45 67.8608C1104.45 66.55 1101.73 63.437 1099.5 63.6298C1099.43 63.6325 1099.37 63.6543 1099.32 63.6922C1099.27 63.73 1099.23 63.7822 1099.21 63.8418C1099.18 63.8991 1099.18 63.9623 1099.19 64.0227C1099.21 64.0832 1099.24 64.1378 1099.29 64.1791C1099.83 64.7136 1100.23 65.369 1100.44 66.0869C1100.66 66.8048 1100.69 67.5632 1100.53 68.2945C1099.91 67.3803 1099.05 66.6347 1098.05 66.1286C1097.04 65.6224 1095.92 65.3727 1094.79 65.4031C1094.72 65.407 1094.66 65.4269 1094.61 65.4607C1094.56 65.4946 1094.51 65.5412 1094.49 65.5959C1094.46 65.6511 1094.45 65.7118 1094.46 65.7713C1094.47 65.8308 1094.5 65.8868 1094.54 65.9332C1095.22 66.8217 1095.64 67.8761 1095.74 68.9788C1093.87 68.5314 1091.95 68.3881 1090.04 68.5547C1089.11 68.6371 1088.19 68.782 1087.29 68.9884C1091.29 65.4706 1106.14 53.1534 1114.78 58.1362C1114.83 58.1362 1119.52 61.3263 1120.45 65.9139C1118.71 64.2755 1113.94 60.4107 1110.71 60.6806V60.7287Z" fill="#4E9982"/>
<mask id="mask0_329_1927" style="mask-type:alpha" maskUnits="userSpaceOnUse" x="15" y="70" width="670" height="291">
<rect x="479.5" y="55.5" width="360" height="479" transform="rotate(90 479.5 55.5)" fill="url(#paint0_linear_329_1927)" stroke="#6246E5"/>
</mask>
<g mask="url(#mask0_329_1927)">
<path d="M129.995 516.922C60.6619 516.922 4.4553 460.637 4.4553 391.204C4.4553 321.771 60.6619 265.486 129.995 265.486C199.328 265.486 255.534 321.771 255.534 391.204C255.534 460.637 199.328 516.922 129.995 516.922Z" stroke="#4E9982"/>
<path d="M143.262 521.904C65.6863 521.904 2.79723 458.926 2.79724 381.239C2.79724 303.551 65.6863 240.574 143.262 240.574C220.838 240.574 283.728 303.551 283.728 381.239C283.728 458.926 220.838 521.904 143.262 521.904Z" stroke="#4E9982"/>
<path d="M154.042 526.886C69.1385 526.886 0.309499 457.96 0.309503 372.935C0.309506 287.91 69.1385 218.984 154.042 218.984C238.945 218.984 307.774 287.91 307.774 372.935C307.774 457.96 238.945 526.886 154.042 526.886Z" stroke="#4E9982"/>
<path d="M169.797 530.207C78.4824 530.207 4.45595 456.077 4.45596 364.631C4.45596 273.185 78.4825 199.055 169.797 199.055C261.112 199.055 335.139 273.185 335.139 364.631C335.139 456.077 261.112 530.207 169.797 530.207Z" stroke="#4E9982"/>
<path d="M185.137 533.529C87.6399 533.529 8.60155 454.38 8.60155 356.743C8.60156 259.106 87.6399 179.957 185.137 179.957C282.634 179.957 361.673 259.106 361.673 356.743C361.673 454.38 282.634 533.529 185.137 533.529Z" stroke="#4E9982"/>
<path d="M202.551 537.681C95.4366 537.681 8.60204 450.724 8.60204 343.457C8.60205 236.189 95.4366 149.232 202.551 149.232C309.665 149.232 396.5 236.189 396.5 343.457C396.5 450.724 309.665 537.681 202.551 537.681Z" stroke="#4E9982"/>
</g>
<defs>
<linearGradient id="paint0_linear_329_1927" x1="736.035" y1="68.4669" x2="487.704" y2="539.066" gradientUnits="userSpaceOnUse">
<stop stop-color="#747DEF"/>
<stop offset="1" stop-color="#5E3BE1"/>
</linearGradient>
</defs>
</svg>
