<svg width="1440" height="508" viewBox="0 0 1440 508" fill="none" xmlns="http://www.w3.org/2000/svg">
<rect width="1440" height="508" fill="#ECFDF8"/>
<path d="M89.1104 265.929L91.9304 264.709L103.2 272.569L106.2 270.909C108.61 269.469 110.95 269.369 112.07 270.009L112.3 269.899C114.04 269.139 115.07 269.819 115.42 270.639C115.77 271.459 115.57 272.639 113.83 273.419L113.6 273.519C113.39 274.519 112.48 276.199 108.93 277.189L105.66 278.239L103.66 291.829L100.84 293.059L98.6504 280.469L90.5904 283.229L89.3704 286.459L87.1304 287.289L86.9704 284.289L86.1704 284.359L85.4404 282.689L86.0404 282.099L83.9204 279.899L86.0604 278.829L89.2404 280.149L96.7704 276.149L89.1104 265.929ZM89.3204 280.879L86.1204 279.549L85.1204 280.069L87.0604 282.069L86.3304 282.809L86.6704 283.599L87.6704 283.509L87.8204 286.309L88.9104 285.909L90.1304 282.669L99.2504 279.559L101.42 292.069L103.11 291.339L105.06 277.699L108.75 276.519C112.19 275.569 112.87 274.029 112.97 273.199L112.97 272.989L113.17 272.919C113.297 272.882 113.421 272.836 113.54 272.779C114.61 272.319 115.09 271.589 114.78 270.889C114.47 270.189 113.62 270.029 112.55 270.499C112.43 270.547 112.313 270.604 112.2 270.669L112.01 270.779L111.83 270.649C111.1 270.109 108.97 270.009 106.51 271.469L103.15 273.349L91.8504 265.459L90.1604 266.189L97.8204 276.329L89.3204 280.879Z" fill="#999999"/>
<path d="M-7.66984 181.999C-7.72403 181.998 -7.77749 182.012 -7.82487 182.038C-7.87224 182.064 -7.91189 182.103 -7.93986 182.149C-8.29986 182.696 -8.63319 183.246 -8.93986 183.799C-8.98521 183.872 -9.0001 183.96 -8.98142 184.044C-8.96274 184.129 -8.91192 184.202 -8.83982 184.249C-8.7654 184.294 -8.67646 184.307 -8.59226 184.286C-8.50806 184.266 -8.43534 184.213 -8.38981 184.139C-8.04981 183.589 -7.70981 183.049 -7.38981 182.499C-7.36557 182.464 -7.34866 182.424 -7.34006 182.382C-7.33146 182.34 -7.33137 182.297 -7.33976 182.255C-7.34815 182.213 -7.36489 182.173 -7.38895 182.138C-7.41301 182.102 -7.4439 182.072 -7.47983 182.049C-7.53818 182.017 -7.60339 182 -7.66984 181.999ZM-9.66984 185.319C-9.7263 185.32 -9.7817 185.335 -9.83072 185.363C-9.87975 185.391 -9.92072 185.431 -9.9498 185.479C-10.2698 186.049 -10.5898 186.619 -10.9498 187.189C-10.9903 187.264 -11.0004 187.351 -10.9781 187.433C-10.9557 187.515 -10.9026 187.585 -10.8298 187.629C-10.7539 187.669 -10.6656 187.677 -10.5835 187.653C-10.5014 187.629 -10.432 187.574 -10.3898 187.499C-10.0798 186.929 -9.75985 186.369 -9.43986 185.809C-9.39542 185.735 -9.38204 185.646 -9.40262 185.562C-9.42321 185.477 -9.47608 185.405 -9.54984 185.359C-9.60189 185.331 -9.66059 185.317 -9.71982 185.319L-9.66984 185.319ZM-11.5298 188.739C-11.59 188.74 -11.6488 188.757 -11.6999 188.789C-11.751 188.82 -11.7925 188.865 -11.8199 188.919C-12.1199 189.499 -12.4099 190.089 -12.6899 190.669C-12.7085 190.707 -12.7194 190.748 -12.722 190.791C-12.7245 190.833 -12.7186 190.875 -12.7047 190.915C-12.6907 190.955 -12.669 190.992 -12.6407 191.024C-12.6124 191.055 -12.5781 191.081 -12.5398 191.099C-12.5018 191.118 -12.4604 191.129 -12.4181 191.131C-12.3758 191.134 -12.3335 191.128 -12.2935 191.114C-12.2535 191.1 -12.2167 191.078 -12.1852 191.05C-12.1536 191.022 -12.128 190.987 -12.1098 190.949C-11.8298 190.369 -11.5398 189.789 -11.2398 189.209C-11.2212 189.171 -11.2102 189.13 -11.2077 189.087C-11.2051 189.045 -11.211 189.003 -11.225 188.963C-11.2389 188.923 -11.2607 188.886 -11.289 188.854C-11.3173 188.823 -11.3515 188.797 -11.3898 188.779C-11.4166 188.759 -11.4476 188.745 -11.4804 188.738C-11.5132 188.731 -11.5471 188.731 -11.5798 188.739L-11.5298 188.739ZM-13.2198 192.259C-13.2825 192.26 -13.3436 192.278 -13.3966 192.312C-13.4495 192.345 -13.4922 192.393 -13.5198 192.449L-14.2998 194.239C-14.3329 194.32 -14.3325 194.411 -14.2987 194.491C-14.265 194.572 -14.2007 194.636 -14.1198 194.669C-14.0401 194.699 -13.9519 194.697 -13.8736 194.664C-13.7954 194.63 -13.7331 194.567 -13.6998 194.489C-13.4498 193.899 -13.1898 193.309 -12.9298 192.709C-12.9117 192.671 -12.9014 192.63 -12.8996 192.588C-12.8979 192.546 -12.9047 192.504 -12.9197 192.465C-12.9347 192.425 -12.9575 192.39 -12.9867 192.359C-13.016 192.329 -13.051 192.305 -13.0898 192.289C-13.1454 192.261 -13.2082 192.251 -13.2698 192.259L-13.2198 192.259ZM-14.7298 195.849C-14.7938 195.85 -14.8563 195.869 -14.9096 195.904C-14.9628 195.94 -15.0046 195.99 -15.0298 196.049C-15.2698 196.669 -15.4998 197.279 -15.7298 197.889C-15.744 197.929 -15.75 197.972 -15.7476 198.014C-15.7452 198.056 -15.7343 198.098 -15.7157 198.136C-15.6971 198.174 -15.6711 198.208 -15.6392 198.236C-15.6073 198.264 -15.5701 198.286 -15.5298 198.299C-15.4501 198.325 -15.3634 198.321 -15.2872 198.285C-15.211 198.25 -15.1512 198.187 -15.1198 198.109C-14.8998 197.499 -14.6698 196.899 -14.4298 196.289C-14.3999 196.209 -14.4019 196.121 -14.4354 196.043C-14.4689 195.965 -14.5314 195.902 -14.6098 195.869L-14.7298 195.849ZM-16.0699 199.509C-16.1366 199.51 -16.2013 199.532 -16.2551 199.571C-16.3089 199.61 -16.349 199.666 -16.3698 199.729C-16.5898 200.349 -16.7898 200.969 -16.9798 201.589C-17.0052 201.671 -16.9975 201.76 -16.9582 201.837C-16.919 201.913 -16.8514 201.972 -16.7698 201.999C-16.6876 202.024 -16.5987 202.017 -16.5221 201.977C-16.4455 201.938 -16.3873 201.871 -16.3598 201.789C-16.1698 201.169 -15.9699 200.559 -15.7599 199.939C-15.7345 199.857 -15.7422 199.768 -15.7815 199.691C-15.8207 199.615 -15.8883 199.557 -15.9698 199.529L-16.0699 199.509ZM-17.2298 203.229C-17.3004 203.231 -17.3686 203.255 -17.4244 203.298C-17.4801 203.341 -17.5206 203.401 -17.5398 203.469C-17.7198 204.099 -17.8998 204.729 -18.0598 205.349C-18.0814 205.433 -18.0693 205.521 -18.0263 205.596C-17.9834 205.671 -17.9128 205.726 -17.8298 205.749C-17.7891 205.76 -17.7468 205.762 -17.7051 205.756C-17.6635 205.75 -17.6234 205.736 -17.5872 205.715C-17.551 205.694 -17.5193 205.665 -17.494 205.632C-17.4687 205.598 -17.4503 205.56 -17.4399 205.519C-17.2699 204.899 -17.0998 204.269 -16.9198 203.649C-16.9076 203.608 -16.9036 203.566 -16.9081 203.523C-16.9126 203.481 -16.9255 203.44 -16.946 203.403C-16.9664 203.366 -16.9942 203.333 -17.0274 203.306C-17.0607 203.28 -17.0989 203.261 -17.1398 203.249L-17.2298 203.229ZM-18.2298 206.999C-18.3017 207.001 -18.3708 207.027 -18.4268 207.072C-18.4827 207.117 -18.5224 207.179 -18.5398 207.249C-18.6898 207.889 -18.8398 208.529 -18.9698 209.159C-18.9801 209.2 -18.982 209.242 -18.9754 209.284C-18.9688 209.325 -18.9538 209.365 -18.9314 209.401C-18.9089 209.436 -18.8795 209.467 -18.8448 209.491C-18.8102 209.514 -18.7711 209.531 -18.7298 209.539C-18.6884 209.549 -18.6454 209.551 -18.6032 209.545C-18.5611 209.538 -18.5206 209.524 -18.4843 209.501C-18.4479 209.479 -18.4164 209.449 -18.3916 209.415C-18.3668 209.38 -18.3492 209.341 -18.3398 209.299C-18.2098 208.669 -18.0598 208.039 -17.9098 207.399C-17.8916 207.316 -17.9064 207.228 -17.9512 207.156C-17.996 207.083 -18.0671 207.03 -18.1498 207.009L-18.2298 206.999ZM-19.0498 210.819C-19.1253 210.818 -19.1987 210.843 -19.2573 210.891C-19.3158 210.938 -19.3557 211.005 -19.3698 211.079C-19.4898 211.719 -19.6098 212.359 -19.7198 212.999C-19.7343 213.083 -19.7151 213.168 -19.6664 213.238C-19.6176 213.307 -19.5433 213.354 -19.4598 213.369C-19.4177 213.378 -19.3743 213.378 -19.3322 213.369C-19.2901 213.361 -19.2501 213.344 -19.2146 213.32C-19.1792 213.295 -19.149 213.264 -19.1258 213.228C-19.1027 213.192 -19.087 213.151 -19.0798 213.109C-18.9698 212.479 -18.8598 211.839 -18.7298 211.199C-18.7212 211.157 -18.721 211.114 -18.7295 211.071C-18.738 211.029 -18.7549 210.989 -18.7791 210.954C-18.8034 210.918 -18.8346 210.888 -18.8708 210.865C-18.907 210.842 -18.9475 210.826 -18.9898 210.819L-19.0498 210.819ZM-19.7098 214.659C-19.7872 214.656 -19.863 214.682 -19.9223 214.732C-19.9815 214.782 -20.0199 214.852 -20.0298 214.929C-20.1298 215.579 -20.2198 216.229 -20.2998 216.869C-20.3054 216.911 -20.3026 216.954 -20.2915 216.995C-20.2804 217.036 -20.2613 217.074 -20.2352 217.108C-20.2091 217.141 -20.1767 217.169 -20.1397 217.19C-20.1028 217.211 -20.062 217.224 -20.0198 217.229C-19.9775 217.236 -19.9343 217.234 -19.8927 217.224C-19.8512 217.213 -19.8122 217.194 -19.7784 217.168C-19.7446 217.142 -19.7166 217.109 -19.6962 217.071C-19.6758 217.033 -19.6634 216.992 -19.6598 216.949C-19.5798 216.322 -19.4898 215.682 -19.3898 215.029C-19.3782 214.944 -19.3998 214.859 -19.4502 214.79C-19.5005 214.721 -19.5757 214.674 -19.6598 214.659L-19.7098 214.659ZM-20.1998 218.529C-20.2804 218.526 -20.3589 218.555 -20.4186 218.609C-20.4784 218.663 -20.5147 218.739 -20.5198 218.819C-20.5898 219.469 -20.6598 220.119 -20.7098 220.759C-20.7154 220.845 -20.6871 220.93 -20.6311 220.995C-20.575 221.061 -20.4956 221.101 -20.4098 221.109C-20.368 221.115 -20.3255 221.111 -20.2851 221.1C-20.2446 221.088 -20.2072 221.067 -20.1751 221.04C-20.143 221.013 -20.117 220.979 -20.0989 220.941C-20.0808 220.903 -20.0709 220.861 -20.0699 220.819C-20.0099 220.179 -19.9499 219.529 -19.8799 218.879C-19.8757 218.837 -19.8799 218.795 -19.8923 218.754C-19.9047 218.714 -19.9249 218.676 -19.9519 218.644C-19.9788 218.611 -20.012 218.584 -20.0494 218.565C-20.0868 218.545 -20.1277 218.533 -20.1698 218.529L-20.1998 218.529ZM-20.5298 222.409C-20.6113 222.409 -20.6898 222.44 -20.7493 222.496C-20.8088 222.551 -20.8447 222.628 -20.8498 222.709C-20.8498 223.379 -20.9298 224.029 -20.9498 224.709C-20.9525 224.752 -20.9466 224.795 -20.9323 224.835C-20.9181 224.876 -20.8958 224.913 -20.8669 224.945C-20.838 224.977 -20.803 225.002 -20.7639 225.02C-20.7249 225.038 -20.6827 225.048 -20.6398 225.049C-20.5559 225.045 -20.4759 225.012 -20.4139 224.955C-20.3518 224.899 -20.3114 224.822 -20.2998 224.739C-20.2998 224.099 -20.2998 223.449 -20.2098 222.799C-20.2043 222.713 -20.2326 222.628 -20.2886 222.563C-20.3447 222.498 -20.4241 222.457 -20.5099 222.449L-20.5298 222.409ZM-20.6798 226.309C-20.7647 226.309 -20.8461 226.343 -20.9061 226.403C-20.9661 226.463 -20.9998 226.544 -20.9998 226.629C-20.9998 227.089 -20.9998 227.539 -20.9998 227.989L-20.9998 228.579C-20.9998 228.664 -20.9661 228.745 -20.9061 228.805C-20.8461 228.865 -20.7647 228.899 -20.6798 228.899C-20.595 228.899 -20.5136 228.865 -20.4536 228.805C-20.3936 228.745 -20.3598 228.664 -20.3598 228.579L-20.3598 227.989C-20.3598 227.539 -20.3598 227.089 -20.3598 226.639C-20.3585 226.596 -20.3658 226.554 -20.3813 226.514C-20.3967 226.474 -20.4201 226.437 -20.4499 226.406C-20.4798 226.376 -20.5155 226.351 -20.555 226.334C-20.5945 226.318 -20.637 226.309 -20.6798 226.309ZM-20.6798 230.209C-20.7227 230.209 -20.7652 230.218 -20.8047 230.234C-20.8441 230.251 -20.8799 230.276 -20.9097 230.306C-20.9395 230.337 -20.9629 230.374 -20.9784 230.414C-20.9939 230.454 -21.0012 230.496 -20.9998 230.539C-20.9998 231.209 -20.9398 231.859 -20.9098 232.539C-20.9022 232.625 -20.8613 232.704 -20.7959 232.76C-20.7305 232.816 -20.6458 232.845 -20.5598 232.839C-20.5178 232.837 -20.4767 232.826 -20.4388 232.807C-20.401 232.789 -20.3671 232.763 -20.3392 232.731C-20.3113 232.7 -20.29 232.663 -20.2763 232.623C-20.2627 232.583 -20.2571 232.541 -20.2599 232.499C-20.2599 231.869 -20.3298 231.219 -20.3498 230.559C-20.3452 230.512 -20.351 230.464 -20.3669 230.42C-20.3829 230.375 -20.4085 230.335 -20.442 230.301C-20.4755 230.268 -20.516 230.242 -20.5606 230.226C-20.6052 230.21 -20.6527 230.204 -20.6998 230.209L-20.6798 230.209ZM-20.4498 234.099C-20.4919 234.103 -20.5329 234.115 -20.5703 234.135C-20.6077 234.154 -20.6408 234.181 -20.6678 234.214C-20.6947 234.246 -20.715 234.284 -20.7273 234.324C-20.7397 234.365 -20.744 234.407 -20.7398 234.449C-20.6798 235.116 -20.6098 235.782 -20.5298 236.449C-20.5263 236.492 -20.5139 236.533 -20.4935 236.571C-20.4731 236.609 -20.4451 236.642 -20.4112 236.668C-20.3774 236.694 -20.3385 236.713 -20.2969 236.724C-20.2554 236.734 -20.2121 236.736 -20.1698 236.729C-20.0858 236.717 -20.0098 236.672 -19.9576 236.605C-19.9055 236.538 -19.8812 236.454 -19.8898 236.369C-19.9698 235.759 -20.0398 235.109 -20.0998 234.439C-20.0958 234.39 -20.1033 234.34 -20.1216 234.294C-20.1399 234.249 -20.1686 234.208 -20.2054 234.175C-20.2422 234.142 -20.2862 234.118 -20.3338 234.105C-20.3814 234.092 -20.4314 234.09 -20.4798 234.099L-20.4498 234.099ZM-19.9698 237.969C-20.0533 237.984 -20.1276 238.031 -20.1764 238.1C-20.2251 238.17 -20.2444 238.256 -20.2298 238.339L-20.1698 238.729C-20.0798 239.239 -19.9799 239.729 -19.8799 240.269C-19.8715 240.311 -19.855 240.35 -19.8313 240.385C-19.8077 240.42 -19.7773 240.45 -19.742 240.473C-19.7066 240.497 -19.667 240.513 -19.6255 240.52C-19.5839 240.528 -19.5412 240.528 -19.4998 240.519C-19.4577 240.512 -19.4175 240.496 -19.3817 240.473C-19.3459 240.45 -19.3153 240.419 -19.2918 240.384C-19.2684 240.348 -19.2525 240.308 -19.2453 240.266C-19.238 240.224 -19.2396 240.181 -19.2498 240.139C-19.3498 239.629 -19.4398 239.139 -19.5298 238.619L-19.5998 238.239C-19.6041 238.194 -19.6181 238.151 -19.641 238.112C-19.6638 238.073 -19.6949 238.039 -19.732 238.013C-19.7692 237.988 -19.8115 237.97 -19.856 237.963C-19.9006 237.955 -19.9462 237.957 -19.9898 237.969L-19.9698 237.969ZM-19.1998 241.789L-19.2698 241.789C-19.311 241.797 -19.3502 241.814 -19.3849 241.838C-19.4195 241.861 -19.449 241.892 -19.4714 241.928C-19.4939 241.963 -19.5088 242.003 -19.5154 242.044C-19.522 242.086 -19.5202 242.128 -19.5099 242.169C-19.3599 242.809 -19.2098 243.439 -19.0398 244.079C-19.0283 244.12 -19.0088 244.158 -18.9824 244.191C-18.956 244.225 -18.9232 244.252 -18.886 244.273C-18.8487 244.293 -18.8078 244.306 -18.7655 244.311C-18.7233 244.315 -18.6805 244.311 -18.6398 244.299C-18.5991 244.289 -18.5609 244.27 -18.5273 244.245C-18.4937 244.22 -18.4654 244.188 -18.444 244.152C-18.4226 244.116 -18.4086 244.075 -18.4027 244.034C-18.3969 243.992 -18.3993 243.95 -18.4098 243.909C-18.5798 243.279 -18.7399 242.659 -18.8799 242.029C-18.9003 241.956 -18.9453 241.892 -19.0072 241.849C-19.0691 241.805 -19.1442 241.784 -19.2198 241.789L-19.1998 241.789ZM-18.1998 245.549L-18.2898 245.549C-18.3307 245.561 -18.369 245.58 -18.4023 245.606C-18.4355 245.633 -18.4632 245.666 -18.4837 245.703C-18.5042 245.74 -18.517 245.781 -18.5215 245.823C-18.526 245.866 -18.5221 245.908 -18.5099 245.949C-18.3199 246.579 -18.1198 247.199 -17.9098 247.819C-17.8963 247.859 -17.875 247.896 -17.847 247.928C-17.819 247.96 -17.7849 247.986 -17.7467 248.005C-17.7086 248.024 -17.6671 248.034 -17.6247 248.037C-17.5823 248.039 -17.5399 248.033 -17.4998 248.019C-17.4596 248.006 -17.4224 247.984 -17.3905 247.956C-17.3586 247.928 -17.3325 247.894 -17.3139 247.856C-17.2953 247.818 -17.2845 247.776 -17.2821 247.734C-17.2797 247.692 -17.2857 247.649 -17.2998 247.609C-17.5098 246.999 -17.6998 246.379 -17.8898 245.759C-17.9134 245.694 -17.9573 245.639 -18.015 245.601C-18.0726 245.563 -18.141 245.545 -18.2098 245.549L-18.1998 245.549ZM-16.9498 249.249C-16.9859 249.24 -17.0238 249.24 -17.0598 249.249C-17.1393 249.278 -17.204 249.338 -17.2396 249.415C-17.2752 249.492 -17.2789 249.579 -17.2498 249.659C-17.0198 250.269 -16.7798 250.879 -16.5198 251.479C-16.5044 251.519 -16.4813 251.555 -16.4517 251.585C-16.4221 251.616 -16.3867 251.64 -16.3476 251.657C-16.3085 251.674 -16.2665 251.683 -16.2239 251.683C-16.1814 251.683 -16.1392 251.675 -16.0998 251.659C-16.061 251.643 -16.0259 251.619 -15.9964 251.589C-15.9668 251.559 -15.9435 251.523 -15.9277 251.484C-15.9119 251.445 -15.904 251.404 -15.9043 251.361C-15.9047 251.319 -15.9134 251.278 -15.9298 251.239C-16.1798 250.639 -16.4198 250.039 -16.6398 249.429C-16.6693 249.371 -16.7155 249.322 -16.7725 249.29C-16.8295 249.258 -16.8946 249.244 -16.9598 249.249L-16.9498 249.249ZM-15.4798 252.789C-15.526 252.78 -15.5737 252.78 -15.6198 252.789C-15.6971 252.826 -15.7569 252.891 -15.7868 252.972C-15.8166 253.052 -15.8141 253.141 -15.7798 253.219C-15.4998 253.809 -15.2198 254.399 -14.9198 254.989C-14.8795 255.063 -14.8125 255.118 -14.7326 255.144C-14.6527 255.17 -14.5659 255.165 -14.4898 255.129C-14.4118 255.09 -14.3523 255.022 -14.3242 254.94C-14.2961 254.858 -14.3017 254.767 -14.3398 254.689C-14.6398 254.119 -14.9198 253.539 -15.1898 252.949C-15.2181 252.898 -15.2603 252.855 -15.3117 252.827C-15.363 252.799 -15.4213 252.786 -15.4798 252.789ZM-13.7198 256.269C-13.7689 256.255 -13.8208 256.255 -13.8698 256.269C-13.9077 256.289 -13.9412 256.316 -13.9683 256.349C-13.9954 256.382 -14.0156 256.421 -14.0277 256.462C-14.0399 256.503 -14.0436 256.546 -14.0388 256.588C-14.0341 256.631 -14.0208 256.672 -13.9998 256.709C-13.6798 257.279 -13.3498 257.849 -12.9998 258.399C-12.9793 258.436 -12.9512 258.469 -12.9174 258.495C-12.8837 258.521 -12.845 258.539 -12.8037 258.55C-12.7625 258.56 -12.7195 258.562 -12.6776 258.555C-12.6356 258.548 -12.5955 258.532 -12.5598 258.509C-12.5237 258.487 -12.4921 258.459 -12.4669 258.425C-12.4418 258.391 -12.4236 258.353 -12.4134 258.312C-12.4032 258.271 -12.4011 258.229 -12.4074 258.187C-12.4136 258.145 -12.428 258.105 -12.4498 258.069C-12.7898 257.519 -13.1098 256.959 -13.4498 256.389C-13.4828 256.361 -13.5211 256.341 -13.5625 256.329C-13.6038 256.317 -13.6472 256.313 -13.6898 256.319L-13.7198 256.269ZM-11.7198 259.599C-11.7785 259.581 -11.8411 259.581 -11.8998 259.599C-11.9357 259.622 -11.9667 259.652 -11.9908 259.688C-12.0148 259.723 -12.0315 259.763 -12.0399 259.805C-12.0483 259.847 -12.0482 259.89 -12.0396 259.932C-12.031 259.974 -12.0141 260.014 -11.9898 260.049C-11.6198 260.589 -11.2498 261.129 -10.8598 261.659C-10.8082 261.726 -10.7326 261.771 -10.6488 261.784C-10.565 261.797 -10.4795 261.777 -10.4098 261.729C-10.3426 261.677 -10.2978 261.602 -10.2848 261.518C-10.2717 261.434 -10.2914 261.349 -10.3398 261.279C-10.7198 260.759 -11.0898 260.229 -11.4498 259.689C-11.5131 259.652 -11.5873 259.638 -11.6598 259.649L-11.7198 259.599ZM32.2802 261.809L31.8701 261.809C31.8281 261.812 31.787 261.822 31.7491 261.841C31.7113 261.859 31.6774 261.885 31.6496 261.917C31.6217 261.948 31.6003 261.985 31.5867 262.025C31.5731 262.065 31.5675 262.107 31.5702 262.149C31.5713 262.192 31.5813 262.233 31.5993 262.272C31.6173 262.31 31.6431 262.345 31.675 262.373C31.7068 262.401 31.7442 262.422 31.7846 262.435C31.8251 262.449 31.8679 262.453 31.9102 262.449C32.2927 262.414 32.6776 262.414 33.0602 262.449C33.2894 262.478 33.5165 262.521 33.7401 262.579C33.8236 262.601 33.9123 262.589 33.987 262.546C34.0618 262.503 34.1168 262.432 34.1402 262.349C34.1505 262.308 34.1525 262.265 34.146 262.222C34.1395 262.18 34.1247 262.14 34.1023 262.104C34.08 262.067 34.0506 262.036 34.0158 262.011C33.9811 261.986 33.9418 261.968 33.9002 261.959C33.6478 261.889 33.3904 261.839 33.1302 261.809C32.8828 261.814 32.6359 261.831 32.3902 261.859L32.2802 261.809ZM29.9802 262.199L29.8802 262.199C29.2305 262.427 28.6251 262.765 28.0902 263.199C28.0303 263.261 27.9968 263.343 27.9968 263.429C27.9968 263.515 28.0303 263.597 28.0902 263.659C28.12 263.69 28.1558 263.714 28.1953 263.731C28.2348 263.748 28.2772 263.757 28.3202 263.757C28.3631 263.757 28.4056 263.748 28.4451 263.731C28.4846 263.714 28.5204 263.69 28.5502 263.659C29.028 263.277 29.5651 262.977 30.1402 262.769C30.1804 262.756 30.2176 262.734 30.2495 262.706C30.2814 262.678 30.3075 262.644 30.3261 262.606C30.3447 262.568 30.3555 262.526 30.3579 262.484C30.3604 262.442 30.3543 262.399 30.3402 262.359C30.3088 262.324 30.2702 262.296 30.2271 262.277C30.184 262.258 30.1373 262.248 30.0902 262.249L29.9802 262.199ZM-9.46982 262.739C-9.54264 262.738 -9.61345 262.763 -9.66983 262.809C-9.72969 262.871 -9.76321 262.953 -9.76321 263.039C-9.76321 263.125 -9.72969 263.207 -9.66983 263.269C-9.25983 263.779 -8.82982 264.269 -8.40982 264.769C-8.34822 264.829 -8.26573 264.862 -8.17984 264.862C-8.09394 264.862 -8.01139 264.829 -7.9498 264.769C-7.88993 264.707 -7.85647 264.625 -7.85647 264.539C-7.85647 264.453 -7.88993 264.371 -7.9498 264.309C-8.3698 263.829 -8.78985 263.309 -9.18985 262.829C-9.24207 262.801 -9.30065 262.787 -9.35983 262.789L-9.46982 262.739ZM35.5902 262.789C35.5375 262.791 35.4859 262.804 35.4392 262.828C35.3924 262.852 35.3517 262.887 35.3202 262.929C35.2748 263.002 35.2599 263.09 35.2786 263.174C35.2973 263.258 35.3481 263.332 35.4202 263.379C35.936 263.722 36.4035 264.132 36.8102 264.599C36.8701 264.658 36.9509 264.692 37.0352 264.692C37.1194 264.692 37.2003 264.658 37.2602 264.599C37.32 264.537 37.3535 264.455 37.3535 264.369C37.3535 264.283 37.32 264.201 37.2602 264.139C36.8166 263.622 36.3014 263.171 35.7302 262.799C35.7204 262.795 35.7104 262.792 35.7002 262.789L35.5902 262.789ZM27.0602 264.639C27.0027 264.641 26.9467 264.657 26.8976 264.687C26.8485 264.717 26.808 264.759 26.7802 264.809C26.45 265.432 26.2365 266.11 26.1502 266.809C26.1446 266.851 26.1474 266.894 26.1585 266.935C26.1696 266.976 26.1888 267.014 26.2148 267.048C26.2409 267.081 26.2733 267.109 26.3103 267.13C26.3472 267.151 26.388 267.164 26.4301 267.169C26.5136 267.181 26.5982 267.159 26.6656 267.108C26.733 267.057 26.7778 266.982 26.7902 266.899C26.8731 266.292 27.0591 265.704 27.3402 265.159C27.3611 265.122 27.3744 265.081 27.3792 265.038C27.384 264.996 27.3802 264.953 27.3681 264.912C27.356 264.871 27.3358 264.832 27.3086 264.799C27.2815 264.766 27.248 264.739 27.2102 264.719C27.1975 264.708 27.1841 264.698 27.1702 264.689L27.0602 264.639ZM-6.8898 265.639C-6.97523 265.638 -7.05771 265.67 -7.11984 265.729C-7.17971 265.791 -7.21316 265.873 -7.21316 265.959C-7.21316 266.045 -7.17971 266.127 -7.11984 266.189C-6.65984 266.659 -6.18982 267.119 -5.71982 267.569C-5.65822 267.629 -5.57573 267.662 -5.48984 267.662C-5.40394 267.662 -5.32145 267.629 -5.25986 267.569C-5.20062 267.509 -5.16739 267.428 -5.16739 267.344C-5.16739 267.26 -5.20062 267.179 -5.25986 267.119C-5.71986 266.679 -6.17985 266.219 -6.62985 265.759C-6.67548 265.733 -6.72717 265.719 -6.77981 265.719L-6.8898 265.639ZM38.1102 265.639C38.0606 265.63 38.0097 265.63 37.9602 265.639C37.8857 265.681 37.83 265.75 37.804 265.832C37.7781 265.913 37.7838 266.002 37.8202 266.079C38.1018 266.636 38.3069 267.228 38.4301 267.839C38.4395 267.881 38.4572 267.92 38.482 267.955C38.5068 267.989 38.5383 268.019 38.5746 268.041C38.611 268.064 38.6514 268.078 38.6936 268.085C38.7357 268.091 38.7788 268.089 38.8202 268.079C38.8616 268.071 38.9011 268.054 38.9361 268.031C38.9712 268.007 39.0012 267.977 39.0244 267.941C39.0477 267.906 39.0637 267.866 39.0716 267.825C39.0794 267.783 39.0789 267.74 39.0702 267.699C38.9251 267.038 38.7001 266.396 38.4002 265.789C38.352 265.759 38.2969 265.742 38.2401 265.739L38.1102 265.639ZM-4.0798 268.289C-4.12533 268.289 -4.17031 268.299 -4.2117 268.318C-4.25309 268.337 -4.28998 268.365 -4.31985 268.399C-4.37972 268.461 -4.41318 268.543 -4.41318 268.629C-4.41318 268.715 -4.37972 268.797 -4.31985 268.859L-3.71982 269.359L-2.78982 270.089C-2.72068 270.142 -2.63362 270.165 -2.54751 270.154C-2.4614 270.142 -2.38316 270.098 -2.3298 270.029C-2.28032 269.961 -2.25901 269.876 -2.27017 269.792C-2.28133 269.708 -2.32412 269.632 -2.3898 269.579L-3.30984 268.859L-3.89981 268.359C-3.91738 268.367 -3.93411 268.378 -3.9498 268.389L-4.0798 268.289ZM26.4402 268.379C26.3543 268.389 26.2758 268.432 26.2216 268.5C26.1674 268.567 26.1417 268.653 26.1502 268.739C26.2265 269.418 26.3671 270.087 26.5702 270.739C26.5817 270.78 26.6012 270.818 26.6276 270.851C26.654 270.885 26.6868 270.912 26.724 270.933C26.7613 270.953 26.8022 270.966 26.8445 270.971C26.8867 270.975 26.9295 270.971 26.9702 270.959C27.011 270.948 27.049 270.928 27.0819 270.902C27.1149 270.875 27.142 270.842 27.1617 270.804C27.1813 270.767 27.1931 270.726 27.1963 270.684C27.1995 270.641 27.194 270.599 27.1801 270.559C26.9989 269.954 26.8685 269.336 26.7902 268.709C26.7768 268.655 26.7494 268.605 26.7108 268.565C26.6722 268.524 26.6237 268.495 26.5702 268.479L26.4402 268.379ZM38.8902 269.379C38.8087 269.379 38.7302 269.41 38.6707 269.466C38.6112 269.521 38.5753 269.598 38.5702 269.679C38.5241 270.294 38.3824 270.898 38.1502 271.469C38.1337 271.508 38.125 271.549 38.1247 271.591C38.1243 271.634 38.1323 271.675 38.148 271.714C38.1638 271.753 38.1872 271.789 38.2167 271.819C38.2462 271.849 38.2814 271.873 38.3202 271.889C38.3589 271.906 38.4005 271.914 38.4426 271.915C38.4847 271.915 38.5264 271.907 38.5655 271.891C38.6045 271.875 38.64 271.852 38.67 271.823C38.6999 271.793 38.7238 271.758 38.7401 271.719C39.0052 271.083 39.164 270.407 39.2102 269.719C39.2143 269.676 39.2097 269.633 39.1967 269.592C39.1838 269.551 39.1626 269.513 39.1346 269.48C39.1066 269.448 39.0723 269.421 39.0337 269.402C38.9952 269.383 38.9532 269.372 38.9102 269.369L38.8902 269.379ZM-0.849821 270.789C-0.902908 270.788 -0.955397 270.8 -1.00253 270.825C-1.04967 270.849 -1.08998 270.885 -1.11984 270.929C-1.16717 271 -1.18523 271.086 -1.17032 271.17C-1.15541 271.254 -1.10866 271.329 -1.03982 271.379C-0.499822 271.749 0.0602019 272.109 0.610201 272.449C0.684624 272.494 0.773497 272.507 0.857699 272.486C0.9419 272.466 1.01462 272.413 1.06015 272.339C1.08191 272.303 1.09632 272.263 1.10257 272.221C1.10882 272.18 1.10681 272.137 1.09659 272.096C1.08637 272.055 1.06819 272.017 1.04306 271.983C1.01794 271.949 0.986351 271.921 0.950167 271.899C0.4035 271.559 -0.136495 271.209 -0.669828 270.849C-0.722383 270.811 -0.785135 270.79 -0.849821 270.789ZM27.6502 272.239C27.6074 272.229 27.5629 272.229 27.5202 272.239C27.4411 272.274 27.3791 272.339 27.3473 272.419C27.3155 272.5 27.3165 272.589 27.3502 272.669C27.6002 273.239 27.8902 273.839 28.2202 274.439C28.2401 274.477 28.2674 274.51 28.3004 274.538C28.3335 274.565 28.3717 274.585 28.4127 274.597C28.4537 274.609 28.4968 274.613 28.5393 274.608C28.5818 274.603 28.6229 274.59 28.6602 274.569C28.7347 274.527 28.7899 274.457 28.8141 274.375C28.8384 274.293 28.8298 274.205 28.7902 274.129C28.4702 273.549 28.1802 272.969 27.9402 272.409C27.9167 272.351 27.8767 272.301 27.8252 272.266C27.7736 272.23 27.7128 272.21 27.6502 272.209L27.6502 272.239ZM2.52017 272.789C2.46083 272.788 2.40226 272.803 2.35105 272.833C2.29983 272.863 2.25801 272.907 2.2302 272.959C2.19056 273.035 2.18195 273.123 2.20621 273.205C2.23047 273.287 2.28569 273.357 2.3602 273.399C2.9302 273.709 3.5202 274.009 4.1102 274.299C4.14824 274.318 4.18956 274.329 4.23184 274.331C4.27413 274.334 4.31654 274.328 4.35654 274.314C4.39654 274.3 4.43335 274.278 4.46488 274.25C4.4964 274.222 4.52202 274.187 4.54019 274.149C4.55885 274.111 4.56975 274.07 4.5723 274.027C4.57485 273.985 4.56898 273.943 4.55503 273.903C4.54107 273.863 4.5193 273.826 4.491 273.794C4.4627 273.763 4.42844 273.737 4.39017 273.719C3.81017 273.439 3.2302 273.139 2.6702 272.829C2.62497 272.802 2.57294 272.788 2.52017 272.789ZM37.6002 273.039C37.5523 273.04 37.5051 273.051 37.4619 273.072C37.4188 273.092 37.3807 273.122 37.3502 273.159C36.9459 273.632 36.4896 274.058 35.9901 274.429C35.9546 274.453 35.9245 274.484 35.9015 274.52C35.8786 274.556 35.8633 274.596 35.8567 274.639C35.8501 274.681 35.8524 274.724 35.8633 274.766C35.8742 274.807 35.8936 274.846 35.9202 274.879C35.9441 274.915 35.975 274.945 36.0111 274.968C36.0472 274.991 36.0876 275.006 36.1299 275.013C36.1721 275.019 36.2153 275.017 36.2566 275.006C36.298 274.995 36.3366 274.976 36.3702 274.949C36.9144 274.547 37.411 274.084 37.8502 273.569C37.9071 273.508 37.9388 273.428 37.9388 273.344C37.9388 273.261 37.9071 273.18 37.8502 273.119C37.806 273.08 37.7524 273.053 37.6945 273.04C37.6366 273.028 37.5765 273.031 37.5202 273.049L37.6002 273.039ZM6.02017 274.489C5.95673 274.492 5.89529 274.512 5.84244 274.547C5.78959 274.583 5.74734 274.632 5.72019 274.689C5.70372 274.728 5.69504 274.769 5.69467 274.811C5.69431 274.854 5.70226 274.895 5.71805 274.934C5.73384 274.973 5.75718 275.009 5.78672 275.039C5.81625 275.069 5.8514 275.093 5.89017 275.109C6.50017 275.369 7.11019 275.609 7.72019 275.839C7.80114 275.868 7.89037 275.865 7.96884 275.83C8.04732 275.794 8.1088 275.729 8.14017 275.649C8.16905 275.567 8.16421 275.477 8.12674 275.398C8.08927 275.319 8.0222 275.258 7.94016 275.229C7.34016 275.009 6.74018 274.769 6.15018 274.519C6.09351 274.495 6.03084 274.488 5.97019 274.499L6.02017 274.489ZM34.5102 275.369C34.4646 275.354 34.4157 275.354 34.3702 275.369C33.7976 275.645 33.2101 275.889 32.6102 276.099C32.5699 276.113 32.5327 276.134 32.5008 276.162C32.4689 276.19 32.4429 276.224 32.4243 276.262C32.4057 276.3 32.3949 276.342 32.3924 276.384C32.39 276.427 32.396 276.469 32.4102 276.509C32.4237 276.549 32.4451 276.586 32.4731 276.618C32.5011 276.65 32.5351 276.676 32.5733 276.695C32.6114 276.714 32.6529 276.724 32.6953 276.727C32.7377 276.729 32.7801 276.723 32.8202 276.709C33.4474 276.491 34.0617 276.237 34.6602 275.949C34.7364 275.909 34.7937 275.84 34.8199 275.758C34.8461 275.675 34.839 275.586 34.8002 275.509C34.7635 275.455 34.7112 275.414 34.6505 275.391C34.5897 275.368 34.5233 275.364 34.4602 275.379L34.5102 275.369ZM29.5102 275.639C29.4494 275.635 29.3892 275.653 29.3402 275.689C29.3038 275.71 29.2721 275.739 29.2472 275.773C29.2222 275.807 29.2046 275.846 29.1952 275.887C29.1859 275.929 29.185 275.971 29.1927 276.013C29.2005 276.054 29.2166 276.094 29.2401 276.129C29.4001 276.389 29.5701 276.639 29.7401 276.909L28.8502 277.089C28.7667 277.104 28.6924 277.151 28.6436 277.22C28.5949 277.29 28.5757 277.376 28.5902 277.459C28.5974 277.501 28.613 277.542 28.6361 277.578C28.6593 277.614 28.6895 277.645 28.725 277.67C28.7605 277.694 28.8004 277.711 28.8426 277.719C28.8847 277.728 28.9281 277.728 28.9702 277.719C29.3602 277.649 29.7502 277.569 30.1302 277.479L30.3302 277.759C30.3542 277.794 30.385 277.824 30.4207 277.847C30.4565 277.87 30.4965 277.886 30.5384 277.894C30.5803 277.901 30.6232 277.9 30.6648 277.891C30.7063 277.881 30.7455 277.864 30.7802 277.839C30.8153 277.815 30.8453 277.784 30.8684 277.749C30.8915 277.713 30.9073 277.673 30.9147 277.631C30.9222 277.589 30.9211 277.546 30.9118 277.504C30.9024 277.463 30.8849 277.424 30.8602 277.389L30.8102 277.319L30.8902 277.319C30.9736 277.296 31.045 277.241 31.0896 277.167C31.1342 277.092 31.1487 277.004 31.1302 276.919C31.1046 276.837 31.0493 276.768 30.9752 276.726C30.9011 276.683 30.8136 276.67 30.7302 276.689L30.4202 276.759C30.1902 276.439 29.9802 276.109 29.7802 275.759C29.7486 275.721 29.7086 275.692 29.6634 275.673C29.6182 275.654 29.5691 275.645 29.5202 275.649L29.5102 275.639ZM9.65018 275.849C9.58142 275.846 9.51362 275.866 9.45749 275.906C9.40136 275.946 9.3601 276.003 9.34018 276.069C9.31482 276.151 9.32256 276.24 9.36179 276.317C9.40102 276.393 9.46865 276.452 9.5502 276.479C10.1702 276.669 10.8102 276.859 11.4402 277.019C11.4809 277.031 11.5236 277.035 11.5658 277.029C11.6079 277.024 11.6485 277.01 11.6851 276.989C11.7217 276.967 11.7534 276.938 11.7784 276.904C11.8033 276.87 11.8209 276.83 11.8302 276.789C11.8407 276.748 11.8431 276.706 11.8373 276.664C11.8314 276.623 11.8174 276.583 11.796 276.546C11.7746 276.51 11.7463 276.479 11.7127 276.453C11.6791 276.428 11.6409 276.41 11.6002 276.399C10.9802 276.239 10.3601 276.049 9.74015 275.859L9.65018 275.849ZM13.4102 276.849C13.3359 276.848 13.2638 276.874 13.2069 276.922C13.15 276.969 13.1122 277.036 13.1002 277.109C13.0914 277.15 13.0909 277.193 13.0988 277.235C13.1066 277.276 13.1227 277.316 13.1459 277.351C13.1692 277.387 13.1992 277.417 13.2342 277.441C13.2693 277.464 13.3087 277.481 13.3502 277.489C13.9902 277.629 14.6402 277.749 15.2802 277.849C15.3637 277.864 15.4496 277.844 15.519 277.796C15.5883 277.747 15.6355 277.673 15.6502 277.589C15.6588 277.547 15.6584 277.503 15.6493 277.461C15.6401 277.419 15.6222 277.379 15.5968 277.344C15.5714 277.31 15.539 277.281 15.5017 277.259C15.4644 277.237 15.423 277.224 15.3802 277.219C14.7502 277.109 14.1102 276.989 13.4802 276.859L13.4102 276.849ZM26.9802 277.399C26.3502 277.489 25.7002 277.559 25.0602 277.609C24.9744 277.617 24.895 277.658 24.839 277.723C24.7829 277.788 24.7546 277.873 24.7602 277.959C24.7639 278.001 24.776 278.042 24.7957 278.079C24.8154 278.117 24.8422 278.15 24.8747 278.177C24.9073 278.204 24.9449 278.224 24.9853 278.237C25.0257 278.249 25.0681 278.253 25.1102 278.249C25.7602 278.249 26.4202 278.129 27.1102 278.039C27.152 278.034 27.1924 278.021 27.2289 278C27.2654 277.979 27.2973 277.951 27.3226 277.917C27.3479 277.883 27.366 277.845 27.3759 277.804C27.3858 277.763 27.3872 277.721 27.3802 277.679C27.3766 277.631 27.3619 277.583 27.3374 277.541C27.3128 277.499 27.2791 277.463 27.2386 277.436C27.1981 277.409 27.1519 277.392 27.1037 277.386C27.0554 277.379 27.0064 277.384 26.9602 277.399L26.9802 277.399ZM17.2602 277.479C17.1802 277.479 17.1031 277.508 17.0439 277.562C16.9846 277.616 16.9476 277.69 16.9402 277.769C16.9317 277.852 16.9563 277.936 17.0086 278.001C17.061 278.067 17.137 278.109 17.2202 278.119C17.8702 278.199 18.5302 278.259 19.2202 278.299C19.2622 278.302 19.3044 278.296 19.3443 278.283C19.3841 278.269 19.4209 278.248 19.4525 278.22C19.4841 278.192 19.5099 278.158 19.5284 278.12C19.5468 278.082 19.5576 278.041 19.5602 277.999C19.5643 277.957 19.5597 277.914 19.5466 277.874C19.5335 277.833 19.5122 277.796 19.4841 277.764C19.456 277.732 19.4215 277.706 19.383 277.688C19.3445 277.67 19.3027 277.66 19.2602 277.659C18.6202 277.609 17.9702 277.559 17.3402 277.479L17.2602 277.479ZM23.1002 277.719C22.4502 277.719 21.8102 277.719 21.1602 277.719C21.1186 277.718 21.0773 277.725 21.0385 277.74C20.9997 277.755 20.9643 277.777 20.9345 277.806C20.9046 277.835 20.8809 277.87 20.8647 277.908C20.8485 277.946 20.8402 277.987 20.8402 278.029C20.8388 278.071 20.8458 278.113 20.8607 278.152C20.8756 278.192 20.898 278.228 20.9268 278.258C20.9556 278.289 20.9901 278.314 21.0285 278.331C21.0668 278.348 21.1081 278.358 21.1502 278.359C21.8102 278.359 22.4602 278.359 23.1502 278.359C23.1931 278.358 23.2353 278.348 23.2743 278.33C23.3133 278.312 23.3484 278.287 23.3773 278.255C23.4062 278.223 23.4284 278.186 23.4427 278.145C23.4569 278.105 23.4629 278.062 23.4602 278.019C23.4581 277.973 23.4462 277.928 23.4253 277.887C23.4043 277.847 23.3748 277.811 23.3388 277.782C23.3027 277.754 23.261 277.733 23.2163 277.722C23.1717 277.712 23.1253 277.71 23.0802 277.719L23.1002 277.719ZM31.7502 278.829C31.6773 278.828 31.6066 278.853 31.5502 278.899C31.491 278.959 31.4577 279.04 31.4577 279.124C31.4577 279.208 31.491 279.289 31.5502 279.349C31.9502 279.869 32.3702 280.349 32.7902 280.879C32.8501 280.938 32.9309 280.972 33.0152 280.972C33.0994 280.972 33.1802 280.938 33.2401 280.879C33.3 280.817 33.3335 280.735 33.3335 280.649C33.3335 280.563 33.3 280.481 33.2401 280.419C32.8301 279.939 32.4102 279.419 32.0202 278.929C31.9885 278.882 31.945 278.845 31.8941 278.82C31.8431 278.795 31.7866 278.785 31.7302 278.789L31.7502 278.829ZM34.2902 281.829C34.2494 281.829 34.2089 281.837 34.1712 281.852C34.1334 281.868 34.0991 281.89 34.0702 281.919C34.0396 281.948 34.0153 281.983 33.9986 282.022C33.982 282.06 33.9734 282.102 33.9734 282.144C33.9734 282.186 33.982 282.228 33.9986 282.267C34.0153 282.305 34.0396 282.34 34.0702 282.369C34.5202 282.849 34.9902 283.309 35.4702 283.749C35.4992 283.78 35.534 283.804 35.5727 283.821C35.6114 283.837 35.6531 283.846 35.6952 283.846C35.7373 283.846 35.779 283.837 35.8177 283.821C35.8563 283.804 35.8912 283.78 35.9202 283.749C35.951 283.719 35.9755 283.683 35.9923 283.644C36.009 283.604 36.0177 283.562 36.0177 283.519C36.0177 283.476 36.009 283.434 35.9923 283.394C35.9755 283.355 35.951 283.319 35.9202 283.289C35.4502 282.859 34.9902 282.399 34.5402 281.939C34.5139 281.891 34.4746 281.852 34.4268 281.825C34.379 281.799 34.3247 281.786 34.2702 281.789L34.2902 281.829ZM37.1402 284.479C37.0456 284.481 36.9558 284.521 36.8902 284.589C36.8303 284.651 36.7968 284.733 36.7968 284.819C36.7968 284.905 36.8303 284.987 36.8902 285.049C37.4002 285.469 37.8902 285.869 38.4502 286.249C38.4848 286.274 38.5241 286.291 38.5656 286.301C38.6071 286.31 38.6501 286.311 38.692 286.304C38.7339 286.296 38.7739 286.28 38.8096 286.257C38.8454 286.234 38.8762 286.204 38.9002 286.169C38.9254 286.135 38.9436 286.096 38.9537 286.055C38.9638 286.014 38.9657 285.971 38.9592 285.929C38.9527 285.888 38.938 285.847 38.9158 285.811C38.8937 285.775 38.8645 285.744 38.8302 285.719C38.3102 285.346 37.8002 284.956 37.3002 284.549C37.2549 284.492 37.1912 284.454 37.1202 284.439L37.1402 284.479ZM40.3102 286.739C40.2561 286.739 40.2031 286.753 40.1559 286.779C40.1086 286.806 40.0689 286.843 40.0402 286.889C39.9948 286.962 39.9799 287.05 39.9986 287.134C40.0173 287.219 40.0681 287.292 40.1402 287.339C40.7002 287.679 41.2802 288.009 41.8602 288.339C41.9373 288.378 42.0265 288.385 42.1087 288.359C42.191 288.333 42.2597 288.275 42.3002 288.199C42.3386 288.123 42.3454 288.036 42.3191 287.955C42.2929 287.874 42.2357 287.808 42.1602 287.769C41.5902 287.469 41.0302 287.149 40.4802 286.769C40.4548 286.745 40.4249 286.727 40.3922 286.715C40.3596 286.703 40.3249 286.697 40.2902 286.699L40.3102 286.739ZM43.7702 288.539C43.707 288.538 43.6448 288.555 43.5914 288.589C43.538 288.622 43.4958 288.671 43.4702 288.729C43.4537 288.768 43.445 288.809 43.4447 288.851C43.4443 288.894 43.4523 288.935 43.468 288.974C43.4838 289.013 43.5072 289.049 43.5367 289.079C43.5663 289.109 43.6014 289.133 43.6402 289.149C44.2402 289.409 44.8602 289.649 45.4802 289.869C45.5202 289.883 45.5626 289.889 45.605 289.887C45.6474 289.884 45.6889 289.874 45.7271 289.855C45.7652 289.836 45.7993 289.81 45.8273 289.778C45.8553 289.746 45.8767 289.709 45.8902 289.669C45.9043 289.629 45.9104 289.587 45.9079 289.544C45.9055 289.502 45.8947 289.46 45.8761 289.422C45.8575 289.384 45.8314 289.35 45.7995 289.322C45.7676 289.294 45.7304 289.273 45.6902 289.259C45.0902 289.049 44.4802 288.809 43.9002 288.559C43.8561 288.527 43.8045 288.506 43.7502 288.499L43.7702 288.539ZM68.6702 289.339L68.6002 289.339L66.7002 289.739C66.6578 289.746 66.6173 289.762 66.5811 289.785C66.545 289.808 66.5138 289.838 66.4895 289.874C66.4653 289.909 66.4484 289.949 66.4399 289.991C66.4314 290.034 66.4315 290.077 66.4402 290.119C66.4593 290.202 66.5095 290.273 66.5802 290.32C66.651 290.367 66.7368 290.384 66.8202 290.369C67.4602 290.249 68.1001 290.109 68.7401 289.969C68.8226 289.95 68.8945 289.9 68.9411 289.829C68.9876 289.758 69.0052 289.672 68.9901 289.589C68.9781 289.508 68.937 289.434 68.8745 289.38C68.812 289.327 68.7323 289.298 68.6502 289.299L68.6702 289.339ZM47.4502 289.819C47.3775 289.817 47.3062 289.839 47.2481 289.883C47.1899 289.927 47.1483 289.989 47.1302 290.059C47.1196 290.1 47.1173 290.142 47.1231 290.184C47.129 290.225 47.143 290.266 47.1643 290.302C47.1857 290.338 47.214 290.37 47.2476 290.395C47.2812 290.42 47.3195 290.439 47.3602 290.449C47.9902 290.619 48.6302 290.779 49.2802 290.909C49.3649 290.924 49.452 290.905 49.523 290.856C49.594 290.808 49.6432 290.733 49.6602 290.649C49.6752 290.566 49.6576 290.48 49.6111 290.409C49.5646 290.338 49.4926 290.288 49.4102 290.269C48.7702 290.149 48.1402 289.999 47.5302 289.829L47.4502 289.819ZM64.8502 290.099L64.7902 290.099C64.1235 290.212 63.4835 290.312 62.8701 290.399C62.786 290.414 62.7109 290.461 62.6606 290.53C62.6102 290.599 62.5886 290.684 62.6002 290.769C62.605 290.811 62.6183 290.851 62.6393 290.888C62.6602 290.924 62.6885 290.956 62.7221 290.981C62.7558 291.007 62.7943 291.025 62.8352 291.035C62.8762 291.045 62.9187 291.046 62.9602 291.039C63.6102 290.949 64.2502 290.849 64.9002 290.739C64.9837 290.724 65.058 290.677 65.1067 290.608C65.1555 290.538 65.1747 290.453 65.1602 290.369C65.1603 290.327 65.1516 290.285 65.1348 290.246C65.118 290.207 65.0933 290.172 65.0624 290.142C65.0315 290.113 64.9949 290.091 64.9549 290.077C64.915 290.062 64.8725 290.056 64.8302 290.059L64.8502 290.099ZM51.2602 290.589C51.1824 290.591 51.1076 290.619 51.049 290.671C50.9905 290.722 50.9519 290.792 50.9402 290.869C50.9346 290.911 50.9374 290.954 50.9485 290.995C50.9596 291.036 50.9787 291.074 51.0048 291.108C51.0308 291.141 51.0633 291.169 51.1003 291.19C51.1373 291.211 51.178 291.224 51.2202 291.229C51.8602 291.319 52.5202 291.389 53.2202 291.439C53.2617 291.443 53.3036 291.439 53.3434 291.426C53.3832 291.414 53.4201 291.393 53.4519 291.366C53.4836 291.339 53.5096 291.306 53.5282 291.269C53.5468 291.231 53.5577 291.191 53.5602 291.149C53.5643 291.107 53.5601 291.065 53.5477 291.024C53.5353 290.984 53.5151 290.946 53.4881 290.914C53.4612 290.881 53.428 290.854 53.3906 290.835C53.3532 290.815 53.3123 290.803 53.2702 290.799C52.6202 290.749 51.9702 290.679 51.3502 290.589L51.2602 290.589ZM60.9901 290.639C60.3501 290.709 59.7001 290.759 59.0602 290.809C59.0181 290.812 58.977 290.822 58.9391 290.841C58.9013 290.859 58.8674 290.885 58.8396 290.917C58.8117 290.948 58.7903 290.985 58.7767 291.025C58.7631 291.065 58.7575 291.107 58.7602 291.149C58.7627 291.192 58.7738 291.234 58.7929 291.273C58.812 291.311 58.8387 291.345 58.8714 291.373C58.904 291.401 58.942 291.423 58.9831 291.436C59.0241 291.449 59.0674 291.453 59.1102 291.449C59.7602 291.449 60.4102 291.349 61.1102 291.279C61.1523 291.275 61.1932 291.263 61.2306 291.244C61.268 291.224 61.3011 291.197 61.3281 291.164C61.3551 291.132 61.3753 291.094 61.3877 291.054C61.4 291.014 61.4043 290.971 61.4002 290.929C61.4053 290.875 61.3966 290.821 61.3749 290.771C61.3533 290.721 61.3194 290.678 61.2764 290.645C61.2334 290.612 61.1828 290.591 61.1292 290.583C61.0757 290.575 61.021 290.58 60.9702 290.599L60.9901 290.639ZM55.1502 290.899C55.066 290.899 54.985 290.931 54.9236 290.989C54.8623 291.046 54.8253 291.125 54.8202 291.209C54.8188 291.252 54.8261 291.295 54.8416 291.335C54.8571 291.375 54.8805 291.411 54.9103 291.442C54.9402 291.473 54.9759 291.497 55.0154 291.514C55.0548 291.53 55.0973 291.539 55.1402 291.539C55.7902 291.539 56.4502 291.539 57.1402 291.539C57.183 291.539 57.2255 291.53 57.265 291.514C57.3045 291.497 57.3402 291.473 57.3701 291.442C57.3999 291.411 57.4233 291.375 57.4388 291.335C57.4542 291.295 57.4615 291.252 57.4602 291.209C57.4576 291.126 57.4227 291.047 57.363 290.989C57.3033 290.931 57.2233 290.899 57.1402 290.899L55.1902 290.899L55.1502 290.899Z" fill="#999999"/>
<path d="M105.11 342.929L107.93 341.709L119.2 349.569L122.2 347.909C124.61 346.469 126.95 346.369 128.07 347.009L128.3 346.899C130.04 346.139 131.07 346.819 131.42 347.639C131.77 348.459 131.57 349.639 129.83 350.419L129.6 350.519C129.39 351.519 128.48 353.199 124.93 354.189L121.66 355.239L119.66 368.829L116.84 370.059L114.65 357.469L106.59 360.229L105.37 363.459L103.13 364.289L102.97 361.289L102.17 361.359L101.44 359.689L102.04 359.099L99.9204 356.899L102.06 355.829L105.24 357.149L112.77 353.149L105.11 342.929ZM105.32 357.879L102.12 356.549L101.12 357.069L103.06 359.069L102.33 359.809L102.67 360.599L103.67 360.509L103.82 363.309L104.91 362.909L106.13 359.669L115.25 356.559L117.42 369.069L119.11 368.339L121.06 354.699L124.75 353.519C128.19 352.569 128.87 351.029 128.97 350.199L128.97 349.989L129.17 349.919C129.297 349.882 129.421 349.836 129.54 349.779C130.61 349.319 131.09 348.589 130.78 347.889C130.47 347.189 129.62 347.029 128.55 347.499C128.43 347.547 128.313 347.604 128.2 347.669L128.01 347.779L127.83 347.649C127.1 347.109 124.97 347.009 122.51 348.469L119.15 350.349L107.85 342.459L106.16 343.189L113.82 353.329L105.32 357.879Z" fill="#999999"/>
<path d="M8.33016 258.999C8.27597 258.998 8.22251 259.012 8.17513 259.038C8.12776 259.064 8.08811 259.103 8.06014 259.149C7.70014 259.696 7.36681 260.246 7.06014 260.799C7.01479 260.872 6.9999 260.96 7.01858 261.044C7.03726 261.129 7.08808 261.202 7.16018 261.249C7.2346 261.294 7.32354 261.307 7.40774 261.286C7.49194 261.266 7.56466 261.213 7.61019 261.139C7.95019 260.589 8.29019 260.049 8.61019 259.499C8.63443 259.464 8.65134 259.424 8.65994 259.382C8.66854 259.34 8.66863 259.297 8.66024 259.255C8.65185 259.213 8.63511 259.173 8.61105 259.138C8.58699 259.102 8.5561 259.072 8.52017 259.049C8.46182 259.017 8.39661 259 8.33016 258.999ZM6.33016 262.319C6.2737 262.32 6.2183 262.335 6.16928 262.363C6.12025 262.391 6.07928 262.431 6.0502 262.479C5.7302 263.049 5.4102 263.619 5.0502 264.189C5.00972 264.264 4.99958 264.351 5.02194 264.433C5.04429 264.515 5.0974 264.585 5.17019 264.629C5.24607 264.669 5.33437 264.677 5.41647 264.653C5.49857 264.629 5.56804 264.574 5.61019 264.499C5.92019 263.929 6.24015 263.369 6.56014 262.809C6.60458 262.735 6.61796 262.646 6.59738 262.562C6.57679 262.477 6.52392 262.405 6.45016 262.359C6.39811 262.331 6.33941 262.317 6.28018 262.319L6.33016 262.319ZM4.47018 265.739C4.41003 265.74 4.35119 265.757 4.30007 265.789C4.24896 265.82 4.20748 265.865 4.18014 265.919C3.88014 266.499 3.59014 267.089 3.31015 267.669C3.29149 267.707 3.28059 267.748 3.27804 267.791C3.27549 267.833 3.28136 267.875 3.29531 267.915C3.30927 267.955 3.33104 267.992 3.35934 268.024C3.38764 268.055 3.4219 268.081 3.46017 268.099C3.4982 268.118 3.53959 268.129 3.58187 268.131C3.62416 268.134 3.66651 268.128 3.70651 268.114C3.74651 268.1 3.78332 268.078 3.81484 268.05C3.84637 268.022 3.87199 267.987 3.89016 267.949C4.17016 267.369 4.46016 266.789 4.76016 266.209C4.77882 266.171 4.78977 266.13 4.79232 266.087C4.79487 266.045 4.789 266.003 4.77505 265.963C4.7611 265.923 4.73932 265.886 4.71102 265.854C4.68272 265.823 4.64846 265.797 4.61019 265.779C4.58336 265.759 4.55244 265.745 4.51962 265.738C4.4868 265.731 4.45286 265.731 4.42019 265.739L4.47018 265.739ZM2.78018 269.259C2.71752 269.26 2.65636 269.278 2.60342 269.312C2.55048 269.345 2.50783 269.393 2.48019 269.449L1.70016 271.239C1.66711 271.32 1.66751 271.411 1.70126 271.491C1.735 271.572 1.79933 271.636 1.88015 271.669C1.95986 271.699 2.04809 271.697 2.12637 271.664C2.20464 271.63 2.26694 271.567 2.3002 271.489C2.5502 270.899 2.81015 270.309 3.07016 269.709C3.08832 269.671 3.09862 269.63 3.10037 269.588C3.10211 269.546 3.09525 269.504 3.08029 269.465C3.06532 269.425 3.04252 269.39 3.01327 269.359C2.98402 269.329 2.94897 269.305 2.91018 269.289C2.85455 269.261 2.79184 269.251 2.73019 269.259L2.78018 269.259ZM1.27017 272.849C1.20615 272.85 1.14369 272.869 1.09042 272.904C1.03715 272.94 0.995396 272.99 0.97018 273.049C0.73018 273.669 0.500168 274.279 0.270168 274.889C0.256024 274.929 0.249983 274.972 0.252407 275.014C0.25483 275.056 0.265653 275.098 0.284267 275.136C0.302881 275.174 0.328892 275.208 0.360805 275.236C0.392718 275.264 0.429925 275.286 0.47018 275.299C0.549867 275.325 0.636622 275.321 0.712795 275.285C0.788968 275.25 0.848803 275.187 0.880153 275.109C1.10015 274.499 1.33016 273.899 1.57016 273.289C1.60014 273.209 1.59815 273.121 1.5646 273.043C1.53105 272.965 1.46856 272.902 1.39016 272.869L1.27017 272.849ZM-0.069859 276.509C-0.136555 276.51 -0.201312 276.532 -0.255101 276.571C-0.308889 276.61 -0.349008 276.666 -0.369847 276.729C-0.589846 277.349 -0.789832 277.969 -0.979832 278.589C-1.0052 278.671 -0.997454 278.76 -0.958225 278.837C-0.918997 278.913 -0.85136 278.972 -0.76981 278.999C-0.68758 279.024 -0.598719 279.017 -0.522129 278.977C-0.445539 278.938 -0.387306 278.871 -0.359837 278.789C-0.169837 278.169 0.0301386 277.559 0.240139 276.939C0.265502 276.857 0.257761 276.768 0.218532 276.691C0.179303 276.615 0.111728 276.557 0.0301777 276.529L-0.069859 276.509ZM-1.22983 280.229C-1.30037 280.231 -1.36856 280.255 -1.42435 280.298C-1.48014 280.341 -1.5206 280.401 -1.53983 280.469C-1.71983 281.099 -1.89985 281.729 -2.05985 282.349C-2.08138 282.433 -2.06933 282.521 -2.02634 282.596C-1.98335 282.671 -1.91281 282.726 -1.82981 282.749C-1.7891 282.76 -1.74675 282.762 -1.70511 282.756C-1.66347 282.75 -1.62341 282.736 -1.58719 282.715C-1.55097 282.694 -1.51927 282.665 -1.49399 282.632C-1.46871 282.598 -1.45034 282.56 -1.43985 282.519C-1.26985 281.899 -1.09983 281.269 -0.919834 280.649C-0.907628 280.608 -0.90363 280.566 -0.908115 280.523C-0.912601 280.481 -0.925478 280.44 -0.945957 280.403C-0.966437 280.366 -0.994152 280.333 -1.02744 280.306C-1.06073 280.28 -1.09889 280.261 -1.1398 280.249L-1.22983 280.229ZM-2.22983 283.999C-2.30168 284.001 -2.37084 284.027 -2.42679 284.072C-2.48275 284.117 -2.52244 284.179 -2.53983 284.249C-2.68983 284.889 -2.83982 285.529 -2.96982 286.159C-2.98012 286.2 -2.98205 286.242 -2.97544 286.284C-2.96883 286.325 -2.95382 286.365 -2.93137 286.401C-2.90892 286.436 -2.87947 286.467 -2.84482 286.491C-2.81017 286.514 -2.77106 286.531 -2.72983 286.539C-2.68845 286.549 -2.64541 286.551 -2.60324 286.545C-2.56108 286.538 -2.52062 286.524 -2.48429 286.501C-2.44795 286.479 -2.41644 286.449 -2.39164 286.415C-2.36683 286.38 -2.3492 286.341 -2.33982 286.299C-2.20982 285.669 -2.05982 285.039 -1.90982 284.399C-1.89159 284.316 -1.90645 284.228 -1.95121 284.156C-1.99596 284.083 -2.06712 284.03 -2.14981 284.009L-2.22983 283.999ZM-3.04984 287.819C-3.12527 287.818 -3.19875 287.843 -3.2573 287.891C-3.31585 287.938 -3.35571 288.005 -3.36985 288.079C-3.48985 288.719 -3.60982 289.359 -3.71982 289.999C-3.73434 290.083 -3.7151 290.168 -3.66635 290.238C-3.61761 290.307 -3.54333 290.354 -3.45981 290.369C-3.41772 290.378 -3.37431 290.378 -3.33219 290.369C-3.29006 290.361 -3.2501 290.344 -3.21463 290.32C-3.17917 290.295 -3.14899 290.264 -3.12583 290.228C-3.10267 290.192 -3.08698 290.151 -3.07981 290.109C-2.96981 289.479 -2.85983 288.839 -2.72983 288.199C-2.72117 288.157 -2.72105 288.114 -2.72953 288.071C-2.738 288.029 -2.75488 287.989 -2.77915 287.954C-2.80341 287.918 -2.83457 287.888 -2.87076 287.865C-2.90695 287.842 -2.94747 287.826 -2.98984 287.819L-3.04984 287.819ZM-3.70981 291.659C-3.78725 291.656 -3.86304 291.682 -3.92227 291.732C-3.98151 291.782 -4.01988 291.852 -4.02982 291.929C-4.12982 292.579 -4.21984 293.229 -4.29984 293.869C-4.30543 293.911 -4.30257 293.954 -4.29148 293.995C-4.28038 294.036 -4.26126 294.074 -4.2352 294.108C-4.20914 294.141 -4.17672 294.169 -4.13974 294.19C-4.10277 294.211 -4.06196 294.224 -4.01981 294.229C-3.97754 294.236 -3.93428 294.234 -3.89273 294.224C-3.85118 294.213 -3.81224 294.194 -3.77841 294.168C-3.74458 294.142 -3.71661 294.109 -3.6962 294.071C-3.67579 294.033 -3.66339 293.992 -3.65982 293.949C-3.57982 293.322 -3.4898 292.682 -3.3898 292.029C-3.37817 291.944 -3.39981 291.859 -3.45017 291.79C-3.50052 291.721 -3.57568 291.674 -3.65982 291.659L-3.70981 291.659ZM-4.1998 295.529C-4.28038 295.526 -4.35887 295.555 -4.41861 295.609C-4.47835 295.663 -4.51465 295.739 -4.51981 295.819C-4.58981 296.469 -4.65981 297.119 -4.70981 297.759C-4.71537 297.845 -4.68713 297.93 -4.63108 297.995C-4.57502 298.061 -4.49561 298.101 -4.40982 298.109C-4.36803 298.115 -4.32552 298.111 -4.28507 298.1C-4.24461 298.088 -4.20716 298.067 -4.17508 298.04C-4.143 298.013 -4.11704 297.979 -4.09891 297.941C-4.08078 297.903 -4.07088 297.861 -4.06986 297.819C-4.00986 297.179 -3.94985 296.529 -3.87985 295.879C-3.87573 295.837 -3.87994 295.795 -3.89231 295.754C-3.90467 295.714 -3.92491 295.676 -3.95188 295.644C-3.97884 295.611 -4.012 295.584 -4.04941 295.565C-4.08682 295.545 -4.12774 295.533 -4.16983 295.529L-4.1998 295.529ZM-4.52982 299.409C-4.61133 299.409 -4.68983 299.44 -4.7493 299.496C-4.80877 299.551 -4.84473 299.628 -4.84983 299.709C-4.84983 300.379 -4.9298 301.029 -4.9498 301.709C-4.9525 301.752 -4.94659 301.795 -4.93234 301.835C-4.9181 301.876 -4.89584 301.913 -4.86691 301.945C-4.83799 301.977 -4.80296 302.002 -4.76395 302.02C-4.72493 302.038 -4.68272 302.048 -4.6398 302.049C-4.55586 302.045 -4.47595 302.012 -4.41385 301.955C-4.35175 301.899 -4.31142 301.822 -4.29984 301.739C-4.29984 301.099 -4.29981 300.449 -4.20981 299.799C-4.20425 299.713 -4.23255 299.628 -4.28861 299.563C-4.34466 299.498 -4.42407 299.457 -4.50986 299.449L-4.52982 299.409ZM-4.67984 303.309C-4.76471 303.309 -4.84609 303.343 -4.9061 303.403C-4.96611 303.463 -4.99985 303.544 -4.99985 303.629C-4.99985 304.089 -4.99985 304.539 -4.99985 304.989L-4.99985 305.579C-4.99985 305.664 -4.96611 305.745 -4.9061 305.805C-4.84609 305.865 -4.76471 305.899 -4.67984 305.899C-4.59497 305.899 -4.5136 305.865 -4.45358 305.805C-4.39357 305.745 -4.35983 305.664 -4.35983 305.579L-4.35983 304.989C-4.35983 304.539 -4.35983 304.089 -4.35983 303.639C-4.35849 303.596 -4.36578 303.554 -4.38126 303.514C-4.39674 303.474 -4.42007 303.437 -4.44992 303.406C-4.47977 303.376 -4.51553 303.351 -4.55503 303.334C-4.59452 303.318 -4.63696 303.309 -4.67984 303.309ZM-4.67984 307.209C-4.72272 307.209 -4.76517 307.218 -4.80466 307.234C-4.84415 307.251 -4.87985 307.276 -4.9097 307.306C-4.93955 307.337 -4.96295 307.374 -4.97843 307.414C-4.99391 307.454 -5.00119 307.496 -4.99985 307.539C-4.99985 308.209 -4.93982 308.859 -4.90982 309.539C-4.90217 309.625 -4.86126 309.704 -4.79587 309.76C-4.73047 309.816 -4.6458 309.845 -4.55985 309.839C-4.5178 309.837 -4.47667 309.826 -4.43881 309.807C-4.40096 309.789 -4.36708 309.763 -4.3392 309.731C-4.31133 309.7 -4.28996 309.663 -4.27634 309.623C-4.26271 309.583 -4.25715 309.541 -4.25986 309.499C-4.25986 308.869 -4.32982 308.219 -4.34982 307.559C-4.34515 307.512 -4.35098 307.464 -4.36691 307.42C-4.38285 307.375 -4.40851 307.335 -4.44199 307.301C-4.47547 307.268 -4.51599 307.242 -4.56058 307.226C-4.60517 307.21 -4.65268 307.204 -4.6998 307.209L-4.67984 307.209ZM-4.4498 311.099C-4.49189 311.103 -4.53288 311.115 -4.57028 311.135C-4.60769 311.154 -4.64079 311.181 -4.66776 311.214C-4.69472 311.246 -4.71496 311.284 -4.72733 311.324C-4.7397 311.365 -4.74397 311.407 -4.73984 311.449C-4.67984 312.116 -4.60982 312.782 -4.52982 313.449C-4.52625 313.492 -4.51392 313.533 -4.4935 313.571C-4.47309 313.609 -4.44506 313.642 -4.41123 313.668C-4.3774 313.694 -4.33846 313.713 -4.29691 313.724C-4.25536 313.734 -4.2121 313.736 -4.16983 313.729C-4.0858 313.717 -4.00977 313.672 -3.95761 313.605C-3.90546 313.538 -3.88116 313.454 -3.8898 313.369C-3.9698 312.759 -4.03982 312.109 -4.09982 311.439C-4.09583 311.39 -4.1033 311.34 -4.12161 311.294C-4.13993 311.249 -4.16861 311.208 -4.20542 311.175C-4.24222 311.142 -4.28616 311.118 -4.33377 311.105C-4.38138 311.092 -4.43135 311.09 -4.47983 311.099L-4.4498 311.099ZM-3.96982 314.969C-4.05333 314.984 -4.12761 315.031 -4.17636 315.1C-4.22511 315.17 -4.24435 315.256 -4.22983 315.339L-4.16983 315.729C-4.07983 316.239 -3.97985 316.729 -3.87985 317.269C-3.87152 317.311 -3.85499 317.35 -3.83133 317.385C-3.80767 317.42 -3.77731 317.45 -3.74197 317.473C-3.70664 317.497 -3.66702 317.513 -3.62546 317.52C-3.58389 317.528 -3.54123 317.528 -3.49985 317.519C-3.45772 317.512 -3.41748 317.496 -3.38168 317.473C-3.34589 317.45 -3.31531 317.419 -3.29184 317.384C-3.26837 317.348 -3.2525 317.308 -3.24527 317.266C-3.23804 317.224 -3.23962 317.181 -3.24985 317.139C-3.34985 316.629 -3.43982 316.139 -3.52982 315.619L-3.59982 315.239C-3.60407 315.194 -3.61813 315.151 -3.64096 315.112C-3.66379 315.073 -3.69487 315.039 -3.73203 315.013C-3.76918 314.988 -3.81151 314.97 -3.85605 314.963C-3.90059 314.955 -3.94624 314.957 -3.98984 314.969L-3.96982 314.969ZM-3.1998 318.789L-3.26981 318.789C-3.31104 318.797 -3.35021 318.814 -3.38486 318.838C-3.41951 318.861 -3.44896 318.892 -3.47141 318.928C-3.49386 318.963 -3.5088 319.003 -3.51541 319.044C-3.52202 319.086 -3.52016 319.128 -3.50986 319.169C-3.35986 319.809 -3.20983 320.439 -3.03983 321.079C-3.02834 321.12 -3.00881 321.158 -2.98239 321.191C-2.95597 321.225 -2.92319 321.252 -2.88596 321.273C-2.84872 321.293 -2.80779 321.306 -2.76553 321.311C-2.72327 321.315 -2.68051 321.311 -2.6398 321.299C-2.59908 321.289 -2.56085 321.27 -2.52725 321.245C-2.49365 321.22 -2.46536 321.188 -2.444 321.152C-2.42264 321.116 -2.4086 321.075 -2.40274 321.034C-2.39688 320.992 -2.39929 320.95 -2.40982 320.909C-2.57982 320.279 -2.73985 319.659 -2.87985 319.029C-2.90035 318.956 -2.94532 318.892 -3.00723 318.849C-3.06915 318.805 -3.1442 318.784 -3.21982 318.789L-3.1998 318.789ZM-2.1998 322.549L-2.28983 322.549C-2.33074 322.561 -2.36897 322.58 -2.40225 322.606C-2.43554 322.633 -2.46319 322.666 -2.48367 322.703C-2.50415 322.74 -2.51703 322.781 -2.52152 322.823C-2.526 322.866 -2.52206 322.908 -2.50986 322.949C-2.31986 323.579 -2.11982 324.199 -1.90982 324.819C-1.89632 324.859 -1.87496 324.896 -1.84695 324.928C-1.81895 324.96 -1.78489 324.986 -1.74673 325.005C-1.70858 325.024 -1.66705 325.034 -1.62466 325.037C-1.58228 325.039 -1.53988 325.033 -1.49985 325.019C-1.45959 325.006 -1.42239 324.984 -1.39047 324.956C-1.35856 324.928 -1.33255 324.894 -1.31393 324.856C-1.29532 324.818 -1.2845 324.776 -1.28207 324.734C-1.27965 324.692 -1.28569 324.649 -1.29984 324.609C-1.50984 323.999 -1.6998 323.379 -1.8898 322.759C-1.91339 322.694 -1.95732 322.639 -2.01498 322.601C-2.07265 322.563 -2.14096 322.545 -2.20981 322.549L-2.1998 322.549ZM-0.949798 326.249C-0.985874 326.24 -1.02377 326.24 -1.05984 326.249C-1.13933 326.278 -1.20398 326.338 -1.23959 326.415C-1.27521 326.492 -1.27889 326.579 -1.24985 326.659C-1.01985 327.269 -0.779806 327.879 -0.519806 328.479C-0.50439 328.519 -0.481259 328.555 -0.45169 328.585C-0.422122 328.616 -0.386734 328.64 -0.347625 328.657C-0.308517 328.674 -0.266455 328.683 -0.223907 328.683C-0.181359 328.683 -0.139172 328.675 -0.0998227 328.659C-0.0610496 328.643 -0.0259058 328.619 0.00363191 328.589C0.0331696 328.559 0.056505 328.523 0.0722965 328.484C0.0880879 328.445 0.0960391 328.404 0.0956729 328.361C0.0953067 328.319 0.0866283 328.278 0.0701602 328.239C-0.17984 327.639 -0.419801 327.039 -0.639801 326.429C-0.669316 326.371 -0.715521 326.322 -0.772491 326.29C-0.829462 326.258 -0.894639 326.244 -0.959808 326.249L-0.949798 326.249ZM0.520173 329.789C0.473982 329.78 0.426348 329.78 0.380158 329.789C0.302924 329.826 0.243081 329.891 0.213227 329.972C0.183373 330.052 0.185872 330.141 0.220185 330.219C0.500185 330.809 0.78017 331.399 1.08017 331.989C1.12055 332.063 1.18752 332.118 1.26743 332.144C1.34733 332.17 1.43414 332.165 1.51016 332.129C1.58816 332.09 1.64772 332.022 1.67581 331.94C1.70391 331.858 1.69829 331.767 1.66019 331.689C1.36019 331.119 1.08015 330.539 0.810151 329.949C0.781887 329.898 0.739654 329.855 0.688324 329.827C0.636994 329.799 0.578693 329.786 0.520173 329.789ZM2.28018 333.269C2.23111 333.255 2.17923 333.255 2.13016 333.269C2.0923 333.289 2.05883 333.316 2.03171 333.349C2.00458 333.382 1.98438 333.421 1.97226 333.462C1.96014 333.503 1.95636 333.546 1.96115 333.588C1.96595 333.631 1.9792 333.672 2.00015 333.709C2.32015 334.279 2.65015 334.849 3.00015 335.399C3.02075 335.436 3.04882 335.469 3.08255 335.495C3.11628 335.521 3.15499 335.539 3.19626 335.55C3.23753 335.56 3.28045 335.562 3.32242 335.555C3.36438 335.548 3.40447 335.532 3.44016 335.509C3.47634 335.487 3.50793 335.459 3.53305 335.425C3.55818 335.391 3.57636 335.353 3.58658 335.312C3.5968 335.271 3.59887 335.229 3.59262 335.187C3.58637 335.145 3.57196 335.105 3.5502 335.069C3.2102 334.519 2.8902 333.959 2.5502 333.389C2.51725 333.361 2.47885 333.341 2.43753 333.329C2.39621 333.317 2.35282 333.313 2.31015 333.319L2.28018 333.269ZM4.28018 336.599C4.2215 336.581 4.15887 336.581 4.10019 336.599C4.06426 336.622 4.03331 336.652 4.00925 336.688C3.98519 336.723 3.96851 336.763 3.96011 336.805C3.95172 336.847 3.95182 336.89 3.96042 336.932C3.96902 336.974 3.98593 337.014 4.01016 337.049C4.38016 337.589 4.75017 338.129 5.14017 338.659C5.19182 338.726 5.26738 338.771 5.35117 338.784C5.43495 338.797 5.52054 338.777 5.59018 338.729C5.65743 338.677 5.70221 338.602 5.71524 338.518C5.72827 338.434 5.70857 338.349 5.66019 338.279C5.28019 337.759 4.9102 337.229 4.5502 336.689C4.48686 336.652 4.4127 336.638 4.34018 336.649L4.28018 336.599ZM48.2802 338.809L47.8701 338.809C47.8281 338.812 47.787 338.822 47.7491 338.841C47.7113 338.859 47.6774 338.885 47.6496 338.917C47.6217 338.948 47.6003 338.985 47.5867 339.025C47.5731 339.065 47.5675 339.107 47.5702 339.149C47.5713 339.192 47.5813 339.233 47.5993 339.272C47.6173 339.31 47.6431 339.345 47.675 339.373C47.7068 339.401 47.7442 339.422 47.7846 339.435C47.8251 339.449 47.8679 339.453 47.9102 339.449C48.2927 339.414 48.6776 339.414 49.0602 339.449C49.2894 339.478 49.5165 339.521 49.7401 339.579C49.8236 339.601 49.9123 339.589 49.987 339.546C50.0618 339.503 50.1168 339.432 50.1402 339.349C50.1505 339.308 50.1525 339.265 50.146 339.222C50.1395 339.18 50.1247 339.14 50.1023 339.104C50.08 339.067 50.0506 339.036 50.0158 339.011C49.9811 338.986 49.9418 338.968 49.9002 338.959C49.6478 338.889 49.3904 338.839 49.1302 338.809C48.8828 338.814 48.6359 338.831 48.3902 338.859L48.2802 338.809ZM45.9802 339.199L45.8802 339.199C45.2305 339.427 44.6251 339.765 44.0902 340.199C44.0303 340.261 43.9968 340.343 43.9968 340.429C43.9968 340.515 44.0303 340.597 44.0902 340.659C44.12 340.69 44.1558 340.714 44.1953 340.731C44.2348 340.748 44.2772 340.757 44.3202 340.757C44.3631 340.757 44.4056 340.748 44.4451 340.731C44.4846 340.714 44.5204 340.69 44.5502 340.659C45.028 340.277 45.5651 339.977 46.1402 339.769C46.1804 339.756 46.2176 339.734 46.2495 339.706C46.2814 339.678 46.3075 339.644 46.3261 339.606C46.3447 339.568 46.3555 339.526 46.3579 339.484C46.3604 339.442 46.3543 339.399 46.3402 339.359C46.3088 339.324 46.2702 339.296 46.2271 339.277C46.184 339.258 46.1373 339.248 46.0902 339.249L45.9802 339.199ZM6.53018 339.739C6.45736 339.738 6.38655 339.763 6.33017 339.809C6.27031 339.871 6.23679 339.953 6.23679 340.039C6.23679 340.125 6.27031 340.207 6.33017 340.269C6.74017 340.779 7.17018 341.269 7.59018 341.769C7.65178 341.829 7.73427 341.862 7.82016 341.862C7.90606 341.862 7.98861 341.829 8.0502 341.769C8.11007 341.707 8.14353 341.625 8.14353 341.539C8.14353 341.453 8.11007 341.371 8.0502 341.309C7.6302 340.829 7.21015 340.309 6.81015 339.829C6.75793 339.801 6.69935 339.787 6.64017 339.789L6.53018 339.739ZM51.5902 339.789C51.5375 339.791 51.4859 339.804 51.4392 339.828C51.3924 339.852 51.3517 339.887 51.3202 339.929C51.2748 340.002 51.2599 340.09 51.2786 340.174C51.2973 340.258 51.3481 340.332 51.4202 340.379C51.936 340.722 52.4035 341.132 52.8102 341.599C52.8701 341.658 52.9509 341.692 53.0352 341.692C53.1194 341.692 53.2003 341.658 53.2602 341.599C53.32 341.537 53.3535 341.455 53.3535 341.369C53.3535 341.283 53.32 341.201 53.2602 341.139C52.8166 340.622 52.3014 340.171 51.7302 339.799C51.7204 339.795 51.7104 339.792 51.7002 339.789L51.5902 339.789ZM43.0602 341.639C43.0027 341.641 42.9467 341.657 42.8976 341.687C42.8485 341.717 42.808 341.759 42.7802 341.809C42.45 342.432 42.2365 343.11 42.1502 343.809C42.1446 343.851 42.1474 343.894 42.1585 343.935C42.1696 343.976 42.1888 344.014 42.2148 344.048C42.2409 344.081 42.2733 344.109 42.3103 344.13C42.3472 344.151 42.388 344.164 42.4301 344.169C42.5136 344.181 42.5982 344.159 42.6656 344.108C42.733 344.057 42.7778 343.982 42.7902 343.899C42.8731 343.292 43.0591 342.704 43.3402 342.159C43.3611 342.122 43.3744 342.081 43.3792 342.038C43.384 341.996 43.3802 341.953 43.3681 341.912C43.356 341.871 43.3358 341.832 43.3086 341.799C43.2815 341.766 43.248 341.739 43.2102 341.719C43.1975 341.708 43.1841 341.698 43.1702 341.689L43.0602 341.639ZM9.1102 342.639C9.02477 342.638 8.94229 342.67 8.88016 342.729C8.82029 342.791 8.78684 342.873 8.78684 342.959C8.78684 343.045 8.82029 343.127 8.88016 343.189C9.34016 343.659 9.81018 344.119 10.2802 344.569C10.3418 344.629 10.4243 344.662 10.5102 344.662C10.5961 344.662 10.6785 344.629 10.7401 344.569C10.7994 344.509 10.8326 344.428 10.8326 344.344C10.8326 344.26 10.7994 344.179 10.7401 344.119C10.2801 343.679 9.82015 343.219 9.37015 342.759C9.32452 342.733 9.27283 342.719 9.22019 342.719L9.1102 342.639ZM54.1102 342.639C54.0606 342.63 54.0097 342.63 53.9602 342.639C53.8857 342.681 53.83 342.75 53.804 342.832C53.7781 342.913 53.7838 343.002 53.8202 343.079C54.1018 343.636 54.3069 344.228 54.4301 344.839C54.4395 344.881 54.4572 344.92 54.482 344.955C54.5068 344.989 54.5383 345.019 54.5746 345.041C54.611 345.064 54.6514 345.078 54.6936 345.085C54.7357 345.091 54.7788 345.089 54.8202 345.079C54.8616 345.071 54.9011 345.054 54.9361 345.031C54.9712 345.007 55.0012 344.977 55.0244 344.941C55.0477 344.906 55.0637 344.866 55.0716 344.825C55.0794 344.783 55.0789 344.74 55.0702 344.699C54.9251 344.038 54.7001 343.396 54.4002 342.789C54.352 342.759 54.2969 342.742 54.2401 342.739L54.1102 342.639ZM11.9202 345.289C11.8747 345.289 11.8297 345.299 11.7883 345.318C11.7469 345.337 11.71 345.365 11.6801 345.399C11.6203 345.461 11.5868 345.543 11.5868 345.629C11.5868 345.715 11.6203 345.797 11.6801 345.859L12.2802 346.359L13.2102 347.089C13.2793 347.142 13.3664 347.165 13.4525 347.154C13.5386 347.142 13.6168 347.098 13.6702 347.029C13.7197 346.961 13.741 346.876 13.7298 346.792C13.7187 346.708 13.6759 346.632 13.6102 346.579L12.6902 345.859L12.1002 345.359C12.0826 345.367 12.0659 345.378 12.0502 345.389L11.9202 345.289ZM42.4402 345.379C42.3543 345.389 42.2758 345.432 42.2216 345.5C42.1674 345.567 42.1417 345.653 42.1502 345.739C42.2265 346.418 42.3671 347.087 42.5702 347.739C42.5817 347.78 42.6012 347.818 42.6276 347.851C42.654 347.885 42.6868 347.912 42.724 347.933C42.7613 347.953 42.8022 347.966 42.8445 347.971C42.8867 347.975 42.9295 347.971 42.9702 347.959C43.011 347.948 43.049 347.928 43.0819 347.902C43.1149 347.875 43.142 347.842 43.1617 347.804C43.1813 347.767 43.1931 347.726 43.1963 347.684C43.1995 347.641 43.194 347.599 43.1801 347.559C42.9989 346.954 42.8685 346.336 42.7902 345.709C42.7768 345.655 42.7494 345.605 42.7108 345.565C42.6722 345.524 42.6237 345.495 42.5702 345.479L42.4402 345.379ZM54.8902 346.379C54.8087 346.379 54.7302 346.41 54.6707 346.466C54.6112 346.521 54.5753 346.598 54.5702 346.679C54.5241 347.294 54.3824 347.898 54.1502 348.469C54.1337 348.508 54.125 348.549 54.1247 348.591C54.1243 348.634 54.1323 348.675 54.148 348.714C54.1638 348.753 54.1872 348.789 54.2167 348.819C54.2462 348.849 54.2814 348.873 54.3202 348.889C54.3589 348.906 54.4005 348.914 54.4426 348.915C54.4847 348.915 54.5264 348.907 54.5655 348.891C54.6045 348.875 54.64 348.852 54.67 348.823C54.6999 348.793 54.7238 348.758 54.7401 348.719C55.0052 348.083 55.164 347.407 55.2102 346.719C55.2143 346.676 55.2097 346.633 55.1967 346.592C55.1838 346.551 55.1626 346.513 55.1346 346.48C55.1066 346.448 55.0723 346.421 55.0337 346.402C54.9952 346.383 54.9532 346.372 54.9102 346.369L54.8902 346.379ZM15.1502 347.789C15.0971 347.788 15.0446 347.8 14.9975 347.825C14.9503 347.849 14.91 347.885 14.8802 347.929C14.8328 348 14.8148 348.086 14.8297 348.17C14.8446 348.254 14.8913 348.329 14.9602 348.379C15.5002 348.749 16.0602 349.109 16.6102 349.449C16.6846 349.494 16.7735 349.507 16.8577 349.486C16.9419 349.466 17.0146 349.413 17.0602 349.339C17.0819 349.303 17.0963 349.263 17.1026 349.221C17.1088 349.18 17.1068 349.137 17.0966 349.096C17.0864 349.055 17.0682 349.017 17.0431 348.983C17.0179 348.949 16.9864 348.921 16.9502 348.899C16.4035 348.559 15.8635 348.209 15.3302 347.849C15.2776 347.811 15.2149 347.79 15.1502 347.789ZM43.6502 349.239C43.6074 349.229 43.5629 349.229 43.5202 349.239C43.4411 349.274 43.3791 349.339 43.3473 349.419C43.3155 349.5 43.3165 349.589 43.3502 349.669C43.6002 350.239 43.8902 350.839 44.2202 351.439C44.2401 351.477 44.2674 351.51 44.3004 351.538C44.3335 351.565 44.3717 351.585 44.4127 351.597C44.4537 351.609 44.4968 351.613 44.5393 351.608C44.5818 351.603 44.6229 351.59 44.6602 351.569C44.7347 351.527 44.7899 351.457 44.8141 351.375C44.8384 351.293 44.8298 351.205 44.7902 351.129C44.4702 350.549 44.1802 349.969 43.9402 349.409C43.9167 349.351 43.8767 349.301 43.8252 349.266C43.7736 349.23 43.7128 349.21 43.6502 349.209L43.6502 349.239ZM18.5202 349.789C18.4608 349.788 18.4023 349.803 18.351 349.833C18.2998 349.863 18.258 349.907 18.2302 349.959C18.1906 350.035 18.182 350.123 18.2062 350.205C18.2305 350.287 18.2857 350.357 18.3602 350.399C18.9302 350.709 19.5202 351.009 20.1102 351.299C20.1482 351.318 20.1896 351.329 20.2318 351.331C20.2741 351.334 20.3165 351.328 20.3565 351.314C20.3965 351.3 20.4334 351.278 20.4649 351.25C20.4964 351.222 20.522 351.187 20.5402 351.149C20.5589 351.111 20.5697 351.07 20.5723 351.027C20.5748 350.985 20.569 350.943 20.555 350.903C20.5411 350.863 20.5193 350.826 20.491 350.794C20.4627 350.763 20.4284 350.737 20.3902 350.719C19.8102 350.439 19.2302 350.139 18.6702 349.829C18.625 349.802 18.5729 349.788 18.5202 349.789ZM53.6002 350.039C53.5523 350.04 53.5051 350.051 53.4619 350.072C53.4188 350.092 53.3807 350.122 53.3502 350.159C52.9459 350.632 52.4896 351.058 51.9901 351.429C51.9546 351.453 51.9245 351.484 51.9015 351.52C51.8786 351.556 51.8633 351.596 51.8567 351.639C51.8501 351.681 51.8524 351.724 51.8633 351.766C51.8742 351.807 51.8936 351.846 51.9202 351.879C51.9441 351.915 51.975 351.945 52.0111 351.968C52.0472 351.991 52.0876 352.006 52.1299 352.013C52.1721 352.019 52.2153 352.017 52.2566 352.006C52.298 351.995 52.3366 351.976 52.3702 351.949C52.9144 351.547 53.411 351.084 53.8502 350.569C53.9071 350.508 53.9388 350.428 53.9388 350.344C53.9388 350.261 53.9071 350.18 53.8502 350.119C53.806 350.08 53.7524 350.053 53.6945 350.04C53.6366 350.028 53.5765 350.031 53.5202 350.049L53.6002 350.039ZM22.0202 351.489C21.9567 351.492 21.8953 351.512 21.8424 351.547C21.7896 351.583 21.7473 351.632 21.7202 351.689C21.7037 351.728 21.695 351.769 21.6947 351.811C21.6943 351.854 21.7023 351.895 21.7181 351.934C21.7338 351.973 21.7572 352.009 21.7867 352.039C21.8163 352.069 21.8514 352.093 21.8902 352.109C22.5002 352.369 23.1102 352.609 23.7202 352.839C23.8011 352.868 23.8904 352.865 23.9688 352.83C24.0473 352.794 24.1088 352.729 24.1402 352.649C24.1691 352.567 24.1642 352.477 24.1267 352.398C24.0893 352.319 24.0222 352.258 23.9402 352.229C23.3402 352.009 22.7402 351.769 22.1502 351.519C22.0935 351.495 22.0308 351.488 21.9702 351.499L22.0202 351.489ZM50.5102 352.369C50.4646 352.354 50.4157 352.354 50.3702 352.369C49.7976 352.645 49.2101 352.889 48.6102 353.099C48.5699 353.113 48.5327 353.134 48.5008 353.162C48.4689 353.19 48.4429 353.224 48.4243 353.262C48.4057 353.3 48.3949 353.342 48.3924 353.384C48.39 353.427 48.396 353.469 48.4102 353.509C48.4237 353.549 48.4451 353.586 48.4731 353.618C48.5011 353.65 48.5351 353.676 48.5733 353.695C48.6114 353.714 48.6529 353.724 48.6953 353.727C48.7377 353.729 48.7801 353.723 48.8202 353.709C49.4474 353.491 50.0617 353.237 50.6602 352.949C50.7364 352.909 50.7937 352.84 50.8199 352.758C50.8461 352.675 50.839 352.586 50.8002 352.509C50.7635 352.455 50.7112 352.414 50.6505 352.391C50.5897 352.368 50.5233 352.364 50.4602 352.379L50.5102 352.369ZM45.5102 352.639C45.4494 352.635 45.3892 352.653 45.3402 352.689C45.3038 352.71 45.2721 352.739 45.2472 352.773C45.2222 352.807 45.2046 352.846 45.1952 352.887C45.1859 352.929 45.185 352.971 45.1927 353.013C45.2005 353.054 45.2166 353.094 45.2401 353.129C45.4001 353.389 45.5701 353.639 45.7401 353.909L44.8502 354.089C44.7667 354.104 44.6924 354.151 44.6436 354.22C44.5949 354.29 44.5757 354.376 44.5902 354.459C44.5974 354.501 44.613 354.542 44.6361 354.578C44.6593 354.614 44.6895 354.645 44.725 354.67C44.7605 354.694 44.8004 354.711 44.8426 354.719C44.8847 354.728 44.9281 354.728 44.9702 354.719C45.3602 354.649 45.7502 354.569 46.1302 354.479L46.3302 354.759C46.3542 354.794 46.385 354.824 46.4207 354.847C46.4565 354.87 46.4965 354.886 46.5384 354.894C46.5803 354.901 46.6232 354.9 46.6648 354.891C46.7063 354.881 46.7455 354.864 46.7802 354.839C46.8153 354.815 46.8453 354.784 46.8684 354.749C46.8915 354.713 46.9073 354.673 46.9147 354.631C46.9222 354.589 46.9211 354.546 46.9118 354.504C46.9024 354.463 46.8849 354.424 46.8602 354.389L46.8102 354.319L46.8902 354.319C46.9736 354.296 47.045 354.241 47.0896 354.167C47.1342 354.092 47.1487 354.004 47.1302 353.919C47.1046 353.837 47.0493 353.768 46.9752 353.726C46.9011 353.683 46.8136 353.67 46.7302 353.689L46.4202 353.759C46.1902 353.439 45.9802 353.109 45.7802 352.759C45.7486 352.721 45.7086 352.692 45.6634 352.673C45.6182 352.654 45.5691 352.645 45.5202 352.649L45.5102 352.639ZM25.6502 352.849C25.5814 352.846 25.5136 352.866 25.4575 352.906C25.4014 352.946 25.3601 353.003 25.3402 353.069C25.3148 353.151 25.3226 353.24 25.3618 353.317C25.401 353.393 25.4687 353.452 25.5502 353.479C26.1702 353.669 26.8102 353.859 27.4402 354.019C27.4809 354.031 27.5236 354.035 27.5658 354.029C27.6079 354.024 27.6485 354.01 27.6851 353.989C27.7217 353.967 27.7534 353.938 27.7784 353.904C27.8033 353.87 27.8209 353.83 27.8302 353.789C27.8407 353.748 27.8431 353.706 27.8373 353.664C27.8314 353.623 27.8174 353.583 27.796 353.546C27.7746 353.51 27.7463 353.479 27.7127 353.453C27.6791 353.428 27.6409 353.41 27.6002 353.399C26.9802 353.239 26.3601 353.049 25.7401 352.859L25.6502 352.849ZM29.4102 353.849C29.3359 353.848 29.2638 353.874 29.2069 353.922C29.15 353.969 29.1122 354.036 29.1002 354.109C29.0914 354.15 29.0909 354.193 29.0988 354.235C29.1066 354.276 29.1227 354.316 29.1459 354.351C29.1692 354.387 29.1992 354.417 29.2342 354.441C29.2693 354.464 29.3087 354.481 29.3502 354.489C29.9902 354.629 30.6402 354.749 31.2802 354.849C31.3637 354.864 31.4496 354.844 31.519 354.796C31.5883 354.747 31.6355 354.673 31.6502 354.589C31.6588 354.547 31.6584 354.503 31.6493 354.461C31.6401 354.419 31.6222 354.379 31.5968 354.344C31.5714 354.31 31.539 354.281 31.5017 354.259C31.4644 354.237 31.423 354.224 31.3802 354.219C30.7502 354.109 30.1102 353.989 29.4802 353.859L29.4102 353.849ZM42.9802 354.399C42.3502 354.489 41.7002 354.559 41.0602 354.609C40.9744 354.617 40.895 354.658 40.839 354.723C40.7829 354.788 40.7546 354.873 40.7602 354.959C40.7639 355.001 40.776 355.042 40.7957 355.079C40.8154 355.117 40.8422 355.15 40.8747 355.177C40.9073 355.204 40.9449 355.224 40.9853 355.237C41.0257 355.249 41.0681 355.253 41.1102 355.249C41.7602 355.249 42.4202 355.129 43.1102 355.039C43.152 355.034 43.1924 355.021 43.2289 355C43.2654 354.979 43.2973 354.951 43.3226 354.917C43.3479 354.883 43.366 354.845 43.3759 354.804C43.3858 354.763 43.3872 354.721 43.3802 354.679C43.3766 354.631 43.3619 354.583 43.3374 354.541C43.3128 354.499 43.2791 354.463 43.2386 354.436C43.1981 354.409 43.1519 354.392 43.1037 354.386C43.0554 354.379 43.0064 354.384 42.9602 354.399L42.9802 354.399ZM33.2602 354.479C33.1802 354.479 33.1031 354.508 33.0439 354.562C32.9846 354.616 32.9476 354.69 32.9402 354.769C32.9317 354.852 32.9563 354.936 33.0086 355.001C33.061 355.067 33.137 355.109 33.2202 355.119C33.8702 355.199 34.5302 355.259 35.2202 355.299C35.2622 355.302 35.3044 355.296 35.3443 355.283C35.3841 355.269 35.4209 355.248 35.4525 355.22C35.4841 355.192 35.5099 355.158 35.5284 355.12C35.5468 355.082 35.5576 355.041 35.5602 354.999C35.5643 354.957 35.5597 354.914 35.5466 354.874C35.5335 354.833 35.5122 354.796 35.4841 354.764C35.456 354.732 35.4215 354.706 35.383 354.688C35.3445 354.67 35.3027 354.66 35.2602 354.659C34.6202 354.609 33.9702 354.559 33.3402 354.479L33.2602 354.479ZM39.1002 354.719C38.4502 354.719 37.8102 354.719 37.1602 354.719C37.1186 354.718 37.0773 354.725 37.0385 354.74C36.9997 354.755 36.9643 354.777 36.9345 354.806C36.9046 354.835 36.8809 354.87 36.8647 354.908C36.8485 354.946 36.8402 354.987 36.8402 355.029C36.8388 355.071 36.8458 355.113 36.8607 355.152C36.8756 355.192 36.898 355.228 36.9268 355.258C36.9556 355.289 36.9901 355.314 37.0285 355.331C37.0668 355.348 37.1081 355.358 37.1502 355.359C37.8102 355.359 38.4602 355.359 39.1502 355.359C39.1931 355.358 39.2353 355.348 39.2743 355.33C39.3133 355.312 39.3484 355.287 39.3773 355.255C39.4062 355.223 39.4284 355.186 39.4427 355.145C39.4569 355.105 39.4629 355.062 39.4602 355.019C39.4581 354.973 39.4462 354.928 39.4253 354.887C39.4043 354.847 39.3748 354.811 39.3388 354.782C39.3027 354.754 39.261 354.733 39.2163 354.722C39.1717 354.712 39.1253 354.71 39.0802 354.719L39.1002 354.719ZM47.7502 355.829C47.6773 355.828 47.6066 355.853 47.5502 355.899C47.491 355.959 47.4577 356.04 47.4577 356.124C47.4577 356.208 47.491 356.289 47.5502 356.349C47.9502 356.869 48.3702 357.349 48.7902 357.879C48.8501 357.938 48.9309 357.972 49.0152 357.972C49.0994 357.972 49.1802 357.938 49.2401 357.879C49.3 357.817 49.3335 357.735 49.3335 357.649C49.3335 357.563 49.3 357.481 49.2401 357.419C48.8301 356.939 48.4102 356.419 48.0202 355.929C47.9885 355.882 47.945 355.845 47.8941 355.82C47.8431 355.795 47.7866 355.785 47.7302 355.789L47.7502 355.829ZM50.2902 358.829C50.2494 358.829 50.2089 358.837 50.1712 358.852C50.1334 358.868 50.0991 358.89 50.0702 358.919C50.0396 358.948 50.0153 358.983 49.9986 359.022C49.982 359.06 49.9734 359.102 49.9734 359.144C49.9734 359.186 49.982 359.228 49.9986 359.267C50.0153 359.305 50.0396 359.34 50.0702 359.369C50.5202 359.849 50.9902 360.309 51.4702 360.749C51.4992 360.78 51.534 360.804 51.5727 360.821C51.6114 360.837 51.6531 360.846 51.6952 360.846C51.7373 360.846 51.779 360.837 51.8177 360.821C51.8563 360.804 51.8912 360.78 51.9202 360.749C51.951 360.719 51.9755 360.683 51.9923 360.644C52.009 360.604 52.0177 360.562 52.0177 360.519C52.0177 360.476 52.009 360.434 51.9923 360.394C51.9755 360.355 51.951 360.319 51.9202 360.289C51.4502 359.859 50.9902 359.399 50.5402 358.939C50.5139 358.891 50.4746 358.852 50.4268 358.825C50.379 358.799 50.3247 358.786 50.2702 358.789L50.2902 358.829ZM53.1402 361.479C53.0456 361.481 52.9558 361.521 52.8902 361.589C52.8303 361.651 52.7968 361.733 52.7968 361.819C52.7968 361.905 52.8303 361.987 52.8902 362.049C53.4002 362.469 53.8902 362.869 54.4502 363.249C54.4848 363.274 54.5241 363.291 54.5656 363.301C54.6071 363.31 54.6501 363.311 54.692 363.304C54.7339 363.296 54.7739 363.28 54.8096 363.257C54.8454 363.234 54.8762 363.204 54.9002 363.169C54.9254 363.135 54.9436 363.096 54.9537 363.055C54.9638 363.014 54.9657 362.971 54.9592 362.929C54.9527 362.888 54.938 362.847 54.9158 362.811C54.8937 362.775 54.8645 362.744 54.8302 362.719C54.3102 362.346 53.8002 361.956 53.3002 361.549C53.2549 361.492 53.1912 361.454 53.1202 361.439L53.1402 361.479ZM56.3102 363.739C56.2561 363.739 56.2031 363.753 56.1559 363.779C56.1086 363.806 56.0689 363.843 56.0402 363.889C55.9948 363.962 55.9799 364.05 55.9986 364.134C56.0173 364.219 56.0681 364.292 56.1402 364.339C56.7002 364.679 57.2802 365.009 57.8602 365.339C57.9373 365.378 58.0265 365.385 58.1087 365.359C58.191 365.333 58.2597 365.275 58.3002 365.199C58.3386 365.123 58.3454 365.036 58.3191 364.955C58.2929 364.874 58.2357 364.808 58.1602 364.769C57.5902 364.469 57.0302 364.149 56.4802 363.769C56.4548 363.745 56.4249 363.727 56.3922 363.715C56.3596 363.703 56.3249 363.697 56.2902 363.699L56.3102 363.739ZM59.7702 365.539C59.707 365.538 59.6448 365.555 59.5914 365.589C59.538 365.622 59.4958 365.671 59.4702 365.729C59.4537 365.768 59.445 365.809 59.4447 365.851C59.4443 365.894 59.4523 365.935 59.468 365.974C59.4838 366.013 59.5072 366.049 59.5367 366.079C59.5663 366.109 59.6014 366.133 59.6402 366.149C60.2402 366.409 60.8602 366.649 61.4802 366.869C61.5202 366.883 61.5626 366.889 61.605 366.887C61.6474 366.884 61.6889 366.874 61.7271 366.855C61.7652 366.836 61.7993 366.81 61.8273 366.778C61.8553 366.746 61.8767 366.709 61.8902 366.669C61.9043 366.629 61.9104 366.587 61.9079 366.544C61.9055 366.502 61.8947 366.46 61.8761 366.422C61.8575 366.384 61.8314 366.35 61.7995 366.322C61.7676 366.294 61.7304 366.273 61.6902 366.259C61.0902 366.049 60.4802 365.809 59.9002 365.559C59.8561 365.527 59.8045 365.506 59.7502 365.499L59.7702 365.539ZM84.6702 366.339L84.6002 366.339L82.7002 366.739C82.6578 366.746 82.6173 366.762 82.5811 366.785C82.545 366.808 82.5138 366.838 82.4895 366.874C82.4653 366.909 82.4484 366.949 82.4399 366.991C82.4314 367.034 82.4315 367.077 82.4402 367.119C82.4593 367.202 82.5095 367.273 82.5802 367.32C82.651 367.367 82.7368 367.384 82.8202 367.369C83.4602 367.249 84.1001 367.109 84.7401 366.969C84.8226 366.95 84.8945 366.9 84.9411 366.829C84.9876 366.758 85.0052 366.672 84.9901 366.589C84.9781 366.508 84.937 366.434 84.8745 366.38C84.812 366.327 84.7323 366.298 84.6502 366.299L84.6702 366.339ZM63.4502 366.819C63.3775 366.817 63.3062 366.839 63.2481 366.883C63.1899 366.927 63.1483 366.989 63.1302 367.059C63.1196 367.1 63.1173 367.142 63.1231 367.184C63.129 367.225 63.143 367.266 63.1643 367.302C63.1857 367.338 63.214 367.37 63.2476 367.395C63.2812 367.42 63.3195 367.439 63.3602 367.449C63.9902 367.619 64.6302 367.779 65.2802 367.909C65.3649 367.924 65.452 367.905 65.523 367.856C65.594 367.808 65.6432 367.733 65.6602 367.649C65.6752 367.566 65.6576 367.48 65.6111 367.409C65.5646 367.338 65.4926 367.288 65.4102 367.269C64.7702 367.149 64.1402 366.999 63.5302 366.829L63.4502 366.819ZM80.8502 367.099L80.7902 367.099C80.1235 367.212 79.4835 367.312 78.8701 367.399C78.786 367.414 78.7109 367.461 78.6606 367.53C78.6102 367.599 78.5886 367.684 78.6002 367.769C78.605 367.811 78.6183 367.851 78.6393 367.888C78.6602 367.924 78.6885 367.956 78.7221 367.981C78.7558 368.007 78.7943 368.025 78.8352 368.035C78.8762 368.045 78.9187 368.046 78.9602 368.039C79.6102 367.949 80.2502 367.849 80.9002 367.739C80.9837 367.724 81.058 367.677 81.1067 367.608C81.1555 367.538 81.1747 367.453 81.1602 367.369C81.1603 367.327 81.1516 367.285 81.1348 367.246C81.118 367.207 81.0933 367.172 81.0624 367.142C81.0315 367.113 80.9949 367.091 80.9549 367.077C80.915 367.062 80.8725 367.056 80.8302 367.059L80.8502 367.099ZM67.2602 367.589C67.1824 367.591 67.1076 367.619 67.049 367.671C66.9905 367.722 66.9519 367.792 66.9402 367.869C66.9346 367.911 66.9374 367.954 66.9485 367.995C66.9596 368.036 66.9787 368.074 67.0048 368.108C67.0308 368.141 67.0633 368.169 67.1003 368.19C67.1373 368.211 67.178 368.224 67.2202 368.229C67.8602 368.319 68.5202 368.389 69.2202 368.439C69.2617 368.443 69.3036 368.439 69.3434 368.426C69.3832 368.414 69.4201 368.393 69.4519 368.366C69.4836 368.339 69.5096 368.306 69.5282 368.269C69.5468 368.231 69.5577 368.191 69.5602 368.149C69.5643 368.107 69.5601 368.065 69.5477 368.024C69.5353 367.984 69.5151 367.946 69.4881 367.914C69.4612 367.881 69.428 367.854 69.3906 367.835C69.3532 367.815 69.3123 367.803 69.2702 367.799C68.6202 367.749 67.9702 367.679 67.3502 367.589L67.2602 367.589ZM76.9901 367.639C76.3501 367.709 75.7001 367.759 75.0602 367.809C75.0181 367.812 74.977 367.822 74.9391 367.841C74.9013 367.859 74.8674 367.885 74.8396 367.917C74.8117 367.948 74.7903 367.985 74.7767 368.025C74.7631 368.065 74.7575 368.107 74.7602 368.149C74.7627 368.192 74.7738 368.234 74.7929 368.273C74.812 368.311 74.8387 368.345 74.8714 368.373C74.904 368.401 74.942 368.423 74.9831 368.436C75.0241 368.449 75.0674 368.453 75.1102 368.449C75.7602 368.449 76.4102 368.349 77.1102 368.279C77.1523 368.275 77.1932 368.263 77.2306 368.244C77.268 368.224 77.3011 368.197 77.3281 368.164C77.3551 368.132 77.3753 368.094 77.3877 368.054C77.4 368.014 77.4043 367.971 77.4002 367.929C77.4053 367.875 77.3966 367.821 77.3749 367.771C77.3533 367.721 77.3194 367.678 77.2764 367.645C77.2334 367.612 77.1828 367.591 77.1292 367.583C77.0757 367.575 77.021 367.58 76.9702 367.599L76.9901 367.639ZM71.1502 367.899C71.066 367.899 70.985 367.931 70.9236 367.989C70.8623 368.046 70.8253 368.125 70.8202 368.209C70.8188 368.252 70.8261 368.295 70.8416 368.335C70.8571 368.375 70.8805 368.411 70.9103 368.442C70.9402 368.473 70.9759 368.497 71.0154 368.514C71.0548 368.53 71.0973 368.539 71.1402 368.539C71.7902 368.539 72.4502 368.539 73.1402 368.539C73.183 368.539 73.2255 368.53 73.265 368.514C73.3045 368.497 73.3402 368.473 73.3701 368.442C73.3999 368.411 73.4233 368.375 73.4388 368.335C73.4542 368.295 73.4615 368.252 73.4602 368.209C73.4576 368.126 73.4227 368.047 73.363 367.989C73.3033 367.931 73.2233 367.899 73.1402 367.899L71.1902 367.899L71.1502 367.899Z" fill="#999999"/>
<path d="M121.11 293.929L123.93 292.709L135.2 300.569L138.2 298.909C140.61 297.469 142.95 297.369 144.07 298.009L144.3 297.899C146.04 297.139 147.07 297.819 147.42 298.639C147.77 299.459 147.57 300.639 145.83 301.419L145.6 301.519C145.39 302.519 144.48 304.199 140.93 305.189L137.66 306.239L135.66 319.829L132.84 321.059L130.65 308.469L122.59 311.229L121.37 314.459L119.13 315.289L118.97 312.289L118.17 312.359L117.44 310.689L118.04 310.099L115.92 307.899L118.06 306.829L121.24 308.149L128.77 304.149L121.11 293.929ZM121.32 308.879L118.12 307.549L117.12 308.069L119.06 310.069L118.33 310.809L118.67 311.599L119.67 311.509L119.82 314.309L120.91 313.909L122.13 310.669L131.25 307.559L133.42 320.069L135.11 319.339L137.06 305.699L140.75 304.519C144.19 303.569 144.87 302.029 144.97 301.199L144.97 300.989L145.17 300.919C145.297 300.882 145.421 300.836 145.54 300.779C146.61 300.319 147.09 299.589 146.78 298.889C146.47 298.189 145.62 298.029 144.55 298.499C144.43 298.547 144.313 298.604 144.2 298.669L144.01 298.779L143.83 298.649C143.1 298.109 140.97 298.009 138.51 299.469L135.15 301.349L123.85 293.459L122.16 294.189L129.82 304.329L121.32 308.879Z" fill="#999999"/>
</svg>
