<svg width="90" height="68" viewBox="0 0 90 68" fill="none" xmlns="http://www.w3.org/2000/svg">
<path fill-rule="evenodd" clip-rule="evenodd" d="M67.6922 35.256H67.7485H67.8573H67.966H68.0749H68.1837H68.2925H68.4013H68.5101H68.619H68.7278H68.8366H68.9454H69.0542H69.163H69.2719H69.3806H69.4894H69.5983H69.7071H69.8158H69.9247H70.0335H70.1423H70.2511H70.3599H70.4687H70.5776H70.6864H70.7951H70.904H71.0128H71.1217H71.2304H71.3392H71.4481H71.5569H71.6657H71.7745H71.8833H71.9921H72.101H72.2097H72.3185H72.4274H72.5362H72.6449H72.7538H72.8626H72.9714H73.0802H73.189H73.2978H73.4067H73.5155H73.6242H73.7331H73.8419H73.9508H74.0595H74.1683H74.2589L74.2772 35.2565C74.3107 35.2573 74.3474 35.2588 74.386 35.2608C74.4209 35.2627 74.4574 35.2651 74.4948 35.2679C74.5306 35.2705 74.5671 35.2735 74.6036 35.2768C74.6402 35.2801 74.6767 35.2837 74.7124 35.2876C74.7498 35.2917 74.7865 35.2961 74.8212 35.3007C74.8601 35.3059 74.8969 35.3113 74.9301 35.3169C74.954 35.3209 74.9761 35.325 74.9958 35.3292L75.0388 35.3388C75.0753 35.3471 75.1115 35.3562 75.1476 35.3661C75.1841 35.3761 75.2204 35.3866 75.2565 35.398C75.293 35.4095 75.3293 35.4217 75.3653 35.4346C75.4018 35.4477 75.4381 35.4615 75.474 35.476C75.5107 35.4908 75.5469 35.5064 75.5829 35.5226C75.6195 35.5392 75.6558 35.5564 75.6917 35.5745C75.7283 35.5928 75.7646 35.612 75.8005 35.632C75.8372 35.6524 75.8735 35.6738 75.9093 35.6958C75.9461 35.7184 75.9824 35.7416 76.0181 35.7659C76.0549 35.7908 76.0913 35.8165 76.1269 35.843C76.1638 35.8705 76.2001 35.8989 76.2358 35.9282C76.2728 35.9587 76.309 35.9902 76.3446 36.0224C76.3817 36.0562 76.4181 36.0906 76.4534 36.1263C76.4908 36.1637 76.5269 36.2025 76.5622 36.2421C76.5996 36.2843 76.6359 36.3275 76.671 36.372C76.7088 36.4198 76.745 36.4689 76.7799 36.5193C76.8179 36.5745 76.8543 36.6312 76.8886 36.6894C76.9274 36.7549 76.9637 36.8224 76.9974 36.8917C77.0375 36.9739 77.0739 37.0585 77.1063 37.1455C77.1499 37.2624 77.1863 37.3837 77.2151 37.5088C77.2649 37.7257 77.2917 37.9542 77.2917 38.1927C77.2917 38.4324 77.265 38.6618 77.2151 38.8794C77.1863 39.0049 77.1499 39.1265 77.1063 39.2436C77.0738 39.3309 77.0375 39.4156 76.9974 39.498C76.9637 39.5673 76.9274 39.6349 76.8886 39.7006C76.8543 39.7588 76.818 39.8155 76.7799 39.8707C76.745 39.9211 76.7087 39.9703 76.671 40.0181C76.6359 40.0626 76.5996 40.1058 76.5622 40.1479C76.5269 40.1875 76.4907 40.2262 76.4534 40.2637C76.4181 40.2993 76.3816 40.3338 76.3446 40.3675C76.309 40.3996 76.2728 40.4308 76.2358 40.4612C76.2001 40.4904 76.1639 40.5188 76.1269 40.5462C76.0913 40.5727 76.0549 40.5982 76.0181 40.6231C75.9824 40.6472 75.9461 40.6705 75.9093 40.6929C75.8735 40.7148 75.8372 40.736 75.8005 40.7563C75.7647 40.7762 75.7284 40.7953 75.6917 40.8135C75.6558 40.8314 75.6195 40.8486 75.5829 40.8651C75.5469 40.8812 75.5107 40.8965 75.474 40.9112C75.4381 40.9256 75.4018 40.9394 75.3653 40.9523C75.3293 40.965 75.293 40.9771 75.2565 40.9884C75.2204 40.9996 75.1841 41.01 75.1476 41.0198C75.1115 41.0294 75.0753 41.0384 75.0388 41.0467L74.9958 41.0562C74.9761 41.0607 74.954 41.0651 74.9301 41.0692C74.8969 41.075 74.8601 41.0806 74.8212 41.0858C74.7865 41.0904 74.7498 41.0949 74.7124 41.099C74.6767 41.1029 74.6402 41.1065 74.6036 41.1097C74.5671 41.113 74.5306 41.1159 74.4948 41.1184C74.4574 41.1211 74.4209 41.1234 74.386 41.1252C74.3474 41.1271 74.3107 41.1286 74.2772 41.1294L74.2188 41.1301H74.1683H74.0595H73.9508H73.8419H73.7331H73.6242H73.5155H73.4067H73.2978H73.189H73.0802H72.9714H72.8626H72.7538H72.6449H72.5362H72.4274H72.3185H72.2097H72.101H71.9921H71.8833H71.7745H71.6657H71.5569H71.4481H71.3392H71.2304H71.1217H71.0128H70.904H70.7951H70.6864H70.5776H70.4687H70.3599H70.2511H70.1423H70.0335H69.9247H69.8158H69.7071H69.5983H69.4894H69.3806H69.2719H69.163H69.0542H68.9454H68.8366H68.7278H68.619H68.5101H68.4013H68.2925H68.1837H68.0749H67.966H67.8573H67.7485H67.6922V35.256ZM76.4538 28.6079C76.4975 28.8051 76.521 29.0138 76.521 29.2338C76.521 29.4533 76.4975 29.662 76.4538 29.859C76.4256 29.9856 76.3891 30.1073 76.3449 30.224C76.3126 30.3091 76.2763 30.3915 76.2361 30.471C76.2025 30.5378 76.1661 30.6025 76.1274 30.6651C76.093 30.7205 76.0566 30.7743 76.0185 30.8265C75.9837 30.8741 75.9474 30.9202 75.9097 30.965C75.8746 31.0067 75.8385 31.0472 75.8009 31.0864C75.7657 31.1233 75.7294 31.159 75.6921 31.1937C75.6567 31.2266 75.6204 31.2586 75.5833 31.2895C75.5477 31.3191 75.5115 31.3477 75.4745 31.3754C75.4389 31.4021 75.4026 31.4278 75.3657 31.4528C75.33 31.4768 75.2936 31.5 75.2568 31.5223C75.221 31.5441 75.1848 31.565 75.1481 31.5851C75.1123 31.6046 75.076 31.6235 75.0393 31.6415C75.0034 31.6592 74.967 31.676 74.9304 31.6921C74.8945 31.7079 74.8583 31.7228 74.8216 31.7371C74.7856 31.7511 74.7494 31.7644 74.7129 31.7769C74.6769 31.7893 74.6406 31.801 74.6041 31.8118C74.568 31.8226 74.5317 31.8328 74.4952 31.8421C74.4592 31.8514 74.423 31.8599 74.3864 31.8678C74.3504 31.8756 74.3141 31.8825 74.2776 31.889L74.2512 31.8937C74.23 31.8973 74.2019 31.9014 74.1688 31.9055C74.1367 31.9095 74.0998 31.9137 74.06 31.9176C74.0255 31.9211 73.9889 31.9245 73.9512 31.9276C73.9156 31.9306 73.879 31.9331 73.8423 31.9355C73.8058 31.9378 73.7692 31.9397 73.7336 31.9412C73.6959 31.9427 73.6592 31.9437 73.6248 31.9438L73.6076 31.9439H73.516H73.4071H73.2983H73.1896H73.0807H72.9719H72.8631H72.7544H72.6455H72.5367H72.4279H72.3191H72.2103H72.1015H71.9926H71.8838H71.7751H71.6663H71.5574H71.4486H71.3399H71.231H71.1222H71.0134H70.9046H70.7958H70.687H70.5782H70.4693H70.3606H70.2518H70.1429H70.0341H69.9253H69.8166H69.7077H69.5989H69.4901H69.3813H69.2725H69.1637H69.0548H68.9461H68.8373H68.7285H68.6196H68.5108H68.4021H68.2932H68.1844H68.0756H67.9668H67.858H67.7492H67.6922V26.5233H67.7492H67.858H67.9668H68.0756H68.1844H68.2932H68.4021H68.5108H68.6196H68.7285H68.8373H68.9461H69.0548H69.1637H69.2725H69.3813H69.4901H69.5989H69.7077H69.8166H69.9253H70.0341H70.1429H70.2518H70.3606H70.4693H70.5782H70.687H70.7958H70.9046H71.0134H71.1222H71.231H71.3399H71.4486H71.5574H71.6663H71.7751H71.8838H71.9926H72.1015H72.2103H72.3191H72.4279H72.5367H72.6455H72.7544H72.8631H72.9719H73.0807H73.1896H73.2983H73.4071H73.516H73.6248H73.6706L73.7336 26.5254C73.7692 26.5268 73.8058 26.5289 73.8423 26.5313C73.879 26.5336 73.9156 26.5362 73.9512 26.5391C73.9889 26.5421 74.0255 26.5455 74.06 26.5488C74.0998 26.5526 74.1367 26.5565 74.1688 26.5601C74.2019 26.5639 74.23 26.5674 74.2512 26.5704L74.2776 26.5751C74.3141 26.5816 74.3504 26.5888 74.3864 26.5967C74.423 26.6047 74.4592 26.6133 74.4952 26.6226C74.5317 26.6322 74.568 26.6422 74.6041 26.6531C74.6406 26.6642 74.6769 26.6759 74.7129 26.6883C74.7494 26.7009 74.7856 26.7143 74.8216 26.7284C74.8583 26.7427 74.8945 26.7579 74.9304 26.7736C74.967 26.7898 75.0034 26.8067 75.0393 26.8243C75.076 26.8424 75.1123 26.8612 75.1481 26.8808C75.1848 26.9009 75.221 26.9219 75.2568 26.9437C75.2936 26.966 75.33 26.9892 75.3657 27.0133C75.4026 27.0382 75.4389 27.0642 75.4745 27.0909C75.5115 27.1186 75.5477 27.1472 75.5833 27.1768C75.6204 27.2078 75.6567 27.2397 75.6921 27.2727C75.7294 27.3073 75.7657 27.343 75.8009 27.3799C75.8385 27.4191 75.8746 27.4596 75.9097 27.5013C75.9474 27.5461 75.9837 27.5924 76.0185 27.6399C76.0566 27.6921 76.093 27.7458 76.1274 27.8013C76.1661 27.8639 76.2025 27.9287 76.2361 27.9954C76.2763 28.0749 76.3126 28.1575 76.3449 28.2427C76.3891 28.3593 76.4256 28.4811 76.4538 28.6079ZM89.9478 0.5H89.9925L89.9924 56.171C89.9924 56.5036 89.9768 56.8327 89.9478 57.1579C89.9224 57.444 89.886 57.7271 89.839 58.0067C89.8074 58.1946 89.7711 58.3807 89.7302 58.5653C89.6969 58.7154 89.6606 58.8645 89.6213 59.0122C89.5873 59.1398 89.551 59.2663 89.5125 59.392C89.4778 59.5057 89.4419 59.6188 89.4037 59.7309C89.3689 59.8326 89.3324 59.9334 89.2949 60.0338C89.2599 60.1272 89.2234 60.22 89.186 60.3123C89.1508 60.399 89.1146 60.485 89.0772 60.5706C89.0419 60.6517 89.0055 60.7323 88.9684 60.8124C88.9329 60.8886 88.8967 60.9645 88.8596 61.0397C88.824 61.1119 88.7878 61.1838 88.7507 61.255C88.7152 61.3234 88.6788 61.3914 88.6419 61.4588C88.6064 61.5238 88.5699 61.588 88.5331 61.6521C88.4974 61.7142 88.4611 61.7758 88.4243 61.8371C88.3885 61.8968 88.3522 61.9561 88.3154 62.0151C88.2795 62.0724 88.2434 62.1297 88.2065 62.1865C88.1708 62.2413 88.1343 62.2957 88.0977 62.3499C88.0619 62.4027 88.0255 62.4549 87.9889 62.5071C87.953 62.5583 87.9167 62.6094 87.88 62.66C87.8441 62.7093 87.8079 62.7585 87.7712 62.8073C87.7354 62.8548 87.6989 62.9018 87.6624 62.9487C87.6264 62.9949 87.5902 63.0411 87.5536 63.0867C87.5176 63.1315 87.4814 63.1759 87.4447 63.2201C87.4088 63.2633 87.3724 63.3062 87.3359 63.3488C87.2998 63.391 87.2639 63.4334 87.2271 63.4751C87.1912 63.5158 87.1547 63.556 87.1183 63.5962C87.0823 63.6359 87.0459 63.6754 87.0094 63.7146C86.9733 63.7532 86.9373 63.7918 86.9006 63.8299C86.8647 63.8673 86.8282 63.9041 86.7918 63.9411C86.7556 63.9778 86.7196 64.0146 86.6829 64.0508C86.647 64.0862 86.6105 64.1208 86.5741 64.1557C86.5379 64.1904 86.5019 64.2251 86.4652 64.2593C86.4293 64.2929 86.3929 64.3261 86.3565 64.3592C86.3204 64.3921 86.284 64.4248 86.2476 64.4571C86.2115 64.4891 86.1753 64.5209 86.1388 64.5524C86.1027 64.5836 86.0664 64.6144 86.0299 64.6452C85.9938 64.6756 85.9577 64.706 85.9212 64.736C85.8852 64.7656 85.8487 64.7947 85.8123 64.8238C85.7761 64.8528 85.74 64.8817 85.7035 64.9103C85.6675 64.9385 85.631 64.966 85.5946 64.9937C85.5585 65.0212 85.5224 65.0488 85.4859 65.076C85.4499 65.1027 85.4133 65.1289 85.377 65.1553C85.3407 65.1815 85.3046 65.2079 85.2681 65.2337C85.2321 65.2592 85.1957 65.284 85.1593 65.309C85.1231 65.334 85.087 65.3591 85.0505 65.3836C85.0144 65.4078 84.978 65.4314 84.9417 65.4553C84.9055 65.479 84.8693 65.5027 84.8328 65.5261C84.7967 65.5491 84.7604 65.5718 84.724 65.5944C84.6879 65.6169 84.6516 65.6395 84.6152 65.6616C84.5791 65.6835 84.5428 65.7051 84.5064 65.7267L84.3975 65.7903C84.3613 65.8111 84.3252 65.8319 84.2887 65.8524C84.2527 65.8727 84.2162 65.8926 84.1799 65.9126C84.1436 65.9324 84.1075 65.9525 84.0711 65.9719C84.035 65.9911 83.9986 66.0097 83.9622 66.0286C83.9259 66.0475 83.8899 66.0668 83.8533 66.0854C83.8174 66.1036 83.7808 66.121 83.7446 66.1389C83.7083 66.1568 83.6722 66.1748 83.6357 66.1922C83.5996 66.2095 83.5632 66.2264 83.5269 66.2434L83.418 66.2936L83.3093 66.3423C83.2731 66.3583 83.2367 66.3738 83.2004 66.3894C83.1641 66.4049 83.128 66.4208 83.0916 66.4359C83.0555 66.451 83.0191 66.4651 82.9827 66.4799C82.9465 66.4945 82.9104 66.5095 82.874 66.5238C82.8378 66.5379 82.8014 66.5514 82.7651 66.5652C82.7289 66.5789 82.6927 66.5926 82.6563 66.606L82.5474 66.6456C82.5113 66.6585 82.4748 66.671 82.4386 66.6835C82.4023 66.696 82.3663 66.709 82.3298 66.7212C82.2937 66.7333 82.2572 66.7445 82.2209 66.7561L82.1121 66.791C82.076 66.8023 82.0396 66.8131 82.0033 66.8241L81.8945 66.8561C81.8582 66.8666 81.8221 66.8774 81.7856 66.8875C81.7495 66.8976 81.7131 66.9069 81.6768 66.9167C81.6406 66.9264 81.6044 66.9363 81.568 66.9457L81.4592 66.9728L81.3503 66.999L81.2415 67.0246C81.2054 67.0328 81.169 67.0402 81.1327 67.048C81.0964 67.0559 81.0602 67.064 81.0238 67.0715L80.915 67.0929L80.8061 67.1135C80.7699 67.1202 80.7337 67.1274 80.6974 67.1337C80.6612 67.14 80.6248 67.1456 80.5885 67.1515L80.4797 67.1693L80.3708 67.1855L80.2621 67.2005C80.2257 67.2054 80.1896 67.2109 80.1532 67.2156C80.117 67.2201 80.0806 67.2237 80.0444 67.2279C80.0081 67.232 79.9719 67.2363 79.9355 67.2402C79.8993 67.244 79.8631 67.2479 79.8268 67.2514C79.7906 67.2549 79.7541 67.2578 79.7179 67.2609C79.6815 67.264 79.6454 67.2676 79.609 67.2704C79.5728 67.2732 79.5365 67.2754 79.5002 67.2779L79.3914 67.2847C79.3551 67.2868 79.3189 67.2894 79.2826 67.2912C79.2464 67.293 79.21 67.2939 79.1737 67.2953L79.0649 67.2994L78.9561 67.3022C78.9199 67.303 78.8835 67.303 78.8473 67.3036L78.7384 67.3049L78.716 67.3052H78.6296H78.5208H78.412H78.3031H78.1942H78.0855H77.9766H77.8678H77.7589H77.6502H77.5413H77.4325H77.3236H77.2149H77.106H76.9971H76.8883H76.7795H76.6707H76.5618H76.453H76.3442H76.2354H76.1265H76.0177H75.9089H75.8001H75.6912H75.5823H75.4736H75.3647H75.2559H75.147H75.0383H74.9294H74.8206H74.7117H74.603H74.4941H74.3853H74.2764H74.1676H74.0588H73.9499H73.8411H73.7323H73.6235H73.5146H73.4058H73.297H73.1882H73.0793H72.9705H72.8617H72.7528H72.644H72.5351H72.4264H72.3175H72.2087H72.0998H71.9911H71.8822H71.7734H71.6645H71.5558H71.4469H71.338H71.2292H71.1204H71.0116H70.9027H70.7939H70.6851H70.5763H70.4674H70.3586H70.2498H70.141H70.0321H69.9232H69.8145H69.7056H69.5968H69.4879H69.3792H69.2703H69.1615H69.0526H68.9439H68.835H68.7262H68.6173H68.5085H68.3997H68.2908H68.182H68.0732H67.9644H67.8555H67.7467H67.6379H67.5291H67.4202H67.3114H67.2026H67.0937H66.9849H66.876H66.7673H66.6584H66.5496H66.4407H66.332H66.2231H66.1143H66.0054H65.8967H65.7878H65.6789H65.5701H65.4613H65.3525H65.2436H65.1348H65.026H64.9172H64.8083H64.6995H64.5907H64.4819H64.373H64.2641H64.1554H64.0465H63.9377H63.8288H63.7201H63.6112H63.5024H63.3935H63.2848H63.1759H63.0671H62.9582H62.8494H62.7406H62.6317H62.5229H62.4141H62.1793V44.6062H62.4141H62.5229H62.6317H62.7406H62.8494H62.9582H63.0671H63.1759H63.2848H63.3935H63.5024H63.6112H63.7201H63.8288H63.9377H64.0465H64.1554H64.2641H64.373H64.4819H64.5907H64.6995H64.8083H64.9172H65.026H65.1348H65.2436H65.3525H65.4613H65.5701H65.6789H65.7878H65.8967H66.0054H66.1143H66.2231H66.332H66.4407H66.5496H66.6584H66.7673H66.876H66.9849H67.0937H67.2026H67.3114H67.4202H67.5291H67.6379H67.7467H67.8555H67.9644H68.0732H68.182H68.2908H68.3997H68.5085H68.6173H68.7262H68.835H68.9439H69.0526H69.1615H69.2703H69.3792H69.4879H69.5968H69.7056H69.8145H69.9232H70.0321H70.141H70.2498H70.3586H70.4674H70.5763H70.6851H70.7939H70.9027H71.0116H71.1204H71.2292H71.338H71.4469H71.5558H71.6645H71.7734H71.8822H71.9911H72.0998H72.2087H72.3175H72.4264H72.5351H72.644H72.7528H72.8617H72.9705H73.0793H73.1882H73.297H73.4058H73.5146H73.6235H73.7323H73.8411H73.9499H74.0588H74.1676H74.2764H74.3853H74.4941H74.603H74.7117H74.8206H74.9294H75.0383H75.147H75.2559H75.3647H75.4736H75.5823H75.6912H75.8001H75.9089H76.0177H76.1265H76.2354H76.3442H76.453H76.5618H76.6707H76.7795H76.8883H76.9971H77.106H77.2149H77.3236H77.4325H77.5413H77.6502H77.7589H77.8678H77.9766H78.0855H78.1942H78.3031H78.412H78.5208H78.6296H78.7384H78.8473H78.9561H79.0649H79.1737H79.2826H79.3914H79.5002H79.609H79.6667L79.7179 44.6057L79.8268 44.6048L79.9355 44.6026C79.9719 44.6017 80.0082 44.6012 80.0444 44.5999C80.0808 44.5987 80.1169 44.597 80.1532 44.5954L80.2621 44.5904L80.3708 44.5839L80.4797 44.5765L80.5885 44.5681L80.6974 44.5582C80.7336 44.5549 80.7701 44.5516 80.8061 44.5478C80.8426 44.5441 80.8787 44.5398 80.915 44.5356L81.0238 44.5225C81.0602 44.5179 81.0965 44.5134 81.1327 44.5084C81.1691 44.5035 81.2053 44.4979 81.2415 44.4926C81.2779 44.4872 81.3142 44.4818 81.3503 44.476L81.4592 44.4579L81.568 44.4386C81.6043 44.4319 81.6408 44.4254 81.6768 44.4184C81.7133 44.4113 81.7494 44.4036 81.7856 44.3961L81.8945 44.3729C81.9308 44.3649 81.9672 44.3568 82.0033 44.3485C82.0398 44.34 82.076 44.331 82.1121 44.3221C82.1485 44.3132 82.1848 44.3041 82.2209 44.2948C82.2573 44.2853 82.2937 44.2758 82.3298 44.2659C82.3662 44.256 82.4024 44.2457 82.4386 44.2353C82.475 44.2248 82.5114 44.2142 82.5474 44.2034L82.6563 44.1697C82.6928 44.1582 82.7289 44.1463 82.7651 44.1343C82.8015 44.1221 82.8379 44.11 82.874 44.0975C82.9104 44.0848 82.9468 44.0722 82.9827 44.0591C83.0194 44.0458 83.0554 44.0319 83.0916 44.0182C83.128 44.0043 83.1643 43.9902 83.2004 43.9759C83.2368 43.9614 83.2733 43.9469 83.3093 43.932C83.3458 43.9168 83.382 43.9013 83.418 43.8857C83.4546 43.8698 83.4908 43.8536 83.5269 43.8372C83.5634 43.8206 83.5997 43.804 83.6357 43.787C83.6721 43.7698 83.7086 43.7524 83.7446 43.7347C83.7812 43.7166 83.8173 43.6983 83.8533 43.6796C83.8899 43.6608 83.9261 43.6415 83.9622 43.6221C83.9988 43.6024 84.0351 43.5826 84.0711 43.5623C84.1076 43.5419 84.144 43.5211 84.1799 43.5C84.2164 43.4786 84.2528 43.4571 84.2887 43.4351C84.3254 43.4125 84.3615 43.3897 84.3975 43.3666C84.4342 43.3431 84.4704 43.3193 84.5064 43.2951C84.543 43.2706 84.5793 43.2457 84.6152 43.2205C84.6519 43.1947 84.6881 43.1687 84.724 43.1424C84.7607 43.1155 84.797 43.0882 84.8328 43.0606C84.8695 43.0323 84.9059 43.0038 84.9417 42.9748C84.9784 42.9452 85.0147 42.9151 85.0505 42.8848C85.0873 42.8536 85.1235 42.8219 85.1593 42.7899C85.1961 42.757 85.2324 42.7236 85.2681 42.69C85.305 42.6552 85.3413 42.6201 85.377 42.5844C85.414 42.5476 85.4501 42.5103 85.4859 42.4725C85.5227 42.4335 85.559 42.3939 85.5946 42.3539C85.6316 42.3123 85.668 42.2702 85.7035 42.2275C85.7406 42.1831 85.7768 42.1381 85.8123 42.0926C85.8494 42.0448 85.8859 41.9968 85.9212 41.9479C85.9586 41.896 85.9946 41.8432 86.0299 41.7899C86.0674 41.7334 86.1037 41.6763 86.1388 41.6184C86.1765 41.5561 86.2128 41.4929 86.2476 41.429C86.2855 41.3594 86.322 41.2891 86.3565 41.2175C86.395 41.1376 86.4311 41.0564 86.4652 40.9741C86.5044 40.8797 86.5408 40.784 86.5741 40.6866C86.6151 40.5665 86.6511 40.444 86.6829 40.3194C86.7293 40.1373 86.7658 39.9503 86.7918 39.7588C86.8233 39.5264 86.8399 39.2876 86.8399 39.0423C86.8399 38.8033 86.8235 38.5712 86.7918 38.3457C86.7657 38.1605 86.7293 37.98 86.6829 37.8043C86.6512 37.6845 86.6149 37.567 86.5741 37.4517C86.5407 37.3572 86.5045 37.264 86.4652 37.1727C86.4312 37.0935 86.3949 37.0154 86.3565 36.9387C86.3219 36.8695 86.2856 36.8014 86.2476 36.7342C86.2127 36.6724 86.1765 36.6113 86.1388 36.5512C86.1038 36.4954 86.0674 36.4403 86.0299 36.386C85.9947 36.3347 85.9585 36.2837 85.9212 36.2338C85.8859 36.1865 85.8495 36.1401 85.8123 36.0942C85.7768 36.0502 85.7406 36.0068 85.7035 35.9639C85.6679 35.9227 85.6317 35.8819 85.5946 35.8418C85.559 35.8031 85.5228 35.7649 85.4859 35.7272C85.4502 35.6909 85.4139 35.6551 85.377 35.6196C85.3413 35.5852 85.3049 35.5513 85.2681 35.5178C85.2324 35.4853 85.196 35.4532 85.1593 35.4215C85.1235 35.3906 85.0873 35.3601 85.0505 35.33C85.0147 35.3006 84.9784 35.2715 84.9417 35.2428C84.9058 35.2149 84.8695 35.1872 84.8328 35.1599C84.7969 35.1332 84.7607 35.1069 84.724 35.0808C84.6881 35.0553 84.6518 35.0301 84.6152 35.0053C84.5793 34.981 84.543 34.9568 84.5064 34.9331C84.4704 34.9097 84.4341 34.8866 84.3975 34.8639C84.3615 34.8417 84.3254 34.8196 84.2887 34.7978C84.2528 34.7766 84.2165 34.7555 84.1799 34.7348C84.1439 34.7144 84.1076 34.6943 84.0711 34.6744C84.0351 34.6548 83.9988 34.6356 83.9622 34.6166C83.9262 34.5978 83.8899 34.5793 83.8533 34.5609C83.8174 34.5429 83.7811 34.525 83.7446 34.5075C83.7085 34.4902 83.6723 34.473 83.6357 34.4562C83.5997 34.4396 83.5634 34.4235 83.5269 34.4074C83.4909 34.3916 83.4546 34.376 83.418 34.3606C83.382 34.3454 83.3457 34.3304 83.3093 34.3156C83.2731 34.301 83.237 34.2864 83.2004 34.2722C83.1643 34.2583 83.128 34.2444 83.0916 34.2309C83.0555 34.2175 83.0192 34.2046 82.9827 34.1916C82.9467 34.1788 82.9104 34.1663 82.874 34.1539C82.8378 34.1416 82.8016 34.1294 82.7651 34.1174C82.729 34.1057 82.6927 34.0942 82.6563 34.0829C82.6202 34.0716 82.5838 34.0608 82.5474 34.05L82.4386 34.0185C82.4024 34.0082 82.3662 33.998 82.3298 33.9882C82.2937 33.9785 82.2573 33.9691 82.2209 33.9599C82.1848 33.9506 82.1486 33.9417 82.1121 33.9328C82.076 33.924 82.0397 33.9152 82.0033 33.9069C81.9672 33.8985 81.9308 33.8904 81.8945 33.8825C81.8584 33.8745 81.8221 33.867 81.7856 33.8595C81.7494 33.852 81.7133 33.8445 81.6768 33.8375L81.568 33.8169L81.4592 33.7978C81.423 33.7915 81.3868 33.7853 81.3503 33.7795L81.2415 33.7626C81.2054 33.7571 81.169 33.7521 81.1327 33.7471L81.0238 33.7324L80.915 33.7188L80.8061 33.7067L80.6974 33.6954L80.5885 33.6854L80.4797 33.6764L80.3792 33.6688L80.3791 33.54L80.4797 33.5246L80.5885 33.5068C80.6249 33.5007 80.6613 33.4946 80.6974 33.4881L80.8061 33.4674C80.8427 33.4603 80.8789 33.4529 80.915 33.4453L81.0238 33.4219C81.0602 33.4138 81.0967 33.4056 81.1327 33.397C81.1692 33.3883 81.2054 33.3792 81.2415 33.3701C81.2781 33.3609 81.3142 33.3513 81.3503 33.3417C81.3868 33.3319 81.4231 33.3219 81.4592 33.3117C81.4956 33.3014 81.532 33.2909 81.568 33.2802C81.6044 33.2693 81.6408 33.2581 81.6768 33.2467C81.7134 33.2351 81.7495 33.2232 81.7856 33.2111C81.8222 33.1989 81.8584 33.1864 81.8945 33.1737C81.931 33.1609 81.9673 33.1479 82.0033 33.1345C82.0398 33.121 82.0761 33.1073 82.1121 33.0933C82.1487 33.0791 82.1849 33.0646 82.2209 33.0499C82.2575 33.035 82.2938 33.0198 82.3298 33.0043C82.3664 32.9885 82.4026 32.9725 82.4386 32.9562C82.4752 32.9397 82.5114 32.9228 82.5474 32.9057C82.5841 32.8883 82.6203 32.8706 82.6563 32.8527C82.6928 32.8344 82.7292 32.8159 82.7651 32.7971C82.8017 32.778 82.8381 32.7585 82.874 32.7388C82.9106 32.7187 82.9468 32.6983 82.9827 32.6776C83.0194 32.6565 83.0557 32.635 83.0916 32.6133C83.1283 32.5911 83.1645 32.5687 83.2004 32.5459C83.2371 32.5226 83.2734 32.4988 83.3093 32.4749C83.346 32.4504 83.3822 32.4255 83.418 32.4003C83.4548 32.3745 83.4911 32.3484 83.5269 32.3219C83.5637 32.2948 83.6 32.2673 83.6357 32.2395C83.6725 32.2108 83.7088 32.1819 83.7446 32.1525C83.7814 32.1222 83.8176 32.0915 83.8533 32.0605C83.8903 32.0284 83.9265 31.9958 83.9622 31.963C83.9991 31.929 84.0355 31.8947 84.0711 31.8599C84.108 31.8239 84.1443 31.7876 84.1799 31.7508C84.2169 31.7123 84.2532 31.6735 84.2887 31.6341C84.3258 31.5932 84.3621 31.5516 84.3975 31.5096C84.4347 31.4657 84.471 31.4212 84.5064 31.3762C84.5436 31.3287 84.5799 31.2806 84.6152 31.232C84.6526 31.1804 84.6889 31.1282 84.724 31.0755C84.7616 31.0192 84.7979 30.9624 84.8328 30.9047C84.8706 30.8423 84.907 30.7791 84.9417 30.7153C84.9798 30.645 85.0161 30.5739 85.0505 30.502C85.0892 30.4212 85.1254 30.3391 85.1593 30.2563C85.1988 30.1597 85.2351 30.0618 85.2681 29.9627C85.3096 29.8381 85.346 29.7114 85.377 29.5832C85.4272 29.3751 85.4635 29.1627 85.4859 28.9466C85.5035 28.7761 85.5127 28.6033 85.5127 28.4288C85.5127 28.2445 85.5034 28.0649 85.4859 27.8897C85.4634 27.6658 85.4269 27.4495 85.377 27.2407C85.3459 27.1103 85.3095 26.9828 85.2681 26.8585C85.235 26.759 85.1988 26.6615 85.1593 26.5658C85.1253 26.4834 85.0891 26.4025 85.0505 26.323C85.016 26.2521 84.9797 26.1824 84.9417 26.1138C84.9069 26.051 84.8705 25.9892 84.8328 25.9282C84.7977 25.8717 84.7616 25.8159 84.724 25.7611C84.6889 25.7097 84.6525 25.6591 84.6152 25.6092C84.5799 25.562 84.5436 25.5154 84.5064 25.4695C84.4708 25.4257 84.4348 25.3823 84.3975 25.3397C84.3621 25.2991 84.3257 25.2593 84.2887 25.2199C84.2532 25.1819 84.2168 25.1445 84.1799 25.1075C84.1442 25.0719 84.108 25.0368 84.0711 25.0022C84.0354 24.9686 83.9991 24.9354 83.9622 24.9028C83.9265 24.8712 83.8901 24.8399 83.8533 24.8091C83.8175 24.7791 83.7814 24.7496 83.7446 24.7204C83.7088 24.6921 83.6725 24.6641 83.6357 24.6365C83.5999 24.6096 83.5636 24.5832 83.5269 24.5571C83.491 24.5315 83.4548 24.5064 83.418 24.4816C83.3821 24.4573 83.346 24.4335 83.3093 24.4099C83.2734 24.3867 83.237 24.3639 83.2004 24.3414C83.1645 24.3194 83.1281 24.2978 83.0916 24.2764C83.0556 24.2554 83.0194 24.2347 82.9827 24.2143C82.9468 24.1943 82.9106 24.1745 82.874 24.1551C82.838 24.136 82.8017 24.1173 82.7651 24.0986C82.7291 24.0804 82.6928 24.0624 82.6563 24.0447C82.6202 24.0272 82.5841 24.0098 82.5474 23.993C82.5114 23.9763 82.4751 23.9599 82.4386 23.9438C82.4026 23.928 82.3663 23.9127 82.3298 23.8972C82.2938 23.8821 82.2574 23.8672 82.2209 23.8525C82.1849 23.8381 82.1486 23.8239 82.1121 23.8099C82.0761 23.7961 82.0398 23.7823 82.0033 23.769C81.9672 23.7558 81.931 23.7429 81.8945 23.7302C81.8584 23.7176 81.8221 23.7054 81.7856 23.6933C81.7495 23.6813 81.7133 23.6697 81.6768 23.6582C81.6408 23.6468 81.6045 23.6356 81.568 23.6246C81.5318 23.6137 81.4957 23.6029 81.4592 23.5924C81.4231 23.5822 81.3868 23.5723 81.3503 23.5625C81.3142 23.5527 81.278 23.5433 81.2415 23.5339L81.1327 23.5066C81.0965 23.4978 81.0603 23.4891 81.0238 23.4808C80.9877 23.4725 80.9515 23.4645 80.915 23.4566L80.8061 23.4337C80.77 23.4263 80.7339 23.4188 80.6974 23.4119C80.6613 23.405 80.6248 23.3985 80.5885 23.392L80.4797 23.3731C80.4435 23.367 80.4074 23.3609 80.3708 23.3552L80.2621 23.3389L80.1532 23.3237L80.0444 23.3095L79.9355 23.2967L79.8268 23.2852L79.7179 23.2744L79.609 23.2649L79.5002 23.2566L79.3914 23.249L79.2826 23.2428L79.2394 23.2404L79.1737 23.2364L79.0649 23.2301L78.9561 23.2241L78.8473 23.2185L78.7384 23.2134L78.6296 23.2087L78.5208 23.2048L78.412 23.2015L78.3031 23.1991L78.1942 23.1977L78.1343 23.1975H78.0855H77.9766H77.8678H77.7589H77.6502H77.5413H77.4325H77.3236H77.2149H77.106H76.9971H76.8883H76.7795H76.6707H76.5618H76.453H76.3442H76.2354H76.1265H76.0177H75.9089H75.8001H75.6912H75.5823H75.4736H75.3647H75.2559H75.147H75.0383H74.9294H74.8206H74.7117H74.603H74.4941H74.3853H74.2764H74.1676H74.0588H73.9499H73.8411H73.7323H73.6235H73.5146H73.4058H73.297H73.1882H73.0793H72.9705H72.8617H72.7528H72.644H72.5351H72.4264H72.3175H72.2087H72.0998H71.9911H71.8822H71.7734H71.6645H71.5558H71.4469H71.338H71.2292H71.1204H71.0116H70.9027H70.7939H70.6851H70.5763H70.4674H70.3586H70.2498H70.141H70.0321H69.9232H69.8145H69.7056H69.5968H69.4879H69.3792H69.2703H69.1615H69.0526H68.9439H68.835H68.7262H68.6173H68.5085H68.3997H68.2908H68.182H68.0732H67.9644H67.8555H67.7467H67.6379H67.5291H67.4202H67.3114H67.2026H67.0937H66.9849H66.876H66.7673H66.6584H66.5496H66.4407H66.332H66.2231H66.1143H66.0054H65.8967H65.7878H65.6789H65.5701H65.4613H65.3525H65.2436H65.1348H65.026H64.9172H64.8083H64.6995H64.5907H64.4819H64.373H64.2641H64.1554H64.0465H63.9377H63.8288H63.7201H63.6112H63.5024H63.3935H63.2848H63.1759H63.0671H62.9582H62.8494H62.7406H62.6317H62.5229H62.4141H62.1793V11.6351C62.1793 10.8573 62.2604 10.0982 62.4141 9.36532C62.4471 9.20838 62.4834 9.05277 62.5229 8.89841C62.5568 8.76632 62.5932 8.63521 62.6317 8.50507C62.6662 8.38884 62.7024 8.2734 62.7406 8.15877C62.7754 8.05402 62.8115 7.94981 62.8494 7.84648C62.8845 7.75064 62.9205 7.65534 62.9582 7.56074C62.9935 7.47239 63.0297 7.38447 63.0671 7.29727C63.1025 7.21497 63.1386 7.13303 63.1759 7.0517C63.2112 6.97448 63.2477 6.89779 63.2848 6.82154C63.3201 6.74877 63.3566 6.67654 63.3935 6.60466C63.4291 6.53554 63.4655 6.46695 63.5024 6.39864C63.5379 6.33281 63.5743 6.26743 63.6112 6.20241C63.6469 6.13935 63.6832 6.07682 63.7201 6.01456C63.7559 5.95417 63.7919 5.89405 63.8288 5.83446C63.8646 5.77665 63.9009 5.71929 63.9377 5.6622C63.9733 5.60688 64.0099 5.5521 64.0465 5.4975C64.0824 5.44406 64.1186 5.3908 64.1554 5.33798C64.1913 5.28623 64.2272 5.23448 64.2641 5.18335C64.2999 5.13383 64.3365 5.08493 64.373 5.03603C64.4088 4.98793 64.4453 4.94019 64.4819 4.89271C64.518 4.84595 64.5539 4.79901 64.5907 4.75287C64.6265 4.70798 64.6631 4.6638 64.6995 4.61944C64.7354 4.57571 64.7717 4.53233 64.8083 4.48922C64.8444 4.44665 64.8805 4.40407 64.9172 4.36203C64.953 4.32105 64.9895 4.2808 65.026 4.24036C65.0621 4.20027 65.0981 4.1601 65.1348 4.12056C65.1707 4.08181 65.2072 4.04342 65.2436 4.00512C65.2796 3.96735 65.316 3.92986 65.3525 3.89253C65.3886 3.85575 65.4246 3.81896 65.4613 3.78262C65.4973 3.7469 65.5337 3.71172 65.5701 3.67654C65.6063 3.64153 65.6422 3.60617 65.6789 3.5717C65.7148 3.53794 65.7514 3.50499 65.7878 3.47167C65.824 3.43854 65.86 3.40532 65.8967 3.37263C65.9326 3.34047 65.9691 3.30894 66.0054 3.27732C66.0416 3.24588 66.0778 3.21444 66.1143 3.18344C66.1504 3.15289 66.1866 3.12278 66.2231 3.09268C66.2593 3.06284 66.2954 3.03309 66.332 3.0037C66.368 2.97457 66.4043 2.9458 66.4407 2.91721L66.5496 2.83268L66.6584 2.75038C66.6946 2.72339 66.7308 2.69658 66.7673 2.67004C66.8033 2.64376 66.8396 2.61757 66.876 2.59165L66.9849 2.51532C67.021 2.49029 67.0573 2.46544 67.0937 2.44086L67.2026 2.36809L67.3114 2.29727C67.3476 2.27403 67.3838 2.25087 67.4202 2.22807L67.5291 2.16091C67.5653 2.13873 67.6014 2.11655 67.6379 2.09482C67.6739 2.07326 67.7104 2.05233 67.7467 2.03122C67.783 2.01011 67.819 1.98882 67.8555 1.96816C67.8915 1.94776 67.9281 1.92807 67.9644 1.90803C68.0006 1.88799 68.0366 1.8676 68.0732 1.848C68.1092 1.82867 68.1458 1.80997 68.182 1.79099C68.2183 1.77202 68.2544 1.75296 68.2908 1.73435C68.3269 1.71591 68.3633 1.698 68.3997 1.68001C68.4359 1.66211 68.4721 1.64412 68.5085 1.62657L68.6173 1.57464C68.6535 1.55763 68.6899 1.54106 68.7262 1.52441C68.7625 1.50784 68.7985 1.491 68.835 1.47479C68.8711 1.45876 68.9076 1.44344 68.9439 1.42776C68.9801 1.41209 69.0162 1.39614 69.0526 1.38082C69.0887 1.36568 69.1252 1.35125 69.1615 1.33647C69.1977 1.32177 69.2338 1.30689 69.2703 1.29255L69.3792 1.25024L69.4879 1.20936C69.5243 1.19582 69.5604 1.18211 69.5968 1.16901C69.6329 1.15601 69.6693 1.1438 69.7056 1.13116C69.7419 1.11851 69.778 1.10559 69.8145 1.0933C69.8505 1.0811 69.887 1.06961 69.9232 1.05776L70.0321 1.02294C70.0684 1.01153 70.1045 1.00004 70.141 0.989C70.1771 0.978044 70.2135 0.967712 70.2498 0.957112C70.286 0.946424 70.3222 0.935379 70.3586 0.925136C70.3947 0.914982 70.4312 0.90554 70.4674 0.895742C70.5037 0.885944 70.5398 0.876058 70.5763 0.866616L70.6851 0.838826C70.7212 0.82983 70.7576 0.821279 70.7939 0.812639C70.8302 0.803999 70.8663 0.794736 70.9027 0.786452C70.9388 0.778258 70.9753 0.770776 71.0116 0.762848L71.1204 0.739423L71.2292 0.717244C71.2653 0.710118 71.3018 0.703438 71.338 0.696669C71.3744 0.68981 71.4104 0.682506 71.4469 0.676004C71.4831 0.669502 71.5195 0.66398 71.5558 0.657923L71.6645 0.640109C71.7008 0.634408 71.7371 0.628529 71.7734 0.623185C71.8096 0.617841 71.8459 0.61312 71.8822 0.608132C71.9185 0.603144 71.9546 0.597711 71.9911 0.593079C72.0272 0.588447 72.0636 0.58435 72.0998 0.580075L72.2087 0.567783C72.245 0.563864 72.2811 0.559499 72.3175 0.555937C72.3537 0.552374 72.3901 0.549613 72.4264 0.546406L72.5351 0.536875L72.644 0.52877C72.6802 0.526187 72.7165 0.524138 72.7528 0.521911C72.7891 0.519774 72.8252 0.517013 72.8617 0.515142C72.8978 0.513272 72.9343 0.512203 72.9705 0.510689L73.0793 0.50668C73.1157 0.505522 73.1518 0.504008 73.1882 0.503207C73.2244 0.502405 73.2607 0.502316 73.297 0.501781C73.3332 0.501247 73.3695 0.500623 73.4058 0.500445L73.4332 0.500089H73.5146H73.6235H73.7323H73.8411H73.9499H74.0588H74.1676H74.2764H74.3853H74.4941H74.603H74.7117H74.8206H74.9294H75.0383H75.147H75.2559H75.3647H75.4736H75.5823H75.6912H75.8001H75.9089H76.0177H76.1265H76.2354H76.3442H76.453H76.5618H76.6707H76.7795H76.8883H76.9971H77.106H77.2149H77.3236H77.4325H77.5413H77.6502H77.7589H77.8678H77.9766H78.0855H78.1942H78.3031H78.412H78.5208H78.6296H78.7384H78.8473H78.9561H79.0649H79.1737H79.2826H79.3914H79.5002H79.609H79.7179H79.8268H79.9355H80.0444H80.1532H80.2621H80.3708H80.4797H80.5885H80.6974H80.8061H80.915H81.0238H81.1327H81.2415H81.3503H81.4592H81.568H81.6768H81.7856H81.8945H82.0033H82.1121H82.2209H82.3298H82.4386H82.5474H82.6563H82.7651H82.874H82.9827H83.0916H83.2004H83.3093H83.418H83.5269H83.6357H83.7446H83.8533H83.9622H84.0711H84.1799H84.2887H84.3975H84.5064H84.6152H84.724H84.8328H84.9417H85.0505H85.1593H85.2681H85.377H85.4859H85.5946H85.7035H85.8123H85.9212H86.0299H86.1388H86.2476H86.3565H86.4652H86.5741H86.6829H86.7918H86.9006H87.0094H87.1183H87.2271H87.3359H87.4447H87.5536H87.6624H87.7712H87.88H87.9889H88.0977H88.2065H88.3154H88.4243H88.5331H88.6419H88.7507H88.8596H88.9684H89.0772H89.186H89.2949H89.4037H89.5125H89.6213H89.7302H89.839H89.9478V0.5Z" fill="#54B230"/>
<path fill-rule="evenodd" clip-rule="evenodd" d="M0 39.6329V12.135C0 11.3594 0.0804577 10.6023 0.233345 9.87138C0.266178 9.71444 0.302618 9.55892 0.342036 9.40447C0.37577 9.2722 0.41212 9.141 0.450635 9.01069C0.485001 8.89454 0.521261 8.77928 0.559235 8.66473C0.594052 8.5599 0.630042 8.45551 0.667925 8.35201C0.703013 8.25625 0.738912 8.16104 0.776525 8.06653C0.811613 7.97818 0.847873 7.89008 0.885215 7.80279C0.920483 7.72049 0.956653 7.63873 0.993815 7.55749C1.02917 7.48027 1.06543 7.40367 1.10242 7.32742C1.13777 7.25456 1.17421 7.18224 1.21111 7.11027C1.24655 7.04115 1.28281 6.97256 1.31971 6.90434C1.35524 6.83851 1.3915 6.77313 1.42831 6.70811C1.46393 6.64514 1.5001 6.58252 1.537 6.52035C1.57271 6.45996 1.6087 6.39975 1.64559 6.34007C1.68131 6.28235 1.71757 6.22508 1.75429 6.16808C1.78982 6.11285 1.82635 6.05798 1.86288 6.00338C1.89869 5.94994 1.93477 5.89668 1.97148 5.84386C2.00756 5.79202 2.04328 5.74027 2.08017 5.68905C2.1158 5.63962 2.15233 5.59081 2.18877 5.54191C2.22467 5.49381 2.26084 5.44607 2.29747 5.39859C2.33345 5.35192 2.36935 5.30489 2.40606 5.25875C2.44178 5.21395 2.47831 5.16986 2.51466 5.12559C2.55056 5.08185 2.58673 5.0383 2.62335 4.9951C2.65934 4.95261 2.69533 4.91022 2.73195 4.86826C2.76776 4.8272 2.8042 4.78685 2.84064 4.74632C2.87663 4.70615 2.91262 4.66607 2.94924 4.62652C2.98505 4.58778 3.02149 4.54957 3.05784 4.51136C3.09383 4.4735 3.13 4.436 3.16653 4.39868C3.20252 4.36189 3.2386 4.32511 3.27513 4.28877C3.31103 4.25305 3.34747 4.21787 3.38382 4.18268C3.41999 4.14768 3.4558 4.11241 3.49242 4.07794C3.52823 4.04418 3.56476 4.01122 3.60102 3.97791C3.63719 3.94469 3.67309 3.91137 3.70971 3.87868C3.74561 3.84662 3.78205 3.81518 3.81831 3.78356C3.85448 3.75211 3.89047 3.72058 3.927 3.68959C3.96299 3.65904 3.99925 3.62902 4.0356 3.59891C4.07159 3.56907 4.10776 3.53923 4.1442 3.50984C4.18019 3.4808 4.21654 3.45203 4.25289 3.42335C4.28897 3.39494 4.32505 3.36679 4.36149 3.33883C4.39748 3.31112 4.43383 3.28378 4.47018 3.25652C4.50626 3.22954 4.54243 3.20264 4.57878 3.17609L4.68738 3.09789C4.72346 3.07215 4.75963 3.04658 4.79607 3.02129C4.83206 2.99626 4.86832 2.9715 4.90467 2.94691C4.94075 2.92242 4.97692 2.8981 5.01327 2.87405C5.04935 2.85027 5.08561 2.82685 5.12196 2.80342C5.15804 2.78017 5.19412 2.75675 5.23056 2.73386C5.26655 2.71123 5.3029 2.68914 5.33925 2.66687C5.37542 2.6447 5.41141 2.62225 5.44785 2.60052C5.48375 2.57905 5.52019 2.55821 5.55645 2.5371C5.59271 2.51599 5.62861 2.49452 5.66514 2.47377C5.70104 2.45337 5.73757 2.43386 5.77374 2.41382C5.81 2.39378 5.84599 2.37347 5.88243 2.35379C5.91842 2.33437 5.95477 2.31567 5.99103 2.2967C6.0272 2.27772 6.06328 2.25866 6.09963 2.24005C6.13571 2.22161 6.17197 2.20353 6.20832 2.18545L6.31692 2.13218C6.35309 2.11463 6.38926 2.09709 6.42561 2.07999C6.46169 2.06297 6.49795 2.04649 6.53421 2.02984C6.57047 2.01318 6.60637 1.99617 6.64281 1.97996C6.6788 1.96384 6.71524 1.94869 6.7515 1.93302C6.78767 1.91734 6.82375 1.9014 6.8601 1.88608C6.89618 1.87094 6.93253 1.85633 6.96879 1.84154L7.07739 1.79772L7.18599 1.75514L7.29468 1.71435C7.33094 1.70081 7.36684 1.68683 7.40328 1.67364C7.43927 1.66064 7.4758 1.64853 7.51197 1.63588C7.54814 1.62323 7.58422 1.6104 7.62057 1.59811L7.72917 1.56222L7.83786 1.52739C7.87403 1.51599 7.91011 1.50432 7.94646 1.49327C7.98245 1.48232 8.01889 1.4719 8.05506 1.4613C8.09132 1.45061 8.1274 1.43974 8.16375 1.42941C8.19983 1.41917 8.23609 1.40964 8.27235 1.39975L8.38104 1.37062C8.41721 1.36118 8.45329 1.35156 8.48964 1.34248C8.52572 1.33339 8.56207 1.32511 8.59824 1.31638C8.63441 1.30765 8.67058 1.29857 8.70693 1.29019C8.74301 1.28191 8.77936 1.27416 8.81553 1.26623L8.92422 1.2429C8.96039 1.23524 8.99647 1.22749 9.03282 1.22027C9.0689 1.21315 9.10525 1.20656 9.14142 1.1997C9.17768 1.19284 9.21376 1.18571 9.25011 1.17921C9.28628 1.17271 9.32245 1.16683 9.35871 1.16068L9.4674 1.14287C9.50357 1.13717 9.53965 1.13102 9.576 1.12559C9.61208 1.12016 9.64843 1.11561 9.6846 1.11054C9.72077 1.10555 9.75694 1.1002 9.79329 1.09548L9.90189 1.08203L10.0106 1.06983C10.0468 1.06582 10.0828 1.06119 10.1192 1.05754C10.1553 1.05389 10.1916 1.05122 10.2278 1.04792L10.3365 1.03848C10.3726 1.03545 10.4088 1.03251 10.4451 1.02993C10.4812 1.02734 10.5175 1.0253 10.5538 1.02307C10.59 1.02084 10.6261 1.01826 10.6624 1.0163C10.6984 1.01434 10.7347 1.013 10.771 1.0114L10.8797 1.0073C10.9158 1.00606 10.9519 1.00419 10.9883 1.0033C11.0243 1.0024 11.0607 1.00249 11.0969 1.00196C11.133 1.00143 11.1693 1.0008 11.2055 1.00062L11.3141 1H11.4228H11.5314H11.64H11.7487H11.8573H11.966H12.0746H12.1832H12.2919H12.4005H12.5092H12.6178H12.7264H12.8351H12.9437H13.0524H13.161H13.2696H13.3783H13.4869H13.5956H13.7042H13.8128H13.9214H14.03H14.1387H14.2473H14.3559H14.4646H14.5732H14.6819H14.7905H14.8991H15.0078H15.1164H15.225H15.3337H15.4423H15.551H15.6596H15.7682H15.8769H15.9855H16.0942H16.2028H16.3114H16.4201H16.5287H16.6373H16.7459H16.8545H16.9632H17.0718H17.1805H17.2891H17.3977H17.5064H17.615H17.7236H17.8323H17.9409H18.0496H18.1582H18.2669H18.3755H18.4841H18.5928H18.7014H18.81H18.9187H19.0273H19.136H19.2445H19.3532H19.4618H19.5704H19.6791H19.7877H19.8963H20.005H20.1136H20.2223H20.3309H20.4395H20.5482H20.6568H20.7654H20.8741H20.9827H21.0914H21.2H21.3087H21.4173H21.5259H21.6346H21.7432H21.8518H21.9605H22.069H22.1777H22.2863H22.3949H22.5036H22.6122H22.7209H22.8295H22.9382H23.0468H23.1554H23.2641H23.3727H23.4813H23.59H23.6986H23.8073H23.9159H24.0245H24.1332H24.2418H24.3504H24.4591H24.5677H24.6763H24.7849H24.8936H25.0022H25.1108H25.2195H25.3281H25.4367H25.5454H25.654H25.7627H25.8713H25.9799H26.0886H26.1972H26.3059H26.4145H26.5231H26.6318H26.7404H26.8491H26.9577H27.0663H27.175H27.2836H27.3922H27.5008H27.6094H27.7181H27.8103V56.671C27.8103 57.1553 27.7788 57.6324 27.7181 58.1004C27.6889 58.3257 27.6521 58.5487 27.6094 58.7696C27.577 58.9375 27.5409 59.1043 27.5008 59.2695C27.4671 59.4087 27.431 59.547 27.3922 59.6841C27.358 59.8045 27.3216 59.9239 27.2836 60.0425C27.249 60.1499 27.2127 60.2565 27.175 60.3625C27.1401 60.4606 27.1039 60.5581 27.0663 60.6549C27.0312 60.7453 26.995 60.8351 26.9577 60.9244C26.9225 61.0084 26.8862 61.092 26.8491 61.1749C26.8137 61.2537 26.7775 61.3319 26.7404 61.4097C26.705 61.4839 26.6688 61.5576 26.6318 61.6309C26.5962 61.7012 26.5601 61.7712 26.5231 61.8406C26.4875 61.9075 26.4514 61.9741 26.4145 62.0401C26.3788 62.1041 26.3429 62.1678 26.3059 62.2309C26.2703 62.2919 26.234 62.3524 26.1972 62.4126C26.1617 62.4709 26.1252 62.5285 26.0886 62.5861C26.0529 62.6423 26.0166 62.6981 25.9799 62.7536C25.944 62.8079 25.9081 62.862 25.8713 62.9155C25.8356 62.9675 25.7992 63.019 25.7627 63.0703C25.727 63.1205 25.6906 63.1702 25.654 63.2198C25.6181 63.2685 25.582 63.3171 25.5454 63.3652C25.5096 63.4122 25.4734 63.4589 25.4367 63.5053C25.4009 63.5506 25.3646 63.5955 25.3281 63.6403C25.2921 63.6846 25.2561 63.7288 25.2195 63.7725C25.1837 63.8152 25.1473 63.8573 25.1108 63.8994C25.0749 63.9409 25.0388 63.9821 25.0022 64.023C24.9662 64.0635 24.9303 64.1041 24.8936 64.144C24.8578 64.183 24.8213 64.2213 24.7849 64.2599C24.7489 64.2981 24.713 64.3364 24.6763 64.3741C24.6404 64.411 24.6041 64.4475 24.5677 64.484C24.5317 64.5201 24.4956 64.5559 24.4591 64.5915C24.4231 64.6267 24.3869 64.6616 24.3504 64.6963C24.3145 64.7304 24.2781 64.7641 24.2418 64.7978C24.2057 64.8312 24.1697 64.8647 24.1332 64.8976C24.0973 64.93 24.0608 64.9617 24.0245 64.9936C23.9883 65.0254 23.9525 65.0574 23.9159 65.0887C23.8801 65.1193 23.8434 65.1492 23.8073 65.1795C23.7711 65.2096 23.7351 65.2401 23.6986 65.2699C23.6627 65.2991 23.6262 65.3277 23.59 65.3563C23.5538 65.385 23.5178 65.414 23.4813 65.4422C23.4454 65.47 23.409 65.4971 23.3727 65.5244C23.3365 65.5517 23.3006 65.5791 23.2641 65.6059C23.2282 65.6324 23.1917 65.6581 23.1554 65.6842C23.1192 65.7101 23.0833 65.7363 23.0468 65.7619C23.0109 65.787 22.9745 65.8116 22.9382 65.8363C22.9019 65.861 22.8661 65.8861 22.8295 65.9104C22.7936 65.9342 22.7572 65.9575 22.7209 65.981C22.6847 66.0045 22.6488 66.0285 22.6122 66.0516C22.5763 66.0743 22.5398 66.0962 22.5036 66.1185C22.4675 66.1409 22.4315 66.1636 22.3949 66.1855C22.3589 66.2072 22.3225 66.2282 22.2863 66.2494C22.2502 66.2706 22.2142 66.292 22.1777 66.3128C22.1417 66.3334 22.1054 66.3535 22.069 66.3737C22.033 66.3939 21.9968 66.414 21.9605 66.4337C21.9244 66.4533 21.8882 66.4727 21.8518 66.4918L21.7432 66.5485C21.707 66.5671 21.6709 66.5857 21.6346 66.604C21.5985 66.622 21.5622 66.6396 21.5259 66.6573C21.4897 66.675 21.4537 66.6931 21.4173 66.7104C21.3813 66.7275 21.3448 66.7438 21.3087 66.7606C21.2724 66.7773 21.2364 66.7943 21.2 66.8107C21.164 66.8269 21.1276 66.8424 21.0914 66.8583L20.9827 66.9052L20.8741 66.9507C20.838 66.9656 20.8017 66.98 20.7654 66.9945C20.7292 67.0091 20.6932 67.0238 20.6568 67.038C20.6208 67.052 20.5845 67.0651 20.5482 67.0787C20.5119 67.0923 20.476 67.1062 20.4395 67.1195C20.4034 67.1327 20.3672 67.1453 20.3309 67.1581L20.2223 67.1958L20.1136 67.2326C20.0775 67.2446 20.0412 67.256 20.005 67.2675C19.9688 67.279 19.9328 67.2911 19.8963 67.3023C19.8603 67.3134 19.8239 67.3237 19.7877 67.3344L19.6791 67.3663L19.5704 67.3969C19.5344 67.4069 19.4981 67.4163 19.4618 67.4259C19.4256 67.4355 19.3895 67.4457 19.3532 67.4549C19.3172 67.464 19.2806 67.4722 19.2445 67.481C19.2084 67.4899 19.1722 67.4988 19.136 67.5072L19.0273 67.5319L18.9187 67.5553C18.8824 67.5631 18.8464 67.5714 18.81 67.5788C18.7739 67.5861 18.7375 67.5923 18.7014 67.5993C18.6652 67.6062 18.629 67.6132 18.5928 67.6198L18.4841 67.6392C18.448 67.6454 18.4117 67.651 18.3755 67.6569C18.3392 67.6628 18.3031 67.6692 18.2669 67.6747C18.2308 67.6802 18.1945 67.6848 18.1582 67.69L18.0496 67.7051C18.0134 67.7099 17.9773 67.7148 17.9409 67.7192C17.9048 67.7237 17.8685 67.7274 17.8323 67.7315C17.796 67.7356 17.76 67.7401 17.7236 67.7438C17.6875 67.7476 17.6513 67.7508 17.615 67.7541L17.5064 67.7637C17.4702 67.7667 17.4341 67.7704 17.3977 67.7731C17.3616 67.7758 17.3253 67.7776 17.2891 67.7799L17.1805 67.7867L17.0718 67.7924C17.0358 67.794 16.9994 67.7951 16.9632 67.7964C16.927 67.7978 16.8908 67.7995 16.8545 67.8005C16.8185 67.8015 16.7821 67.8019 16.7459 67.8026L16.6373 67.8039C16.6038 67.8042 16.5703 67.8052 16.5366 67.8052H16.4201H16.3114H16.2028H16.0942H15.9855H15.8769H15.7682H15.6596H15.551H15.4423H15.3337H15.225H15.1164H15.0078H14.8991H14.7905H14.6819H14.5732H14.4646H14.3559H14.2473H14.1387H14.03H13.9214H13.8128H13.7042H13.5956H13.4869H13.3783H13.2696H13.161H13.0524H12.9437H12.8351H12.7264H12.6178H12.5092H12.4005H12.2919H12.1832H12.0746H11.966H11.8573H11.7487H11.64H11.5314H11.4228H11.3141H11.2055H11.0969H10.9883H10.8797H10.771H10.6624H10.5538H10.4451H10.3365H10.2278H10.1192H10.0106H9.90189H9.79329H9.6846H9.576H9.4674H9.35871H9.25011H9.14142H9.03282H8.92422H8.81553H8.70693H8.59824H8.48964H8.38104H8.27235H8.16375H8.05506H7.94646H7.83786H7.72917H7.62057H7.51197H7.40328H7.29468H7.18599H7.07739H6.96879H6.8601H6.7515H6.64281H6.53421H6.42561H6.31692H6.20832H6.09963H5.99103H5.88243H5.77374H5.66514H5.55645H5.44785H5.33925H5.23056H5.12196H5.01327H4.90467H4.79607H4.68738H4.57878H4.47018H4.36149H4.25289H4.1442H4.0356H3.927H3.81831H3.70971H3.60102H3.49242H3.38382H3.27513H3.16653H3.05784H2.94924H2.84064H2.73195H2.62335H2.51466H2.40606H2.29747H2.18877H2.08017H1.97148H1.86288H1.75429H1.64559H1.537H1.42831H1.31971H1.21111H1.10242H0.993815H0.885215H0.776525H0.667925H0.559235H0.450635H0.342036H0.233345H0V44.3404C0 44.3404 0.0802773 44.3622 0.233345 44.4004L0.342036 44.4272L0.450635 44.4534L0.559235 44.4791L0.667925 44.5045L0.776525 44.5294L0.885215 44.554L0.993815 44.5782L1.10242 44.6021L1.21111 44.6256L1.31971 44.6489L1.42831 44.6718L1.537 44.6944L1.64559 44.7167L1.75429 44.7387L1.86288 44.7604L1.97148 44.7818L2.08017 44.803L2.18877 44.8239L2.29747 44.8446L2.40606 44.865L2.51466 44.8851L2.62335 44.9049L2.73195 44.9245L2.84064 44.9439L2.94924 44.963L3.05784 44.9818L3.16653 45.0004L3.27513 45.0187L3.38382 45.0368L3.49242 45.0546L3.60102 45.0722L3.70971 45.0896L3.81831 45.1067L3.927 45.1236L4.0356 45.1403L4.1442 45.1567L4.25289 45.1729L4.36149 45.1888L4.47018 45.2045L4.57878 45.22L4.68738 45.2352L4.79607 45.2503L4.90467 45.265L5.01327 45.2796L5.12196 45.2938L5.23056 45.3079L5.33925 45.3218L5.44785 45.3353L5.55645 45.3488L5.66514 45.3619L5.77374 45.3749L5.88243 45.3874L5.99103 45.4L6.09963 45.4121L6.20832 45.4242L6.31692 45.436L6.42561 45.4475L6.53421 45.4589L6.64281 45.4698L6.7515 45.4808L6.8601 45.4913L6.96879 45.5017L7.07739 45.512L7.18599 45.5218L7.29468 45.5317L7.40328 45.5409L7.51197 45.5502L7.62057 45.5592L7.72917 45.5679L7.83786 45.5765L7.94646 45.5846L8.05506 45.5928L8.16375 45.6006L8.27235 45.6082L8.38104 45.6156L8.48964 45.6226L8.59824 45.6295L8.70693 45.6362L8.81553 45.6425L8.92422 45.6489L9.03282 45.6547L9.14142 45.6604L9.25011 45.6659L9.35871 45.671L9.4674 45.676L9.576 45.6807L9.6846 45.6851L9.79329 45.6896L9.90189 45.6933L10.0106 45.6971L10.1192 45.7007L10.2278 45.7038L10.3365 45.707L10.4451 45.7097L10.5538 45.7121L10.6624 45.7146L10.771 45.7164L10.8797 45.7182L10.9883 45.7198L11.0969 45.7208L11.2055 45.722L11.3141 45.7228L11.4228 45.7232L11.5314 45.7234L11.64 45.7232L11.7487 45.7225L11.8573 45.7219L11.966 45.7213L12.0746 45.7207L12.1832 45.7187L12.2919 45.7167L12.4005 45.7148L12.5092 45.7128L12.6178 45.7101L12.7264 45.7068L12.8351 45.7035L12.9437 45.7002L13.0524 45.6966L13.161 45.6919L13.2696 45.6872L13.3783 45.6824L13.4869 45.6776L13.5956 45.6717L13.7042 45.6655L13.8128 45.6593L13.9214 45.6531L14.03 45.6459L14.1387 45.6382L14.2473 45.6305L14.3559 45.6228L14.4646 45.6142L14.5732 45.605L14.6819 45.5957L14.7905 45.5863L14.8991 45.5763L15.0078 45.5653L15.1164 45.5545L15.225 45.5435L15.3337 45.5316L15.4423 45.519L15.551 45.5064L15.6596 45.4938L15.7682 45.4798L15.8769 45.4655L15.9855 45.4511L16.0942 45.4365C16.1308 45.4314 16.1664 45.4257 16.2028 45.4204L16.3114 45.4043L16.4201 45.3881L16.5287 45.3711C16.5652 45.3653 16.601 45.3589 16.6373 45.353L16.7459 45.335C16.7819 45.3289 16.8188 45.3231 16.8545 45.3169C16.8912 45.3105 16.9268 45.3036 16.9632 45.297L17.0718 45.277L17.1805 45.257L17.2891 45.2359C17.3257 45.2288 17.3615 45.2211 17.3977 45.2138L17.5064 45.1918L17.615 45.1693C17.6517 45.1616 17.6873 45.1532 17.7236 45.1452L17.8323 45.1209C17.8683 45.1128 17.9052 45.1051 17.9409 45.0968C17.9776 45.0883 18.0132 45.0793 18.0496 45.0706L18.1582 45.0442C18.1943 45.0353 18.2311 45.0268 18.2669 45.0178C18.3034 45.0086 18.3393 44.999 18.3755 44.9897L18.4841 44.961C18.5203 44.9514 18.557 44.942 18.5928 44.9322C18.6293 44.9223 18.6652 44.912 18.7014 44.9018L18.81 44.8707C18.8461 44.8603 18.8829 44.8502 18.9187 44.8396L19.0273 44.8067L19.136 44.773C19.172 44.7618 19.2088 44.7509 19.2445 44.7394L19.3532 44.7036L19.4618 44.6673C19.4979 44.6551 19.5348 44.6433 19.5704 44.631C19.6072 44.6182 19.6428 44.605 19.6791 44.592L19.7877 44.5529C19.8239 44.5397 19.8605 44.5267 19.8963 44.5132C19.933 44.4995 19.9688 44.4852 20.005 44.4713C20.0413 44.4573 20.0778 44.4434 20.1136 44.4292L20.2223 44.3856L20.3309 44.3405C20.367 44.3255 20.4039 44.3108 20.4395 44.2955C20.4763 44.2798 20.5118 44.2633 20.5482 44.2472L20.6568 44.1991L20.7654 44.1492C20.8019 44.1322 20.838 44.1148 20.8741 44.0975C20.9103 44.0802 20.9471 44.0631 20.9827 44.0456C21.0195 44.0274 21.0551 44.0087 21.0914 43.9904C21.1276 43.972 21.1643 43.9538 21.2 43.9352C21.2367 43.9162 21.2725 43.8967 21.3087 43.8772C21.3451 43.8577 21.3814 43.8381 21.4173 43.8184C21.4538 43.7982 21.49 43.7779 21.5259 43.7575C21.5625 43.7368 21.5986 43.7157 21.6346 43.6946C21.6709 43.6733 21.7073 43.652 21.7432 43.6304C21.7799 43.6082 21.8158 43.5858 21.8518 43.5634C21.8882 43.5408 21.9247 43.5183 21.9605 43.4954C21.9972 43.4719 22.033 43.4477 22.069 43.4239C22.1054 43.3997 22.142 43.3759 22.1777 43.3515C22.2145 43.3263 22.2503 43.3008 22.2863 43.2753C22.3227 43.2497 22.3593 43.2239 22.3949 43.1979C22.4317 43.1711 22.4676 43.1439 22.5036 43.1168C22.5402 43.0892 22.5765 43.0615 22.6122 43.0337C22.6488 43.0051 22.685 42.9761 22.7209 42.9471C22.7575 42.9174 22.7937 42.8874 22.8295 42.8574C22.8661 42.8267 22.9026 42.7962 22.9382 42.7652C22.9751 42.7331 23.0108 42.7004 23.0468 42.6679C23.0833 42.635 23.1199 42.6021 23.1554 42.5687C23.1923 42.5341 23.2283 42.4991 23.2641 42.464C23.3008 42.428 23.337 42.3916 23.3727 42.3552C23.4092 42.318 23.4459 42.2808 23.4813 42.2431C23.5183 42.2037 23.5541 42.1638 23.59 42.1238C23.6269 42.0827 23.663 42.0413 23.6986 41.9997C23.7353 41.9569 23.7718 41.9139 23.8073 41.8705C23.8441 41.8253 23.8804 41.7802 23.9159 41.7345C23.9529 41.6866 23.9888 41.6384 24.0245 41.5899C24.0616 41.5395 24.0976 41.4887 24.1332 41.4376C24.1702 41.3843 24.2064 41.3306 24.2418 41.2766C24.2788 41.2199 24.3151 41.1628 24.3504 41.1053C24.3875 41.0445 24.4239 40.9835 24.4591 40.9219C24.4964 40.8566 24.5326 40.7908 24.5677 40.7246C24.6052 40.6537 24.6414 40.5823 24.6763 40.5105C24.7141 40.4331 24.7501 40.3551 24.7849 40.2766C24.8227 40.1913 24.8591 40.1054 24.8936 40.0188C24.9317 39.9232 24.9681 39.8268 25.0022 39.7297C25.041 39.6194 25.077 39.508 25.1108 39.3956C25.1503 39.2643 25.1865 39.1317 25.2195 38.9978C25.2605 38.8317 25.2968 38.6637 25.3281 38.4939C25.3747 38.241 25.4106 37.9841 25.4367 37.7239C25.4733 37.3609 25.491 36.9914 25.491 36.6162V23.6976H25.3281H25.2195H25.1108H25.0022H24.8936H24.7849H24.6763H24.5677H24.4591H24.3504H24.2418H24.1332H24.0245H23.9159H23.8073H23.6986H23.59H23.4813H23.3727H23.2641H23.1554H23.0468H22.9382H22.8295H22.7209H22.6122H22.5036H22.3949H22.2863H22.1777H22.069H21.9605H21.8518H21.7432H21.6346H21.5259H21.4173H21.3087H21.2H21.0914H20.9827H20.8741H20.7654H20.6568H20.5482H20.4395H20.3309H20.2223H20.1136H20.005H19.8963H19.7877H19.6791H19.5704H19.4618H19.3532H19.2445H19.136H19.0273H18.9187H18.81H18.7014H18.5928H18.4841H18.3755H18.2669H18.1582H18.0496H17.9409H17.8323H17.7236H17.615H17.5064H17.3977H17.2891H17.1805H17.0718H16.9632H16.8545H16.7459H16.6373H16.5287H16.4201H16.3114H16.2028H16.0942H15.9855H15.8769L15.7945 36.6162C15.7945 36.8184 15.7856 37.0174 15.7682 37.2125C15.746 37.4611 15.7096 37.7035 15.6596 37.9392C15.6286 38.0847 15.5924 38.2276 15.551 38.3678C15.518 38.4795 15.4819 38.5894 15.4423 38.6974C15.4086 38.7894 15.3722 38.8799 15.3337 38.9692C15.2993 39.0488 15.2632 39.1272 15.225 39.2045C15.1903 39.2749 15.1543 39.3444 15.1164 39.4127C15.0816 39.4756 15.0451 39.5373 15.0078 39.5984C14.9727 39.6558 14.9365 39.7126 14.8991 39.7684C14.8639 39.8208 14.8277 39.8724 14.7905 39.9234C14.7552 39.9719 14.7192 40.0201 14.6819 40.0674C14.6466 40.1123 14.6102 40.1563 14.5732 40.2C14.5378 40.2417 14.5016 40.2829 14.4646 40.3236C14.4291 40.3628 14.3929 40.4015 14.3559 40.4395C14.3203 40.4762 14.2842 40.5126 14.2473 40.5483C14.2117 40.5828 14.1755 40.617 14.1387 40.6505C14.1031 40.6829 14.0668 40.7147 14.03 40.7462C13.9944 40.7768 13.9582 40.807 13.9214 40.8366C13.8857 40.8655 13.8494 40.8939 13.8128 40.922C13.777 40.9492 13.7408 40.9761 13.7042 41.0027C13.6683 41.0285 13.6322 41.054 13.5956 41.079C13.5597 41.1035 13.5236 41.1275 13.4869 41.1513C13.4511 41.1745 13.4149 41.1973 13.3783 41.2197C13.3425 41.2416 13.3062 41.2632 13.2696 41.2844C13.2338 41.3051 13.1975 41.3255 13.161 41.3456C13.1252 41.3653 13.0889 41.3844 13.0524 41.4035C13.0165 41.4222 12.9803 41.4404 12.9437 41.4584C12.9078 41.4761 12.8716 41.4934 12.8351 41.5105C12.7991 41.5273 12.763 41.5439 12.7264 41.5601C12.6904 41.5759 12.6543 41.5916 12.6178 41.6068C12.582 41.6218 12.5456 41.6362 12.5092 41.6506C12.4733 41.6647 12.4369 41.6785 12.4005 41.6921C12.3645 41.7054 12.3284 41.7185 12.2919 41.7313C12.2559 41.744 12.2197 41.7566 12.1832 41.7686C12.1473 41.7804 12.1111 41.792 12.0746 41.8033C12.0387 41.8145 12.0024 41.8251 11.966 41.8357C11.93 41.8462 11.8938 41.8566 11.8573 41.8665C11.8212 41.8763 11.7852 41.8862 11.7487 41.8954C11.7127 41.9046 11.6765 41.9134 11.64 41.9221C11.6041 41.9306 11.5679 41.9388 11.5314 41.9468C11.4954 41.9547 11.4593 41.9626 11.4228 41.9701C11.3868 41.9774 11.3507 41.9847 11.3141 41.9915C11.2782 41.9983 11.2419 42.0046 11.2055 42.0109C11.1695 42.0172 11.1333 42.0234 11.0969 42.0292L10.9883 42.0456C10.9523 42.0508 10.916 42.0555 10.8797 42.0602C10.8436 42.0649 10.8075 42.0695 10.771 42.0737L10.6624 42.0857C10.6264 42.0893 10.5901 42.0925 10.5538 42.0958C10.5176 42.099 10.4815 42.1023 10.4451 42.1051C10.4091 42.1078 10.3728 42.1103 10.3365 42.1126C10.3004 42.1149 10.2641 42.1168 10.2278 42.1187C10.1916 42.1206 10.1556 42.1225 10.1192 42.1239C10.0832 42.1253 10.0468 42.1261 10.0106 42.1272L9.90189 42.1297C9.8659 42.1303 9.82964 42.1305 9.79329 42.1307L9.6846 42.1308L9.576 42.1301L9.4674 42.1286L9.35871 42.1264L9.25011 42.1235L9.14142 42.1201L9.03282 42.1157L8.92422 42.1107L8.81553 42.1053L8.70693 42.0989L8.59824 42.0919L8.48964 42.0843L8.38104 42.076L8.27235 42.067L8.16375 42.0573L8.05506 42.0471L7.94646 42.0361L7.83786 42.0245L7.72917 42.0123L7.62057 41.9993L7.51197 41.9856L7.40328 41.9716L7.29468 41.9566L7.18599 41.941L7.07739 41.925L6.96879 41.9082L6.8601 41.8908L6.7515 41.8728L6.64281 41.8542L6.53421 41.8348L6.42561 41.8149L6.31692 41.7944L6.20832 41.7733L6.09963 41.7515L5.99103 41.7291L5.88243 41.7062L5.77374 41.6826L5.66514 41.6584L5.55645 41.6337L5.44785 41.6083L5.33925 41.5823L5.23056 41.5558L5.12196 41.5288L5.01327 41.5008L4.90467 41.4725L4.79607 41.4437L4.68738 41.4143L4.57878 41.3842L4.47018 41.3536L4.36149 41.3225L4.25289 41.2906L4.1442 41.2583L4.0356 41.2255L3.927 41.192L3.81831 41.158L3.70971 41.1235L3.60102 41.0885L3.49242 41.0528L3.38382 41.0166L3.27513 40.9799L3.16653 40.9427L3.05784 40.9048L2.94924 40.8665L2.84064 40.8278L2.73195 40.7883L2.62335 40.7484L2.51466 40.7079L2.40606 40.667L2.29747 40.6255L2.18877 40.5836L2.08017 40.5411L1.97148 40.4981L1.86288 40.4546L1.75429 40.4106L1.64559 40.3662L1.537 40.3211L1.42831 40.2756L1.31971 40.2296L1.21111 40.1832L1.10242 40.1361L0.993815 40.0887L0.885215 40.0409L0.776525 39.9925L0.667925 39.9436L0.559235 39.8943L0.450635 39.8445L0.342036 39.7941L0.233345 39.7435C0.155504 39.7069 0.0777517 39.6701 0 39.6329Z" fill="#006CB9"/>
<path fill-rule="evenodd" clip-rule="evenodd" d="M31.2203 26.0203C31.1411 26.0836 31.0631 26.1474 30.987 26.2119V11.635C30.987 10.8598 31.0675 10.1032 31.2203 9.37254C31.2531 9.21568 31.2894 9.06025 31.3289 8.90589C31.3627 8.77345 31.399 8.64207 31.4375 8.51158C31.4719 8.39534 31.5082 8.2799 31.5462 8.16527C31.581 8.06052 31.617 7.95631 31.6548 7.85299C31.6898 7.75724 31.7259 7.66193 31.7635 7.56743C31.7987 7.47907 31.8348 7.39115 31.8721 7.30386C31.9074 7.22156 31.9436 7.1398 31.9807 7.05847C32.016 6.98125 32.0524 6.90456 32.0894 6.82831C32.1248 6.75545 32.1611 6.68331 32.198 6.61134C32.2335 6.54222 32.2698 6.47363 32.3067 6.40532C32.3422 6.33949 32.3785 6.27411 32.4153 6.20909C32.4509 6.14612 32.4871 6.08341 32.524 6.02124C32.5597 5.96085 32.5957 5.90073 32.6326 5.84105C32.6682 5.78342 32.7045 5.72615 32.7412 5.66923C32.7769 5.61383 32.8133 5.55905 32.8499 5.50436C32.8857 5.45083 32.9218 5.39766 32.9585 5.34484C32.9945 5.293 33.0304 5.24116 33.0672 5.19003C33.1028 5.14051 33.1393 5.09179 33.1758 5.04298C33.2117 4.99488 33.2478 4.94705 33.2845 4.89957C33.3205 4.85281 33.3564 4.80596 33.3931 4.75982C33.4287 4.71502 33.4654 4.67084 33.5018 4.62657C33.5377 4.58283 33.5738 4.53928 33.6104 4.49617C33.6463 4.45359 33.6824 4.4112 33.719 4.36924C33.7549 4.32827 33.7913 4.28783 33.8276 4.24739C33.8636 4.20731 33.8997 4.16705 33.9363 4.12742C33.9721 4.08867 34.0085 4.05037 34.0448 4.01216C34.0807 3.97439 34.117 3.93689 34.1534 3.89957C34.1895 3.86279 34.2256 3.826 34.2621 3.78966C34.298 3.75403 34.3344 3.71885 34.3707 3.68366C34.4069 3.64866 34.4428 3.61339 34.4794 3.57883C34.5152 3.54507 34.5518 3.51211 34.588 3.4788C34.6241 3.44558 34.6601 3.41226 34.6967 3.37958C34.7326 3.34751 34.7691 3.31598 34.8053 3.28436C34.8414 3.25283 34.8775 3.22139 34.914 3.19039C34.95 3.15984 34.9863 3.12982 35.0226 3.09971C35.0587 3.06988 35.0949 3.04004 35.1313 3.01055C35.1673 2.98152 35.2035 2.95275 35.2399 2.92416C35.276 2.89574 35.3121 2.86751 35.3486 2.83954C35.3846 2.81193 35.4208 2.78458 35.4572 2.75733C35.4933 2.73034 35.5294 2.70344 35.5658 2.67689C35.6018 2.65053 35.6381 2.62452 35.6745 2.5986C35.7106 2.57295 35.7467 2.5473 35.7831 2.522C35.8192 2.49697 35.8554 2.4723 35.8918 2.44763C35.9278 2.42313 35.964 2.39873 36.0004 2.37468C36.0364 2.35089 36.0727 2.32747 36.1091 2.30404C36.1451 2.28071 36.1812 2.25737 36.2177 2.23448C36.2537 2.21185 36.29 2.18977 36.3263 2.1675C36.3625 2.14532 36.3985 2.12287 36.4349 2.10114C36.4709 2.07958 36.5074 2.05874 36.5436 2.03763C36.5799 2.01652 36.6158 1.99497 36.6522 1.9743C36.6881 1.95391 36.7248 1.93431 36.7609 1.91427C36.7972 1.89423 36.8331 1.87401 36.8695 1.85441C36.9055 1.835 36.9419 1.81629 36.9781 1.79723C37.0143 1.77826 37.0504 1.7592 37.0868 1.74058L37.1954 1.68598L37.3041 1.63263C37.3402 1.61517 37.3764 1.59753 37.4127 1.58043C37.4488 1.56342 37.4851 1.54694 37.5214 1.53028C37.5577 1.51372 37.5936 1.49662 37.63 1.4804C37.666 1.46428 37.7024 1.44914 37.7387 1.43346C37.7749 1.41779 37.8109 1.40184 37.8473 1.38652C37.8834 1.37138 37.9196 1.35668 37.9559 1.3419L38.0646 1.29808C38.1007 1.28374 38.1368 1.26939 38.1732 1.25541C38.2093 1.24152 38.2456 1.22816 38.2819 1.21462C38.3181 1.20108 38.354 1.18709 38.3905 1.17391C38.4265 1.16091 38.463 1.14879 38.4992 1.13614C38.5353 1.1235 38.5714 1.11067 38.6078 1.09838C38.6438 1.08609 38.6802 1.07433 38.7164 1.06248L38.825 1.02766C38.8612 1.01626 38.8974 1.00459 38.9337 0.993453C38.9697 0.982497 39.0062 0.972165 39.0423 0.961566C39.0785 0.950877 39.1147 0.939922 39.151 0.929589C39.1871 0.919346 39.2234 0.909816 39.2596 0.899929L39.3682 0.870802C39.4045 0.861361 39.4406 0.851741 39.4769 0.842656C39.513 0.83366 39.5493 0.825198 39.5855 0.816469C39.6217 0.80774 39.6579 0.798655 39.6942 0.790282C39.7303 0.781999 39.7666 0.77425 39.8028 0.766322L39.9115 0.742986C39.9478 0.735415 39.9837 0.727576 40.0201 0.720362C40.0562 0.713147 40.0925 0.706645 40.1288 0.699786C40.165 0.692928 40.201 0.685713 40.2374 0.679211L40.3461 0.660684L40.4547 0.642959C40.4909 0.637169 40.527 0.631023 40.5634 0.62559C40.5994 0.620157 40.6358 0.615614 40.672 0.610537C40.7081 0.605549 40.7443 0.600294 40.7806 0.595573L40.8892 0.582123L40.9979 0.569832C41.0341 0.565823 41.0702 0.561192 41.1065 0.55754C41.1426 0.553888 41.179 0.551216 41.2151 0.54792L41.3238 0.538479C41.36 0.53545 41.3962 0.532511 41.4324 0.529928C41.4686 0.527345 41.5049 0.525296 41.541 0.523069C41.5773 0.520843 41.6134 0.51826 41.6497 0.5163C41.6859 0.51434 41.7221 0.513004 41.7584 0.511401L41.867 0.507304C41.9033 0.506057 41.9393 0.504186 41.9757 0.503296C42.0118 0.502405 42.0481 0.502494 42.0843 0.50196C42.1206 0.501425 42.1567 0.500802 42.193 0.500623L42.2409 0.5H42.3016H42.4103H42.5189H42.6275H42.7362H42.8448H42.9535H43.0621H43.1707H43.2793H43.388H43.4966H43.6052H43.7139H43.8225H43.9312H44.0398H44.1485H44.2571H44.3657H44.4744H44.583H44.6917H44.8003H44.909H45.0177H45.1263H45.235H45.3436H45.4522H45.5608H45.6694H45.7781H45.8867H45.9954H46.104H46.2126H46.3213H46.4299H46.5386H46.6472H46.7559H46.8645H46.9732H47.0818H47.1904H47.2991H47.4077H47.5164H47.625H47.7337H47.8423H47.9509H48.0595H48.1681H48.2768H48.3855H48.4941H48.6028H48.7114H48.8201H48.9287H49.0373H49.146H49.2546H49.3633H49.4719H49.5806H49.6892H49.7979H49.9065H50.0151H50.1238H50.2324H50.341H50.4496H50.5583H50.6669H50.7756H50.8842H50.9928H51.1015H51.2101H51.3188H51.4274H51.5361H51.6447H51.7534H51.862H51.9707H52.0793H52.188H52.2966H52.4053H52.5139H52.6225H52.7311H52.8397H52.9484H53.057H53.1657H53.2743H53.383H53.4916H53.6003H53.7089H53.8175H53.9262H54.0348H54.1435H54.2521H54.3608H54.4694H54.5781H54.6867H54.7953H54.904H55.0126H55.1212H55.2299H55.3385H55.4472H55.5558H55.6644H55.7731H55.8817H55.9904H56.099H56.2077H56.3163H56.425H56.5336H56.6422H56.7509H56.8595H56.9682H57.0768H57.1855H57.2941H57.4027H57.5113H57.6199H57.7286H57.8372H57.9459H58.0545H58.1632H58.2718H58.3804H58.4891H58.5978H58.7064H58.7985V56.171C58.7985 56.6551 58.7671 57.1319 58.7064 57.5997C58.6772 57.8249 58.6405 58.0478 58.5978 58.2686C58.5653 58.4367 58.5292 58.6035 58.4891 58.7688C58.4554 58.908 58.4194 59.0463 58.3804 59.1835C58.3462 59.3039 58.31 59.4233 58.2718 59.5419C58.2373 59.6494 58.2009 59.7559 58.1632 59.8619C58.1283 59.9599 58.092 60.0575 58.0545 60.1543C58.0194 60.2446 57.9834 60.3343 57.9459 60.4236C57.9107 60.5076 57.8745 60.5913 57.8372 60.6743C57.802 60.753 57.7657 60.8312 57.7286 60.9089C57.6932 60.9832 57.657 61.057 57.6199 61.1303C57.5845 61.2006 57.5482 61.2705 57.5113 61.34C57.4757 61.407 57.4396 61.4735 57.4027 61.5397C57.3669 61.6037 57.331 61.6673 57.2941 61.7305C57.2585 61.7913 57.2222 61.8518 57.1855 61.9119C57.1498 61.9703 57.1135 62.0279 57.0768 62.0855C57.041 62.1417 57.0049 62.1975 56.9682 62.2529C56.9323 62.3071 56.8964 62.3615 56.8595 62.415C56.8238 62.4669 56.7874 62.5184 56.7509 62.5697C56.7152 62.6199 56.6788 62.6696 56.6422 62.7192C56.6063 62.7679 56.5702 62.8165 56.5336 62.8646C56.4978 62.9116 56.4615 62.9581 56.425 63.0045C56.3892 63.0499 56.3527 63.0949 56.3163 63.1397C56.2803 63.184 56.2444 63.2281 56.2077 63.2719C56.1719 63.3145 56.1354 63.3567 56.099 63.3989C56.0631 63.4404 56.0269 63.4815 55.9904 63.5224C55.9543 63.5629 55.9183 63.6034 55.8817 63.6434C55.8459 63.6824 55.8094 63.7207 55.7731 63.7593C55.737 63.7975 55.701 63.8359 55.6644 63.8736C55.6285 63.9106 55.5922 63.9469 55.5558 63.9834C55.5198 64.0194 55.4838 64.0553 55.4472 64.0909C55.4112 64.1261 55.3751 64.161 55.3385 64.1957C55.3026 64.2298 55.2663 64.2635 55.2299 64.2972C55.1938 64.3306 55.1578 64.3642 55.1212 64.3972C55.0853 64.4295 55.0489 64.4612 55.0126 64.4931C54.9764 64.5249 54.9406 64.557 54.904 64.5883C54.8681 64.619 54.8315 64.6489 54.7953 64.6791C54.7591 64.7093 54.7232 64.7398 54.6867 64.7694C54.6508 64.7986 54.6142 64.8271 54.5781 64.8558C54.5419 64.8845 54.5059 64.9135 54.4694 64.9417C54.4335 64.9695 54.397 64.9966 54.3608 65.0239C54.3246 65.0512 54.2886 65.0786 54.2521 65.1055C54.2162 65.1319 54.1797 65.1578 54.1435 65.1838C54.1073 65.2097 54.0713 65.236 54.0348 65.2615C53.9989 65.2866 53.9625 65.3111 53.9262 65.3358C53.89 65.3606 53.854 65.3856 53.8175 65.4099C53.7816 65.4338 53.7452 65.4571 53.7089 65.4806C53.6727 65.5041 53.6368 65.528 53.6003 65.5511C53.5643 65.5739 53.5278 65.5958 53.4916 65.6182C53.4554 65.6405 53.4195 65.6632 53.383 65.6851C53.347 65.7067 53.3106 65.7277 53.2743 65.7489C53.2382 65.7701 53.2021 65.7915 53.1657 65.8124C53.1296 65.8329 53.0934 65.8532 53.057 65.8734L52.9484 65.9333L52.8397 65.9915L52.7311 66.048C52.695 66.0667 52.6589 66.0854 52.6225 66.1036C52.5865 66.1217 52.5502 66.1392 52.5139 66.157C52.4777 66.1747 52.4417 66.1928 52.4053 66.2101C52.3693 66.2272 52.3327 66.2435 52.2966 66.2602C52.2604 66.2769 52.2243 66.294 52.188 66.3103C52.1519 66.3266 52.1154 66.3421 52.0793 66.358L51.9707 66.4049L51.862 66.4504L51.7534 66.4943C51.7171 66.5088 51.681 66.5236 51.6447 66.5378C51.6087 66.5517 51.5723 66.5648 51.5361 66.5785C51.4998 66.5921 51.4638 66.606 51.4274 66.6192C51.3913 66.6324 51.3551 66.645 51.3188 66.6578L51.2101 66.6957L51.1015 66.7324C51.0654 66.7443 51.0291 66.7556 50.9928 66.7672C50.9566 66.7788 50.9206 66.7909 50.8842 66.802C50.8482 66.8132 50.8118 66.8234 50.7756 66.8342L50.6669 66.8661L50.5583 66.8966C50.5222 66.9066 50.4859 66.9161 50.4496 66.9257C50.4134 66.9353 50.3775 66.9454 50.341 66.9547C50.305 66.9639 50.2686 66.9721 50.2324 66.9809C50.1962 66.9897 50.16 66.9986 50.1238 67.0071L50.0151 67.0318L49.9065 67.0552C49.8702 67.0628 49.8342 67.0711 49.7979 67.0785C49.7618 67.0858 49.7253 67.0922 49.6892 67.0992L49.5806 67.1197L49.4719 67.139C49.4358 67.1452 49.3995 67.1509 49.3633 67.1568C49.327 67.1627 49.2909 67.169 49.2546 67.1745C49.2185 67.18 49.1822 67.1848 49.146 67.1899L49.0373 67.205C49.0011 67.2098 48.965 67.2147 48.9287 67.2191C48.8926 67.2236 48.8563 67.2273 48.8201 67.2314C48.7838 67.2355 48.7478 67.24 48.7114 67.2437C48.6753 67.2475 48.6391 67.2507 48.6028 67.2541L48.4941 67.2637C48.4579 67.2667 48.4219 67.2704 48.3855 67.273C48.3494 67.2757 48.3131 67.2775 48.2768 67.2798L48.1681 67.2867L48.0595 67.2924C48.0235 67.2941 47.9871 67.295 47.9509 67.2964C47.9147 67.2977 47.8785 67.2994 47.8423 67.3005C47.8062 67.3014 47.7699 67.3018 47.7337 67.3025L47.625 67.3039C47.5911 67.3042 47.5575 67.3052 47.5236 67.3052H47.5164H47.4077H47.2991H47.1904H47.0818H46.9732H46.8645H46.7559H46.6472H46.5386H46.4299H46.3213H46.2126H46.104H45.9954H45.8867H45.7781H45.6694H45.5608H45.4522H45.3436H45.235H45.1263H45.0177H44.909H44.8003H44.6917H44.583H44.4744H44.3657H44.2571H44.1485H44.0398H43.9312H43.8225H43.7139H43.6052H43.4966H43.388H43.2793H43.1707H43.0621H42.9535H42.8448H42.7362H42.6275H42.5189H42.4103H42.3016H42.193H42.0843H41.9757H41.867H41.7584H41.6497H41.541H41.4324H41.3238H41.2151H41.1065H40.9979H40.8892H40.7806H40.672H40.5634H40.4547H40.3461H40.2374H40.1288H40.0201H39.9115H39.8028H39.6942H39.5855H39.4769H39.3682H39.2596H39.151H39.0423H38.9337H38.825H38.7164H38.6078H38.4992H38.3905H38.2819H38.1732H38.0646H37.9559H37.8473H37.7387H37.63H37.5214H37.4127H37.3041H37.1954H37.0868H36.9781H36.8695H36.7609H36.6522H36.5436H36.4349H36.3263H36.2177H36.1091H36.0004H35.8918H35.7831H35.6745H35.5658H35.4572H35.3486H35.2399H35.1313H35.0226H34.914H34.8053H34.6967H34.588H34.4794H34.3707H34.2621H34.1534H34.0448H33.9363H33.8276H33.719H33.6104H33.5018H33.3931H33.2845H33.1758H33.0672H32.9585H32.8499H32.7412H32.6326H32.524H32.4153H32.3067H32.198H32.0894H31.9807H31.8721H31.7635H31.6548H31.5462H31.4375H31.3289H31.2203H30.987V41.5977C31.0631 41.6622 31.1411 41.7259 31.2203 41.7891C31.2562 41.8178 31.2924 41.8463 31.3289 41.8746C31.3648 41.9026 31.401 41.9305 31.4375 41.9582C31.4736 41.9854 31.5096 42.0127 31.5462 42.0398C31.582 42.0662 31.6185 42.0923 31.6548 42.1185C31.6907 42.1443 31.7271 42.1701 31.7635 42.1956C31.7995 42.2208 31.8356 42.2461 31.8721 42.2711L31.9807 42.3446C32.0166 42.3685 32.053 42.3923 32.0894 42.416L32.198 42.486C32.234 42.509 32.2702 42.5319 32.3067 42.5546C32.3425 42.5769 32.379 42.599 32.4153 42.621L32.524 42.6863C32.5601 42.7077 32.5962 42.7291 32.6326 42.7502C32.6685 42.771 32.7048 42.7915 32.7412 42.8121L32.8499 42.8731L32.9585 42.9325L33.0672 42.9906C33.1033 43.0097 33.1392 43.0289 33.1758 43.0478C33.2117 43.0664 33.2481 43.0847 33.2845 43.103L33.3931 43.1575L33.5018 43.2109L33.6104 43.2627C33.6465 43.2798 33.6825 43.2971 33.719 43.314L33.8276 43.3635L33.9363 43.4126L34.0448 43.4601L34.1534 43.5069L34.2621 43.5527L34.3707 43.5974L34.4794 43.6414L34.588 43.6842L34.6967 43.7266L34.8053 43.7674C34.8415 43.7809 34.8775 43.7946 34.914 43.808L35.0226 43.8471C35.0588 43.8601 35.0948 43.8734 35.1313 43.8862C35.1672 43.8988 35.2037 43.9111 35.2399 43.9235L35.3486 43.9609L35.4572 43.9968C35.4934 44.0088 35.5293 44.021 35.5658 44.0327C35.6017 44.0444 35.6382 44.0556 35.6745 44.0671L35.7831 44.1015L35.8918 44.1344L36.0004 44.1673L36.1091 44.1989L36.2177 44.2303L36.3263 44.2607L36.4349 44.2908L36.5436 44.32L36.6522 44.3486L36.7609 44.3767L36.8695 44.404L36.9781 44.431L37.0868 44.457L37.1954 44.483L37.3041 44.5077L37.4127 44.5323L37.5214 44.5562L37.63 44.5796L37.7387 44.6027L37.8473 44.6248L37.9559 44.647L38.0646 44.668L38.1732 44.6889L38.2819 44.7092L38.3905 44.729L38.4992 44.7486L38.6078 44.7672L38.7164 44.7857L38.825 44.8036L38.9337 44.8211L39.0423 44.8384L39.151 44.8547L39.2596 44.8711L39.3682 44.8867L39.4769 44.902L39.5855 44.9171L39.6942 44.9313L39.8028 44.9454L39.9115 44.9591L40.0201 44.9722L40.1288 44.9854L40.2374 44.9977L40.3461 45.0097L40.4547 45.0218L40.5634 45.0328L40.672 45.0439L40.7806 45.0545L40.8892 45.0646L40.9979 45.0747L41.1065 45.0841L41.2151 45.0932L41.3238 45.1023L41.4324 45.1106L41.541 45.1187L41.6497 45.1269L41.7584 45.1341L41.867 45.1413L41.9757 45.1484L42.0843 45.1547L42.193 45.1609L42.3016 45.167L42.4103 45.1723L42.5189 45.1776L42.6275 45.1829L42.7362 45.1873L42.8448 45.1917L42.9535 45.196L43.0621 45.1996L43.1707 45.2031L43.2793 45.2066L43.388 45.2093L43.4966 45.2119L43.6052 45.2146L43.7139 45.2165L43.8225 45.2183L43.9312 45.2201L44.0398 45.2212L44.1485 45.2222L44.2571 45.2232L44.3657 45.2236L44.4744 45.2238L44.583 45.224L44.6917 45.2237L44.8003 45.2231L44.909 45.2224L45.0177 45.2216L45.1263 45.2201L45.235 45.2187L45.3436 45.2173L45.4522 45.215L45.5608 45.2129L45.6694 45.2107L45.7781 45.2079L45.8867 45.205L45.9954 45.202L46.104 45.1988L46.2126 45.195L46.3213 45.1914L46.4299 45.1876L46.5386 45.1832L46.6472 45.1787L46.7559 45.1743L46.8089 45.172L46.8645 45.1694L46.9732 45.1642L47.0818 45.1585L47.1904 45.1526L47.2991 45.1461L47.4077 45.1395L47.5164 45.1323L47.625 45.125L47.7337 45.1171L47.8423 45.1091L47.9509 45.1005L48.0595 45.0918L48.1681 45.0826L48.2768 45.0732L48.3855 45.0634L48.4941 45.0533L48.6028 45.0431L48.7114 45.0323L48.8201 45.0215L48.9287 45.0101L49.0373 44.9986L49.146 44.9868L49.2546 44.9746L49.3633 44.9623L49.4719 44.9496L49.5806 44.9367L49.6892 44.9235L49.7979 44.9101L49.9065 44.8964L50.0151 44.8825L50.1238 44.8682L50.2324 44.8538L50.341 44.8391L50.4496 44.8241L50.5583 44.809L50.6669 44.7935L50.7756 44.7779L50.8842 44.7619L50.9928 44.7457L51.1015 44.7294L51.2101 44.7128L51.3188 44.6959L51.4274 44.6788L51.5361 44.6617L51.6447 44.6442L51.7534 44.6264L51.862 44.6085L51.9707 44.5903L52.0793 44.572L52.188 44.5533L52.2966 44.5345L52.4053 44.5155L52.5139 44.4962L52.6225 44.4768L52.7311 44.4572L52.8397 44.4374L52.9484 44.4172L53.057 44.3969L53.1657 44.3764L53.2743 44.3558L53.383 44.3349L53.4916 44.3137L53.6003 44.2925L53.7089 44.2709L53.8175 44.2492L53.9262 44.2272L54.0348 44.2049L54.1435 44.1825L54.2521 44.16L54.3608 44.137L54.4694 44.114L54.5781 44.0907L54.6867 44.0672L54.7953 44.0434L54.904 44.0195L55.0126 43.9951L55.1212 43.9706L55.2299 43.9457L55.3385 43.9205L55.4472 43.895L55.5558 43.8692L55.6639 43.8428V39.1329L55.5558 39.186L55.4472 39.239L55.3385 39.2915L55.2299 39.3435L55.1212 39.3952L55.0126 39.4462L54.904 39.4966L54.7953 39.5467L54.6867 39.5961L54.5781 39.6451L54.4694 39.6935L54.3608 39.7414L54.2521 39.7886L54.1435 39.8353L54.0348 39.8815L53.9262 39.9271L53.8175 39.9722L53.7089 40.0167L53.6003 40.0605L53.4916 40.1038L53.383 40.1466L53.2743 40.1888L53.1657 40.2302L53.057 40.2712L52.9484 40.3114L52.8397 40.3512L52.7311 40.3903L52.6225 40.4288L52.5139 40.4668L52.4053 40.5041L52.2966 40.5407L52.188 40.5768L52.0793 40.6123L51.9707 40.6471L51.862 40.6814L51.7534 40.7151L51.6447 40.7481L51.5361 40.7805L51.4274 40.8124L51.3188 40.8435L51.2101 40.8742L51.1015 40.904L50.9928 40.9334L50.8842 40.9622L50.7756 40.9903L50.6669 41.0178L50.5583 41.0448L50.4496 41.071L50.341 41.0969L50.2324 41.122L50.1238 41.1464L50.0151 41.1703L49.9065 41.1937L49.7979 41.2164L49.6892 41.2384L49.5806 41.2599L49.4719 41.281L49.3633 41.3012L49.2546 41.3209L49.146 41.34L49.0373 41.3586L48.9287 41.3764L48.8201 41.3938L48.7114 41.4107L48.6028 41.4269L48.4941 41.4424L48.3855 41.4576L48.2768 41.472L48.1681 41.4858L48.0595 41.4992L47.9509 41.512L47.8423 41.5241L47.7337 41.5357L47.625 41.5468L47.5164 41.5572L47.4077 41.5672L47.2991 41.5766L47.1904 41.5853L47.1245 41.5905L47.0818 41.5933L46.9732 41.6006L46.8645 41.6077L46.7559 41.6135L46.6472 41.6189L46.5386 41.6239L46.4299 41.6274L46.3213 41.6308L46.2126 41.6332L46.104 41.6348L45.9954 41.6361C45.959 41.6363 45.923 41.6358 45.8867 41.6357L45.7781 41.6354L45.6694 41.6338L45.5608 41.6315L45.4522 41.6287C45.4157 41.6275 45.3797 41.6258 45.3436 41.6243C45.3074 41.6229 45.2709 41.6217 45.235 41.62L45.1263 41.614L45.0177 41.6076L44.909 41.6002L44.8003 41.5916C44.7641 41.5887 44.7277 41.5862 44.6917 41.5829C44.6552 41.5796 44.6193 41.5757 44.583 41.5721L44.4744 41.5614L44.3657 41.5489L44.2571 41.5359L44.1485 41.5217L44.0398 41.5065C44.0036 41.5012 43.9672 41.4962 43.9312 41.4905C43.8948 41.4849 43.8587 41.4788 43.8225 41.4728C43.7864 41.4669 43.7498 41.4613 43.7139 41.455C43.6774 41.4486 43.6415 41.4416 43.6052 41.4349C43.5691 41.4282 43.5325 41.4219 43.4966 41.4148C43.4601 41.4077 43.4243 41.3999 43.388 41.3924C43.3518 41.3849 43.3153 41.3777 43.2793 41.3699C43.2429 41.3619 43.2068 41.3535 43.1707 41.3452L43.0621 41.32C43.0256 41.3112 42.9895 41.302 42.9535 41.2929C42.9171 41.2837 42.8808 41.2746 42.8448 41.2651C42.8083 41.2555 42.7722 41.2454 42.7362 41.2355C42.6998 41.2254 42.6635 41.2153 42.6275 41.2048C42.591 41.1942 42.555 41.1833 42.5189 41.1723C42.4825 41.1613 42.4463 41.1502 42.4103 41.1388C42.3738 41.1272 42.3377 41.1153 42.3016 41.1034C42.2653 41.0913 42.2289 41.0793 42.193 41.0669C42.1565 41.0544 42.1205 41.0413 42.0843 41.0283C42.048 41.0152 42.0116 41.0023 41.9757 40.9888C41.9392 40.9751 41.9032 40.9608 41.867 40.9467C41.8308 40.9325 41.7943 40.9185 41.7584 40.904C41.7218 40.8891 41.6859 40.8736 41.6497 40.8582C41.6134 40.8428 41.5769 40.8276 41.541 40.8117C41.5045 40.7956 41.4685 40.7789 41.4324 40.7623C41.3961 40.7456 41.3597 40.7288 41.3238 40.7117C41.2874 40.6943 41.2511 40.6765 41.2151 40.6586C41.1787 40.6405 41.1425 40.622 41.1065 40.6034C41.0702 40.5846 41.0337 40.566 40.9979 40.5467C40.9612 40.527 40.9253 40.5067 40.8892 40.4865C40.8529 40.4661 40.8165 40.4457 40.7806 40.4248C40.744 40.4035 40.7079 40.3818 40.672 40.3601C40.6354 40.338 40.5994 40.3153 40.5634 40.2927C40.527 40.2698 40.4904 40.247 40.4547 40.2236C40.418 40.1996 40.3822 40.1747 40.3461 40.15C40.3095 40.1251 40.2733 40.0998 40.2374 40.0742C40.2009 40.0483 40.1645 40.0224 40.1288 39.9958C40.0921 39.9686 40.0561 39.9407 40.0201 39.9128C39.9836 39.8845 39.9474 39.856 39.9115 39.8271C39.875 39.7976 39.8385 39.7683 39.8028 39.7381C39.7661 39.7071 39.7301 39.6755 39.6942 39.6437C39.6575 39.6114 39.6214 39.5786 39.5855 39.5455C39.549 39.5117 39.5126 39.4777 39.4769 39.4432C39.4404 39.408 39.4038 39.3727 39.3682 39.3366C39.3314 39.2994 39.2954 39.2614 39.2596 39.2232C39.2228 39.1841 39.1867 39.1445 39.151 39.1045C39.1142 39.0634 39.078 39.0218 39.0423 38.9797C39.0056 38.9364 38.9694 38.8927 38.9337 38.8484C38.8969 38.8027 38.8606 38.7563 38.825 38.7095C38.7882 38.661 38.7519 38.6121 38.7164 38.5625C38.6795 38.5109 38.6432 38.4588 38.6078 38.406C38.5708 38.3509 38.5346 38.2951 38.4992 38.2387C38.462 38.1796 38.4258 38.1197 38.3905 38.0592C38.3532 37.9955 38.3171 37.9308 38.2819 37.8655C38.2444 37.7963 38.2083 37.7261 38.1732 37.6552C38.1357 37.5797 38.0995 37.5031 38.0646 37.4257C38.027 37.3424 37.9905 37.2583 37.9559 37.1728C37.9176 37.0783 37.8819 36.982 37.8473 36.8847C37.8089 36.7768 37.7726 36.6676 37.7387 36.5565C37.6994 36.4276 37.6631 36.2966 37.63 36.1633C37.5889 35.9975 37.553 35.8282 37.5214 35.6558C37.4746 35.4001 37.4381 35.1374 37.4127 34.8675C37.3835 34.5558 37.3685 34.2347 37.3685 33.9044C37.3685 33.5738 37.3835 33.2526 37.4127 32.9406C37.4381 32.6707 37.4746 32.4078 37.5214 32.152C37.553 31.9796 37.5889 31.81 37.63 31.6441C37.6631 31.5109 37.6994 31.3798 37.7387 31.2509C37.7726 31.1397 37.8089 31.0303 37.8473 30.9224C37.8819 30.8251 37.9176 30.7287 37.9559 30.6341C37.9905 30.5485 38.027 30.4645 38.0646 30.3811C38.0995 30.3036 38.1357 30.2271 38.1732 30.1515C38.2083 30.0806 38.2444 30.0103 38.2819 29.9411C38.3171 29.8758 38.3532 29.8111 38.3905 29.7473C38.4258 29.6868 38.462 29.6268 38.4992 29.5677C38.5346 29.5112 38.5708 29.4555 38.6078 29.4003C38.6432 29.3475 38.6795 29.2954 38.7164 29.2437C38.7519 29.1941 38.7882 29.1452 38.825 29.0967C38.8606 29.0498 38.8969 29.0036 38.9337 28.9577C38.9694 28.9135 39.0056 28.8697 39.0423 28.8264C39.078 28.7843 39.1142 28.7427 39.151 28.7016C39.1867 28.6616 39.2228 28.6218 39.2596 28.5827C39.2954 28.5446 39.3314 28.5065 39.3682 28.4693C39.4038 28.4332 39.4404 28.3978 39.4769 28.3626C39.5126 28.3281 39.549 28.2941 39.5855 28.2603C39.6214 28.2273 39.6575 28.1943 39.6942 28.162C39.7301 28.1303 39.7661 28.0986 39.8028 28.0676C39.8385 28.0375 39.875 28.0081 39.9115 27.9787C39.9474 27.9497 39.9836 27.9211 40.0201 27.8928C40.0561 27.8648 40.0921 27.8369 40.1288 27.8097C40.1645 27.7831 40.2009 27.7572 40.2374 27.7313C40.2733 27.7057 40.3095 27.6805 40.3461 27.6555C40.3822 27.6308 40.418 27.606 40.4547 27.5819C40.4904 27.5584 40.527 27.5356 40.5634 27.5127C40.5994 27.49 40.6354 27.4675 40.672 27.4454C40.7079 27.4236 40.744 27.4019 40.7806 27.3806C40.8165 27.3597 40.8529 27.3394 40.8892 27.319C40.9253 27.2988 40.9612 27.2785 40.9979 27.2588C41.0337 27.2395 41.0702 27.2208 41.1065 27.202C41.1425 27.1833 41.1787 27.1649 41.2151 27.1467C41.2511 27.1288 41.2874 27.1111 41.3238 27.0937C41.3597 27.0765 41.3961 27.0597 41.4324 27.043C41.4685 27.0264 41.5045 27.0097 41.541 26.9935C41.5769 26.9777 41.6134 26.9624 41.6497 26.947C41.6859 26.9316 41.7218 26.9161 41.7584 26.9013C41.7943 26.8867 41.8308 26.8727 41.867 26.8585C41.9032 26.8443 41.9392 26.8301 41.9757 26.8164C42.0116 26.8029 42.048 26.79 42.0843 26.7769C42.1205 26.7639 42.1565 26.7508 42.193 26.7382C42.2289 26.7258 42.2653 26.7138 42.3016 26.7017C42.3377 26.6898 42.3738 26.6779 42.4103 26.6663C42.4463 26.6549 42.4825 26.6438 42.5189 26.6328C42.555 26.6218 42.591 26.611 42.6275 26.6004L42.7362 26.5697C42.7722 26.5598 42.8083 26.5496 42.8448 26.54C42.8808 26.5305 42.9171 26.5214 42.9535 26.5122C42.9895 26.5031 43.0256 26.4938 43.0621 26.4851L43.1707 26.4599C43.2068 26.4516 43.2429 26.4432 43.2793 26.4352C43.3153 26.4274 43.3518 26.4201 43.388 26.4126C43.4243 26.4051 43.4601 26.3973 43.4966 26.3902C43.5325 26.3831 43.5691 26.3768 43.6052 26.3701C43.6415 26.3634 43.6774 26.3564 43.7139 26.35C43.7498 26.3437 43.7864 26.3382 43.8225 26.3322C43.8587 26.3262 43.8948 26.3201 43.9312 26.3145L44.0398 26.2985L44.1485 26.2832L44.2571 26.269L44.3657 26.256L44.4744 26.2436L44.583 26.2328C44.6193 26.2292 44.6552 26.2253 44.6917 26.222C44.7277 26.2187 44.7641 26.2162 44.8003 26.2133L44.909 26.2047L45.0177 26.1973L45.1263 26.1909L45.235 26.1849C45.2709 26.1832 45.3074 26.182 45.3436 26.1806C45.3797 26.1792 45.4157 26.1774 45.4522 26.1762L45.5608 26.1735L45.6694 26.1711L45.7781 26.1695L45.8867 26.1692C45.923 26.1691 45.959 26.1687 45.9954 26.1688L46.104 26.1702L46.2126 26.1718L46.3213 26.1741L46.4299 26.1776L46.5386 26.181L46.6472 26.186L46.7559 26.1915L46.8645 26.1972L46.9732 26.2044L47.0818 26.2116L47.1245 26.2144L47.1904 26.2196L47.2991 26.2281L47.4077 26.2374L47.5164 26.2472L47.625 26.2575L47.7337 26.2684L47.8423 26.2799L47.9509 26.2918L48.0595 26.3044L48.1681 26.3176L48.2768 26.3312L48.3855 26.3455L48.4941 26.3604L48.6028 26.3757L48.7114 26.3917L48.8201 26.4083L48.9287 26.4255L49.0373 26.4432L49.146 26.4616L49.2546 26.4806L49.3633 26.5001L49.4719 26.5201L49.5806 26.5409L49.6892 26.5622L49.7979 26.5841L49.9065 26.6066L50.0151 26.6298L50.1238 26.6536L50.2324 26.6778L50.341 26.7027L50.4496 26.7284L50.5583 26.7546L50.6669 26.7813L50.7756 26.8087L50.8842 26.8368L50.9928 26.8654L51.1015 26.8947L51.2101 26.9246L51.3188 26.9551L51.4274 26.9862L51.5361 27.018L51.6447 27.0505L51.7534 27.0834L51.862 27.117L51.9707 27.1513L52.0793 27.1862L52.188 27.2217L52.2966 27.2579L52.4053 27.2946L52.5139 27.3319L52.6225 27.37L52.7311 27.4087L52.8397 27.4479L52.9484 27.4878L53.057 27.5283L53.1657 27.5695L53.2743 27.6112L53.383 27.6535L53.4916 27.6964L53.6003 27.74L53.7089 27.7841L53.8175 27.8289L53.9262 27.8743L54.0348 27.9202L54.1435 27.9667L54.2521 28.0138L54.3608 28.0614L54.4694 28.1097L54.5781 28.1585L54.6867 28.2078L54.7953 28.2577L54.904 28.3082L55.0126 28.3592L55.1212 28.4107L55.2299 28.4627L55.3385 28.5152L55.4472 28.5682L55.5558 28.6218L55.6639 28.6754V23.9621L55.5558 23.9357L55.4472 23.9099L55.3385 23.8844L55.2299 23.8592L55.1212 23.8344L55.0126 23.8099L54.904 23.7856L54.7953 23.7615L54.6867 23.7378L54.5781 23.7142L54.4694 23.691L54.3608 23.668L54.2521 23.645L54.1435 23.6225L54.0348 23.6001L53.9262 23.5779L53.8175 23.5559L53.7089 23.5342L53.6003 23.5126L53.4916 23.4914L53.383 23.4703L53.2743 23.4493L53.1657 23.4286L53.057 23.4082L52.9484 23.3879L52.8397 23.3679L52.7311 23.348L52.6225 23.3284L52.5139 23.309L52.4053 23.2898L52.2966 23.2708L52.188 23.252L52.0793 23.2334L51.9707 23.2151L51.862 23.197L51.7534 23.1791L51.6447 23.1613L51.5361 23.1439L51.4274 23.1267L51.3188 23.1096L51.2101 23.0929L51.1015 23.0762L50.9928 23.0599L50.8842 23.0438L50.7756 23.0278L50.6669 23.0122L50.5583 22.9968L50.4496 22.9817L50.341 22.9668L50.2324 22.9521L50.1238 22.9377L50.0151 22.9234L49.9065 22.9096L49.7979 22.8959L49.6892 22.8825L49.5806 22.8693L49.4719 22.8565L49.3633 22.8439L49.2546 22.8315L49.146 22.8195L49.0373 22.8076L48.9287 22.7962L48.8201 22.7849L48.7114 22.7742L48.6028 22.7635L48.4941 22.7531L48.3855 22.7431L48.2768 22.7334L48.1681 22.724L48.0595 22.7149L47.9509 22.7062L47.8423 22.6977L47.7337 22.6898L47.625 22.6819L47.5164 22.6747L47.4077 22.6674L47.2991 22.6609L47.1904 22.6545L47.0818 22.6487L46.9732 22.643L46.8645 22.6379L46.8089 22.6353L46.7559 22.6331L46.6472 22.6286L46.5386 22.6242L46.4299 22.6197L46.3213 22.616L46.2126 22.6123L46.104 22.6086L45.9954 22.6054L45.8867 22.6023L45.7781 22.5994L45.6694 22.5966L45.5608 22.5944L45.4522 22.5923L45.3436 22.59L45.235 22.5886L45.1263 22.5872L45.0177 22.5858L44.909 22.5849L44.8003 22.5843L44.6917 22.5837L44.583 22.5835L44.4744 22.5836L44.3657 22.5838L44.2571 22.5842L44.1485 22.5851L44.0398 22.5862L43.9312 22.5873L43.8225 22.5892L43.7139 22.5909L43.6052 22.5928L43.4966 22.5955L43.388 22.5982L43.2793 22.6008L43.1707 22.6043L43.0621 22.6079L42.9535 22.6114L42.8448 22.6158L42.7362 22.6202L42.6275 22.6246L42.5189 22.6299L42.4103 22.6352L42.3016 22.6405L42.193 22.6466L42.0843 22.6528L41.9757 22.6591L41.867 22.6662L41.7584 22.6734L41.6497 22.6806L41.541 22.6888L41.4324 22.6969L41.3238 22.7053L41.2151 22.7144L41.1065 22.7234L40.9979 22.7329L40.8892 22.743L40.7806 22.753L40.672 22.7637L40.5634 22.7749L40.4547 22.7859L40.3461 22.7979L40.2374 22.81L40.1288 22.8223L40.0201 22.8354L39.9115 22.8485L39.8028 22.8623L39.6942 22.8765L39.5855 22.8907L39.4769 22.9058L39.3682 22.921L39.2596 22.9367L39.151 22.9531L39.0423 22.9694L38.9337 22.9867L38.825 23.0042L38.7164 23.0221L38.6078 23.0407L38.4992 23.0593L38.3905 23.0789L38.2819 23.0987L38.1732 23.119L38.0646 23.14L37.9559 23.161L37.8473 23.1832L37.7387 23.2053L37.63 23.2283L37.5214 23.2518L37.4127 23.2756L37.3041 23.3003L37.1954 23.3251L37.0868 23.3511L36.9781 23.3771L36.8695 23.4041L36.7609 23.4314L36.6522 23.4596L36.5436 23.4882L36.4349 23.5175L36.3263 23.5475L36.2177 23.5779L36.1091 23.6094L36.0004 23.641L35.8918 23.6739L35.7831 23.7069L35.6745 23.7413C35.6382 23.7528 35.6017 23.764 35.5658 23.7757L35.4572 23.8116C35.421 23.8235 35.3845 23.8353 35.3486 23.8475L35.2399 23.8849L35.1313 23.9223C35.0948 23.9351 35.0588 23.9484 35.0226 23.9614C34.9863 23.9744 34.9499 23.9872 34.914 24.0005L34.8053 24.0412C34.7691 24.0548 34.7326 24.0682 34.6967 24.082L34.588 24.1244L34.4794 24.1671L34.3707 24.2112L34.2621 24.2559L34.1534 24.3017L34.0448 24.3486L33.9363 24.3961L33.8276 24.4452L33.719 24.4947C33.6825 24.5117 33.6465 24.5289 33.6104 24.546L33.5018 24.598L33.3931 24.6513L33.2845 24.7058C33.2481 24.7243 33.2117 24.7425 33.1758 24.7612C33.1392 24.78 33.1033 24.7993 33.0672 24.8184L32.9585 24.8765L32.8499 24.9359C32.8134 24.9561 32.7773 24.9765 32.7412 24.997C32.7048 25.0176 32.6685 25.0381 32.6326 25.0589C32.5962 25.08 32.5601 25.1014 32.524 25.1228C32.4875 25.1444 32.4513 25.1662 32.4153 25.1882C32.379 25.2102 32.3425 25.2323 32.3067 25.2546C32.2702 25.2773 32.234 25.3003 32.198 25.3232L32.0894 25.3933C32.053 25.4171 32.0166 25.4407 31.9807 25.4647L31.8721 25.5383C31.8356 25.5633 31.7995 25.5885 31.7635 25.6137C31.7271 25.6393 31.6907 25.665 31.6548 25.691C31.6185 25.7171 31.582 25.7432 31.5462 25.7697C31.5096 25.7968 31.4736 25.824 31.4375 25.8514C31.401 25.8791 31.3648 25.907 31.3289 25.9349C31.2924 25.9633 31.2562 25.9918 31.2203 26.0204V26.0203V26.0203Z" fill="#E10238"/>
</svg>
