<svg width="83" height="65" viewBox="0 0 83 65" fill="none" xmlns="http://www.w3.org/2000/svg">
<path d="M81.6728 63.9391V64.1058H81.8281C81.8573 64.1062 81.8861 64.0989 81.9115 64.0845C81.9216 64.0774 81.9297 64.0678 81.9352 64.0566C81.9407 64.0455 81.9432 64.0332 81.9427 64.0208C81.9432 64.0086 81.9406 63.9966 81.9352 63.9857C81.9297 63.9748 81.9215 63.9655 81.9115 63.9587C81.8864 63.9436 81.8574 63.9363 81.8281 63.9375H81.6728V63.9391ZM81.8298 63.8213C81.8964 63.8172 81.9624 63.8363 82.0164 63.8754C82.0381 63.8932 82.0553 63.9158 82.0667 63.9414C82.078 63.967 82.0832 63.9949 82.0818 64.0229C82.0828 64.047 82.0787 64.071 82.0696 64.0933C82.0606 64.1157 82.0468 64.1358 82.0294 64.1524C81.9877 64.1887 81.9353 64.2105 81.8802 64.2145L82.0885 64.4519H81.9281L81.7365 64.2162H81.6744V64.4519H81.5403V63.8217H81.8319L81.8298 63.8213ZM81.7882 64.6694C81.8585 64.6701 81.9282 64.6559 81.9927 64.6277C82.0549 64.601 82.1114 64.5627 82.1593 64.5148C82.2073 64.4671 82.2456 64.4105 82.2722 64.3482C82.3269 64.2162 82.3269 64.0678 82.2722 63.9358C82.2453 63.8737 82.207 63.8172 82.1593 63.7692C82.1114 63.7214 82.0548 63.6831 81.9927 63.6563C81.9278 63.6297 81.8583 63.6164 81.7882 63.6171C81.7168 63.6165 81.6461 63.6298 81.5799 63.6563C81.5163 63.6826 81.4584 63.7209 81.4095 63.7692C81.3358 63.8448 81.286 63.9404 81.2662 64.0441C81.2464 64.1478 81.2576 64.255 81.2983 64.3524C81.3236 64.4149 81.3615 64.4716 81.4095 64.519C81.4585 64.5673 81.5163 64.6056 81.5799 64.6319C81.6457 64.66 81.7166 64.6742 81.7882 64.6736V64.6694ZM81.7882 63.4655C81.9712 63.4653 82.147 63.5371 82.2776 63.6655C82.3406 63.7271 82.3907 63.8006 82.4251 63.8817C82.4607 63.9649 82.479 64.0546 82.479 64.1451C82.479 64.2357 82.4607 64.3253 82.4251 64.4086C82.3899 64.4893 82.3399 64.5626 82.2776 64.6248C82.2137 64.6861 82.1394 64.7355 82.0581 64.7706C81.9727 64.8069 81.8809 64.8253 81.7882 64.8248C81.6943 64.8255 81.6014 64.807 81.5149 64.7706C81.4327 64.7363 81.3576 64.6868 81.2937 64.6248C81.2314 64.5603 81.1821 64.4846 81.1483 64.4015C81.1127 64.3183 81.0943 64.2286 81.0943 64.1381C81.0943 64.0475 81.1127 63.9579 81.1483 63.8746C81.1827 63.7935 81.2328 63.72 81.2958 63.6584C81.3589 63.5953 81.4341 63.5457 81.517 63.5126C81.6034 63.4762 81.6964 63.4577 81.7902 63.4584L81.7882 63.4655ZM18.0027 61.0315C18.0027 59.8297 18.79 58.8424 20.0768 58.8424C21.3065 58.8424 22.1363 59.7872 22.1363 61.0315C22.1363 62.2758 21.3065 63.2206 20.0768 63.2206C18.79 63.2206 18.0027 62.2333 18.0027 61.0315V61.0315ZM23.5381 61.0315V57.6114H22.0513V58.4446C21.5798 57.8289 20.8645 57.4427 19.8918 57.4427C17.9756 57.4427 16.4718 58.9457 16.4718 61.0331C16.4718 63.1206 17.9747 64.6236 19.8918 64.6236C20.8641 64.6236 21.5798 64.237 22.0513 63.6217V64.4519H23.5364V61.0315H23.5381ZM73.7733 61.0315C73.7733 59.8297 74.5606 58.8424 75.8478 58.8424C77.0788 58.8424 77.9074 59.7872 77.9074 61.0315C77.9074 62.2758 77.0788 63.2206 75.8478 63.2206C74.561 63.2206 73.7733 62.2333 73.7733 61.0315ZM79.3104 61.0315V54.8662H77.8224V58.4446C77.3508 57.8289 76.6356 57.4427 75.6629 57.4427C73.7466 57.4427 72.2428 58.9457 72.2428 61.0331C72.2428 63.1206 73.7458 64.6236 75.6629 64.6236C76.6356 64.6236 77.3508 64.237 77.8224 63.6217V64.4519H79.3104V61.0315ZM41.9905 58.772C42.9487 58.772 43.5639 59.3727 43.721 60.4304H40.1734C40.3322 59.4431 40.9316 58.772 41.991 58.772H41.9905ZM42.0205 57.439C40.0168 57.439 38.6151 58.897 38.6151 61.0294C38.6151 63.2035 40.0731 64.6198 42.1201 64.6198C43.1499 64.6198 44.093 64.3628 44.9228 63.6617L44.1942 62.5599C43.621 63.0181 42.8912 63.2751 42.2051 63.2751C41.247 63.2751 40.3747 62.8315 40.1601 61.6005H45.2369C45.2515 61.4156 45.2665 61.2289 45.2665 61.029C45.2515 58.8974 43.9334 57.4385 42.0197 57.4385L42.0205 57.439ZM59.9698 61.029C59.9698 59.8272 60.7571 58.8399 62.0439 58.8399C63.2736 58.8399 64.1034 59.7847 64.1034 61.029C64.1034 62.2733 63.2736 63.2181 62.0439 63.2181C60.7571 63.2181 59.9694 62.2308 59.9694 61.029H59.9698ZM65.5048 61.029V57.6114H64.0189V58.4446C63.5456 57.8289 62.832 57.4427 61.8593 57.4427C59.9431 57.4427 58.4393 58.9457 58.4393 61.0331C58.4393 63.1206 59.9423 64.6236 61.8593 64.6236C62.832 64.6236 63.5456 64.237 64.0189 63.6217V64.4519H65.5052V61.0315L65.5048 61.029ZM51.5738 61.029C51.5738 63.1031 53.0176 64.6194 55.2213 64.6194C56.251 64.6194 56.9371 64.3903 57.6791 63.8042L56.965 62.6024C56.4068 63.0035 55.8207 63.2181 55.1738 63.2181C53.987 63.2035 53.1143 62.3453 53.1143 61.029C53.1143 59.7126 53.987 58.8549 55.1738 58.8399C55.8191 58.8399 56.4052 59.0544 56.965 59.4556L57.6791 58.2538C56.9359 57.6677 56.2498 57.4385 55.2213 57.4385C53.0176 57.4385 51.5738 58.9545 51.5738 61.029V61.029ZM70.7403 57.4385C69.8825 57.4385 69.3239 57.8397 68.9377 58.4404V57.6114H67.4643V64.4482H68.9527V60.6157C68.9527 59.4843 69.4389 58.8557 70.4107 58.8557C70.729 58.8511 71.045 58.9096 71.3405 59.0278L71.7988 57.6264C71.4697 57.4969 71.0406 57.4398 70.7394 57.4398L70.7403 57.4385ZM30.8885 58.155C30.1732 57.6835 29.1876 57.4398 28.1004 57.4398C26.3683 57.4398 25.2531 58.27 25.2531 59.6285C25.2531 60.7432 26.0833 61.431 27.6121 61.6455L28.3145 61.7455C29.1297 61.86 29.5146 62.0746 29.5146 62.4607C29.5146 62.9894 28.9731 63.291 27.9562 63.291C26.9265 63.291 26.1833 62.9619 25.6822 62.5757L24.9836 63.735C25.7988 64.3357 26.8286 64.6223 27.9437 64.6223C29.9183 64.6223 31.0626 63.6925 31.0626 62.3907C31.0626 61.1889 30.162 60.5603 28.674 60.3458L27.9733 60.2442C27.3297 60.1608 26.814 60.0313 26.814 59.5731C26.814 59.0732 27.3001 58.7724 28.1158 58.7724C28.9885 58.7724 29.8333 59.1015 30.2474 59.3585L30.891 58.1567L30.8885 58.155ZM50.072 57.441C49.2143 57.441 48.6557 57.8422 48.2712 58.4429V57.6114H46.7978V64.4482H48.2845V60.6157C48.2845 59.4843 48.7707 58.8557 49.7425 58.8557C50.0608 58.8511 50.3768 58.9096 50.6723 59.0278L51.1305 57.6264C50.8015 57.4969 50.3724 57.4398 50.0712 57.4398L50.072 57.441ZM37.3849 57.6114H34.9538V55.5373H33.4508V57.6114H32.064V58.9703H33.4508V62.0892C33.4508 63.6755 34.0665 64.6202 35.8253 64.6202C36.4705 64.6202 37.2137 64.4203 37.6853 64.0916L37.2558 62.8186C36.8121 63.0756 36.326 63.2051 35.9394 63.2051C35.1962 63.2051 34.9538 62.7469 34.9538 62.0608V58.9715H37.3849V57.6114ZM15.1571 64.4499V60.1592C15.1571 58.5433 14.1273 57.456 12.4672 57.4415C11.5945 57.4269 10.6943 57.6985 10.064 58.6578C9.59249 57.8997 8.84932 57.4415 7.80456 57.4415C7.07431 57.4415 6.36072 57.656 5.8021 58.4566V57.6114H4.3141V64.4482H5.81376V60.6574C5.81376 59.4706 6.47194 58.8399 7.48838 58.8399C8.47566 58.8399 8.97513 59.4835 8.97513 60.6424V64.4474H10.4781V60.6566C10.4781 59.4697 11.1642 58.8391 12.1511 58.8391C13.1663 58.8391 13.6507 59.4827 13.6507 60.6416V64.4465L15.1571 64.4499Z" fill="#231F20"/>
<path d="M82.5204 41.7078V40.708H82.2601L81.9589 41.3941L81.6594 40.708H81.3982V41.7078H81.5831V40.9546L81.8647 41.6045H82.0564L82.338 40.953V41.7078H82.5212H82.5204ZM80.8687 41.7078V40.8792H81.202V40.7105H80.3505V40.8792H80.6838V41.7078H80.867H80.8687Z" fill="#F79410"/>
<path d="M52.9285 45.9957H30.3978V5.50488H52.9289L52.9285 45.9957Z" fill="#FF5F00"/>
<path d="M31.8261 25.7513C31.8261 17.5377 35.6719 10.221 41.6605 5.50586C37.1274 1.93145 31.5207 -0.00850169 25.7479 2.80081e-05C11.5274 2.80081e-05 0 11.5291 0 25.7513C0 39.9734 11.5274 51.5025 25.7479 51.5025C31.5208 51.5111 37.1277 49.5711 41.6609 45.9966C35.6727 41.2823 31.8261 33.9652 31.8261 25.7513Z" fill="#EB001B"/>
<path d="M82.6052 25.7513C82.6052 39.9734 71.0778 51.5025 56.8573 51.5025C51.0837 51.5109 45.4762 49.571 40.9421 45.9966C46.9324 41.2815 50.7782 33.9652 50.7782 25.7513C50.7782 17.5373 46.9324 10.221 40.9421 5.50586C45.4761 1.93156 51.0834 -0.00835218 56.8569 2.70311e-05C71.0774 2.70311e-05 82.6047 11.5291 82.6047 25.7513" fill="#F79E1B"/>
</svg>
