<svg width="27" height="65" viewBox="0 0 27 65" fill="none" xmlns="http://www.w3.org/2000/svg">
<path d="M26 13.5V26.5C26 33.4036 20.4036 39 13.5 39C6.59644 39 1 33.4036 1 26.5V13.5C1 6.59644 6.59644 1 13.5 1C20.4036 1 26 6.59644 26 13.5Z" stroke="#0C145A" stroke-width="2"/>
<rect x="11" y="7" width="5" height="13" rx="2.5" fill="#0C145A"/>
<path d="M17.3143 56.3998L13.4951 61.7027L9.67584 56.3998C9.29195 55.8667 8.67181 55.8667 8.28792 56.3998C7.90403 56.9328 7.90403 57.7938 8.28792 58.3269L12.806 64.6002C13.1899 65.1333 13.8101 65.1333 14.194 64.6002L18.7121 58.3269C19.096 57.7938 19.096 56.9328 18.7121 56.3998C18.3282 55.8804 17.6982 55.8667 17.3143 56.3998Z" fill="#0C145A"/>
</svg>
