<svg width="20" height="21" viewBox="0 0 20 21" fill="none" xmlns="http://www.w3.org/2000/svg">
<path d="M11.2416 5.06673C12.1583 5.06673 12.9083 4.31673 12.9083 3.40007C12.9083 2.4834 12.1583 1.7334 11.2416 1.7334C10.325 1.7334 9.57495 2.4834 9.57495 3.40007C9.57495 4.31673 10.325 5.06673 11.2416 5.06673ZM8.59995 15.0667L9.07495 12.9834L10.825 14.6501V18.8167C10.825 19.2751 11.2 19.6501 11.6583 19.6501C12.1166 19.6501 12.4916 19.2751 12.4916 18.8167V14.1167C12.4916 13.6584 12.3083 13.2251 11.975 12.9084L10.7416 11.7334L11.2416 9.2334C12.1333 10.2667 13.425 11.0084 14.875 11.2417C15.375 11.3167 15.825 10.9167 15.825 10.4084C15.825 10.0001 15.525 9.6584 15.1166 9.59173C13.85 9.3834 12.8 8.6334 12.2416 7.65006L11.4083 6.31673C11.075 5.81673 10.575 5.4834 9.99162 5.4834C9.74162 5.4834 9.57495 5.56673 9.32495 5.56673L6.00829 6.96673C5.39162 7.2334 4.99162 7.8334 4.99162 8.5084V10.4834C4.99162 10.9417 5.36662 11.3167 5.82495 11.3167C6.28329 11.3167 6.65829 10.9417 6.65829 10.4834V8.4834L8.15829 7.90006L6.82495 14.6501L3.55829 13.9834C3.10829 13.8917 2.66662 14.1834 2.57495 14.6334V14.6667C2.48329 15.1167 2.77495 15.5584 3.22495 15.6501L6.64995 16.3334C7.53329 16.5084 8.39995 15.9501 8.59995 15.0667Z" fill="#4E9982"/>
</svg>
