<svg width="136" height="94" viewBox="0 0 136 94" fill="none" xmlns="http://www.w3.org/2000/svg">
<path d="M60.3835 64.4681H51.329L56.9923 31.5664H66.0464L60.3835 64.4681Z" fill="#15195A"/>
<path d="M93.2063 32.371C91.4203 31.7053 88.5877 30.9702 85.0851 30.9702C76.1434 30.9702 69.8468 35.4502 69.8082 41.8552C69.7339 46.5809 74.3164 49.2056 77.7437 50.7813C81.2468 52.3914 82.4376 53.4423 82.4376 54.8775C82.4019 57.0816 79.6069 58.0977 77 58.0977C73.3851 58.0977 71.4481 57.5738 68.5045 56.3475L67.3122 55.8218L66.0452 63.2076C68.1688 64.1166 72.0814 64.9233 76.1435 64.9586C85.6441 64.9586 91.8293 60.5479 91.9026 53.7223C91.9387 49.9769 89.519 47.107 84.3023 44.7619C81.1354 43.2565 79.196 42.2414 79.196 40.7011C79.2331 39.3008 80.8363 37.8665 84.4112 37.8665C87.3548 37.7963 89.5175 38.4611 91.1559 39.1263L91.9749 39.4757L93.2063 32.371V32.371V32.371Z" fill="#15195A"/>
<path fill-rule="evenodd" clip-rule="evenodd" d="M109.414 31.5664H116.418L123.723 64.4676H115.339C115.339 64.4676 114.518 60.6873 114.259 59.5322H102.633C102.297 60.4068 100.733 64.4676 100.733 64.4676H91.2323L104.682 34.2963C105.613 32.1609 107.254 31.5664 109.414 31.5664ZM108.856 43.6066C108.856 43.6066 105.987 50.922 105.241 52.8122H112.767C112.395 51.1672 110.68 43.2916 110.68 43.2916L110.048 40.4566C109.781 41.1866 109.396 42.1903 109.136 42.8673C108.96 43.3262 108.841 43.6349 108.856 43.6066Z" fill="#15195A"/>
<path fill-rule="evenodd" clip-rule="evenodd" d="M12.097 31.5664H26.6648C28.6394 31.6357 30.2417 32.2307 30.763 34.3321L33.9287 49.4475C33.9292 49.449 33.9296 49.4505 33.9301 49.452L34.8991 54.0022L43.7664 31.5664H53.3408L39.1087 64.4332H29.5338L21.4635 35.8446C18.679 34.3151 15.5011 33.0849 11.9479 32.2312L12.097 31.5664Z" fill="#15195A"/>
</svg>
